<svg width="60" height="60" viewBox="0 0 60 60" fill="none" xmlns="http://www.w3.org/2000/svg">
<path d="M43.5305 17.5125C40.9298 16.3218 38.1844 15.4771 35.3642 15C34.9783 15.6899 34.6291 16.3997 34.3181 17.1264C31.3141 16.6737 28.2593 16.6737 25.2553 17.1264C24.9441 16.3997 24.5949 15.69 24.2092 15C21.3872 15.4812 18.64 16.3279 16.0367 17.5187C10.8686 25.165 9.46759 32.6214 10.1681 39.972C13.1947 42.2082 16.5823 43.9088 20.1837 45C20.9946 43.9093 21.7121 42.7523 22.3287 41.5411C21.1576 41.1037 20.0273 40.564 18.9508 39.9284C19.2341 39.7229 19.5112 39.5112 19.7789 39.3057C22.9112 40.7788 26.33 41.5425 29.7914 41.5425C33.2528 41.5425 36.6715 40.7788 39.8038 39.3057C40.0747 39.5268 40.3518 39.7385 40.632 39.9284C39.5534 40.5651 38.421 41.1058 37.2478 41.5442C37.8636 42.7548 38.5812 43.9109 39.3929 45C42.9973 43.9132 46.3875 42.2133 49.4147 39.9751C50.2366 31.4508 48.0106 24.0629 43.5305 17.5125ZM23.216 35.4514C21.264 35.4514 19.6513 33.6799 19.6513 31.5006C19.6513 29.3213 21.2079 27.5342 23.2098 27.5342C25.2117 27.5342 26.8119 29.3213 26.7777 31.5006C26.7434 33.6799 25.2054 35.4514 23.216 35.4514ZM36.3667 35.4514C34.4116 35.4514 32.8051 33.6799 32.8051 31.5006C32.8051 29.3213 34.3617 27.5342 36.3667 27.5342C38.3717 27.5342 39.9595 29.3213 39.9252 31.5006C39.891 33.6799 38.3561 35.4514 36.3667 35.4514Z" fill="#C2E812"/>
</svg>
