<svg width="62" height="61" viewBox="0 0 62 61" fill="none" xmlns="http://www.w3.org/2000/svg">
<path d="M24.8786 28.2309L24.8859 28.2296C24.9318 28.224 24.9775 28.2161 25.0226 28.2059C25.0435 28.2018 25.0642 28.1997 25.0844 28.1951C25.1267 28.184 25.1682 28.167 25.2096 28.1521C25.2303 28.1447 25.2521 28.1389 25.2725 28.1302C25.2928 28.1215 25.3386 28.0953 25.3708 28.0794C25.4029 28.0636 25.4225 28.0544 25.447 28.0385C25.4716 28.0226 25.4951 28.003 25.5194 27.9858C25.5436 27.9687 25.5793 27.9431 25.6065 27.9191C25.6065 27.9191 25.6093 27.9143 25.6111 27.9111C25.6316 27.893 25.648 27.8725 25.6674 27.8526C25.6868 27.8326 25.719 27.8019 25.7417 27.7743C25.7645 27.7468 25.7804 27.7217 25.7969 27.6991C25.8135 27.6766 25.836 27.6457 25.8529 27.617C25.8698 27.5883 25.8863 27.5604 25.8975 27.5284C25.9088 27.4965 25.9304 27.4726 25.9364 27.444C25.9424 27.4155 25.9578 27.3764 25.9683 27.3419C25.9789 27.3074 25.9862 27.2913 25.992 27.2649C25.992 27.2649 25.9949 27.2601 25.9968 27.2569C26.0035 27.2213 26.0084 27.1853 26.0114 27.1492C26.0233 27.0914 26.0264 27.0322 26.0204 26.9735C26.0197 26.9379 26.0215 26.9017 26.0178 26.8656C26.0141 26.8294 26.0087 26.8201 26.0052 26.7967C26.0015 26.7734 25.9916 26.7146 25.9796 26.676C25.9742 26.6558 25.9645 26.6355 25.9577 26.6156C25.9446 26.573 25.9291 26.5311 25.911 26.4903L25.9089 26.4828L15.8548 4.98586L29.8183 24.2662L29.8256 24.2704C29.8506 24.3026 29.8773 24.3337 29.9054 24.3634C29.9224 24.3826 29.9372 24.4036 29.955 24.4212C29.9814 24.4457 30.0091 24.4688 30.038 24.4904C30.0604 24.5095 30.0822 24.5314 30.1061 24.5481C30.1299 24.5648 30.1574 24.5772 30.1834 24.5919C30.2095 24.6066 30.2469 24.6278 30.2787 24.6458C30.3105 24.6638 30.326 24.6651 30.3494 24.6751C30.3853 24.6954 30.4253 24.7085 30.4654 24.7216L30.4728 24.7257C30.4967 24.7329 30.5209 24.736 30.5446 24.7419C30.5825 24.7525 30.6209 24.7611 30.6598 24.7677C30.6908 24.7721 30.7222 24.7749 30.7536 24.776C30.7888 24.779 30.8231 24.7835 30.8581 24.7831C30.8931 24.7826 30.9237 24.7787 30.9567 24.776C30.9898 24.7734 31.0239 24.7726 31.0571 24.7679C31.0902 24.7633 31.1271 24.7522 31.1613 24.7439C31.1956 24.7356 31.2163 24.7335 31.2438 24.7256L31.2529 24.7212C31.2864 24.7104 31.3176 24.6961 31.3504 24.6828C31.3833 24.6694 31.4104 24.6603 31.4387 24.6455C31.467 24.6307 31.4825 24.6192 31.5039 24.6068C31.5388 24.5861 31.5754 24.5664 31.6089 24.5428C31.6226 24.5325 31.6352 24.5204 31.648 24.5096C31.6866 24.4792 31.726 24.4473 31.76 24.4155C31.7679 24.4019 31.7813 24.3903 31.7918 24.3781C31.8268 24.3424 31.8594 24.3043 31.8893 24.2641C31.8893 24.2641 31.8893 24.2642 31.8926 24.2586L45.8594 4.98267L35.8058 26.4633C35.778 26.5226 35.7549 26.5839 35.7368 26.6467C35.7341 26.6514 35.7307 26.657 35.7274 26.6626C35.7118 26.7191 35.7004 26.7767 35.6933 26.8348C35.6886 26.8428 35.6909 26.8536 35.6902 26.8639C35.6841 26.9213 35.682 26.9792 35.6839 27.0369L35.686 27.0572C35.6887 27.1131 35.6958 27.1688 35.7074 27.2236C35.7079 27.2291 35.7087 27.2345 35.7098 27.2399L35.712 27.2528C35.7179 27.2795 35.7289 27.305 35.7362 27.3313C35.7434 27.3578 35.7548 27.3994 35.7671 27.4318C35.7794 27.4643 35.7959 27.4917 35.8101 27.5211C35.8243 27.5504 35.8372 27.58 35.8532 27.6082C35.8692 27.6364 35.8931 27.6659 35.9116 27.6933C35.9302 27.7209 35.9456 27.7445 35.9652 27.7683C35.9848 27.7922 36.0181 27.8259 36.0455 27.8531C36.0729 27.8804 36.0774 27.8893 36.0966 27.9065L36.1039 27.9106C36.1347 27.9376 36.1687 27.9611 36.2021 27.9853C36.2242 27.9978 36.2419 28.0174 36.2634 28.0306C36.285 28.0438 36.327 28.0665 36.3587 28.0845C36.3905 28.1025 36.4108 28.114 36.4361 28.1283C36.4613 28.1426 36.4931 28.1477 36.5211 28.1572C36.5547 28.1709 36.5889 28.1828 36.6239 28.193C36.6483 28.1994 36.6751 28.2018 36.7006 28.2066C36.7405 28.2143 36.7808 28.2233 36.8219 28.2273L36.8292 28.2315L60.8555 30.4376L36.8329 32.6474L36.8244 32.6489C36.8096 32.6501 36.7954 32.6538 36.7802 32.6558C36.7351 32.6622 36.6903 32.67 36.6464 32.6802L36.5881 32.6961C36.5481 32.7073 36.5087 32.7205 36.4702 32.7359C36.4534 32.7422 36.4352 32.7491 36.4188 32.7568C36.364 32.7809 36.3112 32.809 36.2607 32.8408C36.2607 32.8408 36.2574 32.8464 36.2555 32.8495C36.2072 32.8805 36.1615 32.9151 36.1186 32.9529C36.1123 32.9569 36.1064 32.9614 36.1009 32.9663C36.0962 32.9743 36.0869 32.9808 36.0793 32.9882C36.0476 33.0181 36.0183 33.0494 35.9888 33.0827C35.9803 33.0971 35.9662 33.1082 35.9553 33.1212C35.9194 33.1661 35.8865 33.2133 35.8569 33.2624C35.8283 33.312 35.8031 33.3635 35.7813 33.4164C35.7728 33.4308 35.7701 33.4483 35.7641 33.4641C35.7498 33.5049 35.7363 33.5463 35.7257 33.5881L35.7171 33.6173C35.7158 33.6246 35.7147 33.6318 35.7141 33.639C35.7024 33.6947 35.6946 33.751 35.6907 33.8078C35.6895 33.8106 35.688 33.8133 35.6861 33.8157C35.6832 33.8745 35.6848 33.9334 35.6908 33.9919C35.6923 34.0097 35.695 34.0272 35.6977 34.0446C35.704 34.0854 35.7125 34.1256 35.7232 34.1654C35.7268 34.1845 35.7317 34.2032 35.7378 34.2216C35.7494 34.2661 35.7639 34.3099 35.7812 34.3525C35.7863 34.3661 35.7901 34.3799 35.7965 34.3931L35.7994 34.4011L45.8567 55.8924L31.8933 36.612L31.8859 36.6079C31.8618 36.5751 31.8337 36.5454 31.8069 36.5153C31.79 36.4962 31.7744 36.4746 31.7566 36.457C31.7387 36.4395 31.7017 36.4101 31.674 36.387C31.6464 36.3639 31.6293 36.3468 31.6055 36.3301C31.5816 36.3134 31.5534 36.3007 31.5281 36.2863C31.4973 36.2668 31.4655 36.2488 31.4328 36.2324C31.4108 36.22 31.3855 36.2131 31.3622 36.2031C31.3263 36.1829 31.2862 36.1698 31.247 36.1572L31.2397 36.153C31.2156 36.1458 31.1914 36.1427 31.1669 36.1363C31.1292 36.1255 31.0907 36.1169 31.0518 36.1106C31.0209 36.1059 30.9903 36.1045 30.958 36.1022C30.9233 36.098 30.8884 36.0957 30.8535 36.0952C30.8197 36.0953 30.7871 36.0992 30.754 36.1017C30.721 36.1044 30.6868 36.1052 30.6537 36.1099C30.6205 36.1146 30.5845 36.1261 30.5494 36.1339C30.5144 36.1417 30.4944 36.1443 30.4678 36.1526L30.4553 36.1573L30.4402 36.1626C30.3861 36.1811 30.3332 36.2031 30.2819 36.2284L30.2637 36.2372C30.2113 36.264 30.161 36.2946 30.1132 36.3287C30.1085 36.3366 30.0969 36.3397 30.089 36.3458C30.0411 36.3809 29.996 36.4194 29.9538 36.4609C29.951 36.4656 29.9477 36.4712 29.9444 36.4768C29.8979 36.5217 29.8549 36.5699 29.8159 36.6212L15.8524 55.8915L25.9107 34.4029C25.9107 34.4029 25.9131 34.3988 25.914 34.3973C25.9335 34.3551 25.948 34.3101 25.9629 34.2664C25.9723 34.2505 25.9777 34.2301 25.9823 34.2114C25.9931 34.1688 26.0016 34.1256 26.0075 34.082C26.0113 34.0608 26.0167 34.0405 26.0193 34.0196C26.0237 33.9827 26.0222 33.9446 26.0237 33.9072C26.0251 33.8697 26.0271 33.8517 26.0258 33.8244C26.0246 33.797 26.0181 33.7636 26.0132 33.7332C26.0084 33.7028 26.0066 33.6634 25.9998 33.6288C25.9998 33.6288 26.0022 33.6248 25.9979 33.6192C25.992 33.5925 25.9809 33.567 25.9737 33.5406C25.9664 33.5142 25.9551 33.4726 25.9427 33.4401C25.9304 33.4076 25.9139 33.3803 25.9002 33.3501C25.8865 33.32 25.8731 33.2912 25.8566 33.2638C25.8402 33.2364 25.8181 33.2058 25.7987 33.1778C25.7794 33.1498 25.764 33.1262 25.7444 33.1024C25.7247 33.0786 25.6909 33.0456 25.6635 33.0184C25.6362 32.9912 25.6316 32.9822 25.6125 32.965L25.6051 32.9609C25.5739 32.9342 25.5411 32.9092 25.5069 32.8861C25.4849 32.8737 25.4672 32.8541 25.4456 32.8409C25.4148 32.8213 25.383 32.8033 25.3503 32.787C25.325 32.7727 25.299 32.758 25.2729 32.7432C25.2469 32.7285 25.2173 32.7234 25.1884 32.7134C25.1595 32.7035 25.12 32.6876 25.0852 32.6786C25.0504 32.6695 25.0339 32.6698 25.009 32.6642C24.984 32.6586 24.9287 32.6474 24.8877 32.6434L24.8803 32.6393L0.85553 30.4341L24.8786 28.2309Z" fill="#C2E812" stroke="#254D32" stroke-miterlimit="10" stroke-linejoin="round"/>
<path d="M28.6141 36.315L28.6128 36.3078C28.6071 36.2626 28.5991 36.2178 28.5888 36.1734C28.5841 36.1537 28.5825 36.1325 28.5777 36.1127C28.5654 36.071 28.5508 36.0299 28.5341 35.9896C28.5266 35.9693 28.5208 35.9478 28.5119 35.9278C28.5031 35.9078 28.4773 35.8632 28.4604 35.8311C28.4435 35.7991 28.435 35.7803 28.4196 35.7566C28.4043 35.7329 28.3828 35.7089 28.3653 35.6851C28.3479 35.6613 28.322 35.6262 28.2977 35.5995L28.2896 35.5949C28.2711 35.5747 28.2503 35.5586 28.2301 35.5396C28.2098 35.5206 28.1786 35.4889 28.1507 35.4665C28.1228 35.4441 28.0973 35.4285 28.0703 35.41C28.0434 35.3914 28.0161 35.3715 27.987 35.3549C27.9578 35.3382 27.9295 35.3221 27.8971 35.311C27.8646 35.3 27.8404 35.2787 27.8073 35.2705C27.7743 35.2624 27.7387 35.2495 27.7036 35.2391C27.6687 35.2287 27.6524 35.2215 27.6255 35.2158L27.6174 35.2112C27.5812 35.2045 27.5447 35.1997 27.508 35.1968C27.4494 35.1851 27.3893 35.1821 27.3297 35.1879C27.2937 35.1886 27.2568 35.1869 27.2202 35.1906C27.1835 35.1941 27.174 35.1994 27.1503 35.2029C27.1266 35.2065 27.067 35.2163 27.0277 35.228C27.0073 35.2334 26.9866 35.2429 26.9665 35.2496C26.9232 35.2624 26.8807 35.2777 26.8393 35.2955L26.8316 35.2975L5.02315 45.1875L24.5931 31.4609L24.5973 31.4537C24.6306 31.43 24.6608 31.4024 24.6913 31.376C24.7107 31.3594 24.7326 31.3441 24.7505 31.3265C24.7683 31.3089 24.7981 31.2726 24.8216 31.2454C24.845 31.2183 24.8623 31.2015 24.8793 31.1781C24.8962 31.1546 24.9087 31.1276 24.926 31.098C24.9458 31.0677 24.9641 31.0364 24.9807 31.0043C24.9934 30.9827 25.0003 30.9579 25.0105 30.9348C25.027 30.8973 25.0444 30.8602 25.0572 30.8216C25.0592 30.8192 25.0607 30.8165 25.0618 30.8136C25.0692 30.79 25.0723 30.7662 25.0783 30.7429C25.0881 30.7058 25.0984 30.6679 25.1045 30.6298C25.1106 30.5916 25.1111 30.5684 25.1138 30.538C25.1165 30.5074 25.1205 30.4691 25.1201 30.4348C25.1196 30.4003 25.1156 30.3703 25.1129 30.3378C25.1103 30.3054 25.1094 30.2718 25.1047 30.2392C25.1 30.2066 25.0887 30.1703 25.0803 30.1366C25.0719 30.103 25.0698 30.0826 25.0613 30.0564L25.0573 30.0467C25.0463 30.0137 25.0318 29.9831 25.0178 29.9515C25.007 29.9217 24.9944 29.8925 24.9804 29.864C24.9688 29.8414 24.9537 29.821 24.9411 29.7999C24.9202 29.7656 24.9002 29.7296 24.8762 29.6967C24.8657 29.6832 24.8535 29.6709 24.8425 29.6582C24.8127 29.62 24.7806 29.5836 24.7465 29.549C24.7327 29.5411 24.721 29.528 24.7091 29.517C24.6727 29.4825 24.6341 29.4504 24.5934 29.421L24.5877 29.4178L5.02228 15.688L26.8256 25.571C26.8857 25.5983 26.9479 25.621 27.0117 25.6388L27.0278 25.648C27.0852 25.6633 27.1436 25.6746 27.2026 25.6816L27.2322 25.6846C27.2905 25.691 27.3491 25.6931 27.4078 25.6909L27.4284 25.6888C27.4851 25.6861 27.5416 25.679 27.5973 25.6677L27.6137 25.6654L27.6269 25.6632C27.6541 25.6574 27.6794 25.6473 27.7067 25.6394C27.7339 25.6315 27.7756 25.6212 27.8086 25.609C27.8416 25.5969 27.8694 25.5808 27.8992 25.5667C27.929 25.5528 27.9591 25.5401 27.9876 25.5244C28.0163 25.5087 28.0457 25.486 28.0749 25.4675C28.104 25.4489 28.1265 25.4328 28.1507 25.4135C28.1749 25.3942 28.2091 25.3615 28.2367 25.3346C28.254 25.3178 28.2734 25.3032 28.2904 25.2851C28.2923 25.2827 28.2939 25.28 28.2951 25.2771C28.3225 25.2468 28.3463 25.2135 28.3709 25.1806C28.3835 25.1589 28.4035 25.1415 28.4169 25.1204C28.4367 25.09 28.455 25.0588 28.4716 25.0266C28.4865 25.001 28.5015 24.9754 28.5184 24.9466C28.5352 24.9177 28.5381 24.8906 28.5485 24.8634C28.559 24.8363 28.5748 24.7963 28.584 24.762C28.5932 24.7278 28.593 24.7116 28.5978 24.6867C28.6057 24.6474 28.6147 24.6077 28.6189 24.5674L28.6231 24.5601L30.8618 0.942139L33.1001 24.5653L33.1017 24.5736C33.103 24.5882 33.1067 24.6021 33.1088 24.6172C33.1144 24.6615 33.1227 24.7054 33.1334 24.7487C33.1381 24.7684 33.1437 24.7866 33.1497 24.806C33.161 24.8453 33.1744 24.884 33.19 24.9219C33.1965 24.9384 33.2034 24.9562 33.2112 24.9724C33.2357 25.0262 33.2642 25.0782 33.2965 25.1278L33.3053 25.1329C33.3373 25.1799 33.3725 25.2246 33.4107 25.2668C33.4148 25.2729 33.4193 25.2787 33.4244 25.2841C33.4314 25.2916 33.4388 25.2986 33.4465 25.3053C33.4768 25.3367 33.5089 25.3664 33.5425 25.3943L33.5816 25.4272C33.6272 25.4625 33.6751 25.4948 33.7249 25.524C33.7753 25.5521 33.8275 25.5768 33.8812 25.5983L33.9297 25.6152C33.9709 25.63 34.0129 25.6426 34.0555 25.6529C34.0653 25.6563 34.0752 25.659 34.0852 25.6613C34.0925 25.6627 34.0998 25.6637 34.1072 25.6643C34.1636 25.6763 34.2209 25.684 34.2784 25.6873L34.2866 25.6919C34.3462 25.6947 34.4059 25.6931 34.4653 25.6872C34.4834 25.6858 34.5012 25.6831 34.5189 25.6804C34.5602 25.6743 34.6011 25.6659 34.6415 25.6554C34.6606 25.6518 34.6794 25.6472 34.6981 25.6417C34.7418 25.6289 34.7848 25.614 34.8269 25.5968C34.8411 25.591 34.8552 25.5873 34.8685 25.581L34.8766 25.5782L56.6859 15.6887L37.1159 29.4153L37.1117 29.4225C37.0784 29.4462 37.0483 29.4738 37.0178 29.5002C36.9983 29.5168 36.9764 29.5321 36.9586 29.5496C36.9408 29.5672 36.911 29.6036 36.8875 29.6308C36.8641 29.658 36.8467 29.6748 36.8298 29.6982C36.8129 29.7216 36.7998 29.7494 36.783 29.7782C36.7632 29.8085 36.745 29.8398 36.7284 29.8719C36.7157 29.8935 36.7088 29.9184 36.6986 29.9414C36.682 29.9789 36.6647 30.016 36.6519 30.0546C36.6501 30.0567 36.6487 30.0592 36.6477 30.0618C36.6403 30.0854 36.6372 30.1092 36.6308 30.1333C36.6198 30.1704 36.611 30.2082 36.6046 30.2465C36.5998 30.2768 36.5984 30.3069 36.5961 30.3388C36.5937 30.3705 36.5886 30.407 36.589 30.4415C36.5895 30.4758 36.5935 30.5059 36.5961 30.5384C36.5987 30.5708 36.5997 30.6044 36.6044 30.637C36.6091 30.6696 36.6208 30.7051 36.6287 30.7395C36.6367 30.774 36.6393 30.7936 36.6477 30.8198L36.6525 30.8321L36.6586 30.8473C36.6765 30.9006 36.6986 30.9525 36.7247 31.0024L36.7331 31.0212C36.7608 31.0722 36.792 31.1214 36.8264 31.1684L36.8438 31.1921C36.8794 31.2392 36.9185 31.2836 36.9606 31.325L36.9768 31.3343C37.0242 31.38 37.0752 31.4219 37.1292 31.4597L56.689 45.1863L34.8784 35.2991L34.872 35.2954C34.8291 35.2763 34.7835 35.262 34.7391 35.2474C34.7206 35.2421 34.7018 35.2335 34.6833 35.2283C34.6401 35.2176 34.5962 35.2093 34.552 35.2035C34.5305 35.1997 34.5099 35.1944 34.4886 35.1919C34.4511 35.1876 34.4125 35.1891 34.374 35.1884C34.3355 35.1878 34.3181 35.1843 34.2904 35.1855C34.2627 35.1868 34.2288 35.193 34.1979 35.1978C34.167 35.2027 34.1271 35.2044 34.092 35.2111C34.092 35.2111 34.0879 35.2087 34.0822 35.2129C34.055 35.2187 34.0292 35.2296 34.0024 35.2367C33.9756 35.2439 33.9334 35.255 33.9004 35.2672C33.8675 35.2793 33.8396 35.2955 33.8091 35.309C33.7785 35.3225 33.7492 35.3357 33.7215 35.3518C33.6936 35.368 33.6626 35.3898 33.6342 35.4088C33.6058 35.4278 33.5818 35.4429 33.5576 35.4622C33.5334 35.4815 33.5 35.5147 33.4723 35.5416C33.4447 35.5686 33.4352 35.5738 33.4182 35.5919C33.4164 35.594 33.415 35.5964 33.414 35.5991C33.3869 35.6298 33.3615 35.6621 33.3382 35.6956C33.3255 35.7173 33.3056 35.7347 33.2922 35.7559C33.2723 35.7862 33.2541 35.8174 33.2375 35.8495C33.223 35.8743 33.208 35.9 33.1907 35.9296C33.1734 35.9593 33.1706 35.9843 33.1605 36.0127C33.1505 36.0411 33.1342 36.08 33.1251 36.1142C33.1159 36.1484 33.1161 36.1646 33.1104 36.1891C33.1026 36.2284 33.0935 36.2681 33.0893 36.3084C33.0893 36.3084 33.0866 36.3132 33.0851 36.3156L30.8469 59.9328L28.6141 36.315Z" fill="#C2E812" stroke="#254D32" stroke-miterlimit="10" stroke-linejoin="round"/>
<path d="M39.3255 25.8715C39.6669 25.3292 39.8884 24.7306 39.9776 24.1097C40.0667 23.4888 40.0215 22.8579 39.8447 22.2531C39.6679 21.6482 39.3628 21.0813 38.9471 20.5847C38.5314 20.0881 38.013 19.6715 37.4217 19.3588C36.8309 19.0456 36.1787 18.8424 35.5023 18.7606C34.8259 18.6788 34.1385 18.7201 33.4795 18.8821C32.8205 19.0441 32.2028 19.3237 31.6615 19.7049C31.1203 20.0861 30.6662 20.5613 30.3252 21.1036L26.6887 26.8831L35.6854 31.6492L39.3255 25.8715Z" fill="#C2E812" stroke="#254D32" stroke-miterlimit="10" stroke-linejoin="round"/>
<path d="M26.8575 26.8015L23.2189 32.9434C22.53 34.1062 22.343 35.4881 22.6991 36.7853C23.0552 38.0825 23.9253 39.1888 25.118 39.8611C26.3118 40.5324 27.7304 40.7141 29.0617 40.3663C30.3931 40.0185 31.5281 39.1696 32.2172 38.0063L35.8559 31.8644L26.8575 26.8015Z" fill="#C2E812" stroke="#254D32" stroke-miterlimit="10" stroke-linejoin="round"/>
<path d="M36.6404 18.7197C37.5735 19.456 38.2017 20.4798 38.4142 21.6106C38.6268 22.7415 38.4102 23.9069 37.8026 24.9018L34.1887 30.8151L35.7178 31.6492L39.3318 25.7358C39.6705 25.181 39.8902 24.5686 39.9782 23.9337C40.0663 23.2987 40.0212 22.6535 39.8452 22.035C39.6694 21.4165 39.3663 20.8368 38.9532 20.329C38.5401 19.8212 38.0253 19.3953 37.4379 19.0754C37.1832 18.9359 36.9164 18.8169 36.6404 18.7197Z" fill="#C2E812" stroke="#254D32" stroke-miterlimit="10" stroke-linejoin="round"/>
<path d="M34.2894 30.8416L30.5878 37.084C29.9651 38.1338 28.9819 38.936 27.8112 39.3491C26.6406 39.7622 25.3578 39.7597 24.1889 39.3421C24.4211 39.5318 24.6698 39.7017 24.9321 39.8495C26.1466 40.5319 27.5897 40.7165 28.944 40.3631C30.2983 40.0095 31.453 39.1467 32.154 37.9644L35.8556 31.722L34.2894 30.8416Z" fill="#C2E812" stroke="#254D32" stroke-miterlimit="10" stroke-linejoin="round"/>
</svg>
