<svg width="12" height="10" viewBox="0 0 12 10" fill="none" xmlns="http://www.w3.org/2000/svg">
<path d="M12 3.03821C12 1.36304 10.5913 0 8.86025 0C7.58977 0 6.49383 0.7339 5.9999 1.78599C5.50617 0.7339 4.41003 0 3.14015 0C1.40826 0 0 1.36304 0 3.03821C0 3.39158 0.0626252 3.73048 0.178179 4.04632C0.30949 4.40594 0.508476 4.73429 0.760795 5.01749C0.86847 5.13867 0.985236 5.25125 1.1115 5.35464L5.90091 9.9572C5.9304 9.98573 5.96879 10 6.00758 10C6.04636 10 6.08535 9.98573 6.11505 9.9572L11.0822 5.18264L11.0818 5.18206C11.4038 4.86993 11.6562 4.49096 11.8143 4.06821C11.9343 3.74651 12 3.39959 12 3.03821Z" fill="#FFD972"/>
</svg>
