<svg width="32" height="32" viewBox="0 0 32 32" fill="none" xmlns="http://www.w3.org/2000/svg">
<path fill-rule="evenodd" clip-rule="evenodd" d="M25.9818 13.7139C25.9818 17.0422 28.6716 19.732 31.9999 19.732V25.982C25.2198 25.982 19.7318 20.494 19.7318 13.7139H25.9818Z" fill="url(#paint0_linear_263_57)"/>
<path fill-rule="evenodd" clip-rule="evenodd" d="M19.7318 32C19.7318 25.2199 25.2198 19.7319 31.9999 19.7319V25.9819C28.6716 25.9819 25.9818 28.6717 25.9818 32H19.7318Z" fill="url(#paint1_linear_263_57)"/>
<path fill-rule="evenodd" clip-rule="evenodd" d="M6.01811 18.2862C6.01811 14.9578 3.32833 12.2681 0 12.2681V6.01807C6.78012 6.01807 12.2681 11.5061 12.2681 18.2862H6.01811Z" fill="url(#paint2_linear_263_57)"/>
<path fill-rule="evenodd" clip-rule="evenodd" d="M12.2681 0C12.2681 6.78012 6.78012 12.2681 0 12.2681V6.01811C3.32833 6.01811 6.01811 3.32833 6.01811 0H12.2681Z" fill="url(#paint3_linear_263_57)"/>
<path fill-rule="evenodd" clip-rule="evenodd" d="M13.7139 6.01811C17.0422 6.01811 19.732 3.32833 19.732 0H25.982C25.982 6.78012 20.494 12.2681 13.7139 12.2681V6.01811Z" fill="url(#paint4_linear_263_57)"/>
<path fill-rule="evenodd" clip-rule="evenodd" d="M31.9999 12.2681C25.2198 12.2681 19.7318 6.78011 19.7318 0H25.9818C25.9818 3.32834 28.6716 6.01811 31.9999 6.01811V12.2681Z" fill="url(#paint5_linear_263_57)"/>
<path fill-rule="evenodd" clip-rule="evenodd" d="M18.2863 25.9819C14.958 25.9819 12.2682 28.6717 12.2682 32H6.01819C6.01819 25.2199 11.5062 19.7319 18.2863 19.7319V25.9819Z" fill="url(#paint6_linear_263_57)"/>
<path fill-rule="evenodd" clip-rule="evenodd" d="M0 19.7319C6.78011 19.7319 12.2681 25.2199 12.2681 32H6.01811C6.01811 28.6717 3.32834 25.9819 0 25.9819V19.7319Z" fill="url(#paint7_linear_263_57)"/>
<defs>
<linearGradient id="paint0_linear_263_57" x1="20.4687" y1="13.6876" x2="27.3749" y2="22.8751" gradientUnits="userSpaceOnUse">
<stop stop-color="#08FFC4"/>
<stop offset="1" stop-color="#5784F7"/>
</linearGradient>
<linearGradient id="paint1_linear_263_57" x1="31.9999" y1="22.7813" x2="20.3749" y2="31.4688" gradientUnits="userSpaceOnUse">
<stop offset="0.126213" stop-color="#08FFC4"/>
<stop offset="1" stop-color="#5784F7"/>
</linearGradient>
<linearGradient id="paint2_linear_263_57" x1="9.43751" y1="17.9062" x2="5.65625" y2="9.68744" gradientUnits="userSpaceOnUse">
<stop stop-color="#08FFC4"/>
<stop offset="1" stop-color="#5784F7"/>
</linearGradient>
<linearGradient id="paint3_linear_263_57" x1="10.0625" y1="2.50658e-07" x2="0.84375" y2="11.0625" gradientUnits="userSpaceOnUse">
<stop offset="0.0176537" stop-color="#5784F7"/>
<stop offset="0.859094" stop-color="#08FFC4"/>
</linearGradient>
<linearGradient id="paint4_linear_263_57" x1="14.4063" y1="10.7813" x2="22.1876" y2="5.09375" gradientUnits="userSpaceOnUse">
<stop stop-color="#08FFC4"/>
<stop offset="1" stop-color="#5784F7"/>
</linearGradient>
<linearGradient id="paint5_linear_263_57" x1="22.2499" y1="0.90625" x2="31.9999" y2="11.0625" gradientUnits="userSpaceOnUse">
<stop stop-color="#08FFC4"/>
<stop offset="1" stop-color="#5784F7"/>
</linearGradient>
<linearGradient id="paint6_linear_263_57" x1="17.7501" y1="21.9376" x2="10.6251" y2="27.0626" gradientUnits="userSpaceOnUse">
<stop stop-color="#08FFB8"/>
<stop offset="1" stop-color="#5799F7"/>
</linearGradient>
<linearGradient id="paint7_linear_263_57" x1="11.1563" y1="31.3126" x2="-8.47171e-07" y2="21.1563" gradientUnits="userSpaceOnUse">
<stop offset="0.2651" stop-color="#08FFB8"/>
<stop offset="1" stop-color="#5799F7"/>
</linearGradient>
</defs>
</svg>
