<svg width="32" height="32" viewBox="0 0 32 32" fill="none" xmlns="http://www.w3.org/2000/svg">
<path fill-rule="evenodd" clip-rule="evenodd" d="M25.9823 13.7148C25.9823 17.0432 28.6721 19.7331 32.0005 19.7331V25.9832C25.2203 25.9832 19.7322 20.4951 19.7322 13.7148H25.9823Z" fill="#C2E812"/>
<path fill-rule="evenodd" clip-rule="evenodd" d="M19.7322 32C19.7322 25.2198 25.2203 19.7317 32.0005 19.7317V25.9818C28.6721 25.9818 25.9823 28.6716 25.9823 32H19.7322Z" fill="#C2E812"/>
<path fill-rule="evenodd" clip-rule="evenodd" d="M6.01821 18.2871C6.01821 14.9587 3.32839 12.2689 0 12.2689V6.0188C6.78023 6.0188 12.2683 11.5069 12.2683 18.2871H6.01821Z" fill="#C2E812"/>
<path fill-rule="evenodd" clip-rule="evenodd" d="M12.2683 0C12.2683 6.78023 6.78023 12.2683 0 12.2683V6.01821C3.32839 6.01821 6.01821 3.32839 6.01821 0H12.2683Z" fill="#C2E812"/>
<path fill-rule="evenodd" clip-rule="evenodd" d="M13.714 6.01821C17.0424 6.01821 19.7322 3.32839 19.7322 0H25.9823C25.9823 6.78023 20.4942 12.2683 13.714 12.2683V6.01821Z" fill="#C2E812"/>
<path fill-rule="evenodd" clip-rule="evenodd" d="M32.0005 12.2683C25.2203 12.2683 19.7322 6.78023 19.7322 0H25.9823C25.9823 3.32839 28.6721 6.01821 32.0005 6.01821V12.2683Z" fill="#C2E812"/>
<path fill-rule="evenodd" clip-rule="evenodd" d="M18.2864 25.9818C14.9581 25.9818 12.2682 28.6716 12.2682 32H6.01813C6.01813 25.2198 11.5062 19.7317 18.2864 19.7317V25.9818Z" fill="#C2E812"/>
<path fill-rule="evenodd" clip-rule="evenodd" d="M0 19.7317C6.78023 19.7317 12.2683 25.2198 12.2683 32H6.01821C6.01821 28.6716 3.32839 25.9818 0 25.9818V19.7317Z" fill="#C2E812"/>
</svg>
