<svg width="60" height="60" viewBox="0 0 60 60" fill="none" xmlns="http://www.w3.org/2000/svg">
<path d="M48 18.5509C46.6385 19.1526 45.1753 19.5604 43.64 19.7432C45.2068 18.8056 46.411 17.3217 46.9771 15.5537C45.5101 16.4211 43.886 17.0523 42.1564 17.3919C40.7728 15.9209 38.799 15 36.6162 15C32.4246 15 29.0264 18.3903 29.0264 22.5724C29.0264 23.1667 29.093 23.7444 29.2225 24.2981C22.9147 23.9825 17.3208 20.9668 13.5786 16.386C12.9257 17.5045 12.5501 18.8056 12.5501 20.1935C12.5501 22.8216 13.8894 25.1378 15.9261 26.4962C14.6811 26.4574 13.512 26.116 12.4873 25.5494C12.4873 25.5807 12.4873 25.6121 12.4873 25.6453C12.4873 29.3144 15.1029 32.3743 18.575 33.0701C17.9387 33.2436 17.2672 33.3359 16.5753 33.3359C16.087 33.3359 15.6116 33.2879 15.1473 33.1993C16.1129 36.2076 18.9172 38.3965 22.2376 38.4592C19.6405 40.4912 16.3663 41.7019 12.811 41.7019C12.1987 41.7019 11.5938 41.6669 11 41.5967C14.3593 43.745 18.3493 45 22.6353 45C36.5959 45 44.2319 33.4614 44.2319 23.4528C44.2319 23.1243 44.2245 22.7976 44.2097 22.4728C45.6933 21.4042 46.9789 20.0717 47.9963 18.5528L48 18.5509Z" fill="#C2E812"/>
</svg>
