<svg xmlns="http://www.w3.org/2000/svg" shape-rendering="geometricPrecision" width="535.51" height="586.94" xmlns:v="https://vecta.io/nano"><style><![CDATA[#A{animation:e3Zd20mgUl76_tr__tr 5000ms linear infinite normal forwards}#B{animation:e3Zd20mgUl713_tr__tr 5000ms linear infinite normal forwards}#C{animation:e3Zd20mgUl719_tr__tr 5000ms linear infinite normal forwards}#D{animation:e3Zd20mgUl721_tr__tr 5000ms linear infinite normal forwards}#E{animation:e3Zd20mgUl722_tr__tr 5000ms linear infinite normal forwards}#F{animation:e3Zd20mgUl725_tr__tr 5000ms linear infinite normal forwards}#G{animation:e3Zd20mgUl726_tr__tr 5000ms linear infinite normal forwards}#H{animation:e3Zd20mgUl727_tr__tr 5000ms linear infinite normal forwards}#I{animation:e3Zd20mgUl743_tr__tr 5000ms linear infinite normal forwards}#J{animation:e3Zd20mgUl744_tr__tr 5000ms linear infinite normal forwards}@keyframes e3Zd20mgUl76_tr__tr{0%{transform:translate(395.449997px,232.195007px) rotate(0deg)}100%{transform:translate(395.449997px,232.195007px) rotate(360deg)}} @keyframes e3Zd20mgUl713_tr__tr{0%{transform:translate(78.85px,505.619995px) rotate(0deg)}100%{transform:translate(78.85px,505.619995px) rotate(-360deg)}} @keyframes e3Zd20mgUl719_tr__tr{0%{transform:translate(121.705002px,205.460007px) rotate(0deg)}100%{transform:translate(121.705002px,205.460007px) rotate(-360deg)}} @keyframes e3Zd20mgUl721_tr__tr{0%{transform:translate(283.389999px,538.579956px) rotate(0deg)}100%{transform:translate(283.389999px,538.579956px) rotate(-360deg)}} @keyframes e3Zd20mgUl722_tr__tr{0%{transform:translate(336.23999px,55.299999px) rotate(0deg)}100%{transform:translate(336.23999px,55.299999px) rotate(360deg)}} @keyframes e3Zd20mgUl725_tr__tr{0%{transform:translate(124.244995px,340.11998px) rotate(0deg)}100%{transform:translate(124.244995px,340.11998px) rotate(360deg)}} @keyframes e3Zd20mgUl726_tr__tr{0%{transform:translate(311.580002px,435.359985px) rotate(0deg)}100%{transform:translate(311.580002px,435.359985px) rotate(360deg)}} @keyframes e3Zd20mgUl727_tr__tr{0%{transform:translate(431.334976px,407.035004px) rotate(0deg)}100%{transform:translate(431.334976px,407.035004px) rotate(-360deg)}} @keyframes e3Zd20mgUl743_tr__tr{0%{transform:translate(274.629944px,312.754974px) rotate(0deg)}100%{transform:translate(274.629944px,312.754974px) rotate(60deg)}} @keyframes e3Zd20mgUl744_tr__tr{0%{transform:translate(274.450035px,312.679993px) rotate(0deg)}100%{transform:translate(274.450035px,312.679993px) rotate(-60deg)}}.B{stroke:#161133}.C{stroke-linejoin:round}.D{fill:#fc0}.E{fill:#02e2ac}.F{fill:#ffeea8}]]></style><path d="M85.35 55.3h378.1v483.26H85.35z" class="E"/><g class="B C"><path d="M435.06,227.66l29,33.27l15.44-46.55-77.84-25Z" class="D"/><path d="M421.88 436.53l-64-20.42 49.12 38.5zm-249.07 5.31v-19.55l-23.91-14.12z" class="E"/></g><g id="A" transform="matrix(1 0 0 1 395.449997 232.195007)" class="B C F"><path d="M408.19,245.16l-9.93-25.93-15.55,19.57Z" transform="translate(-395.45 -232.195)"/></g><path d="M83 250.22l27.38-4.66-16.14-19.08zm-17.17 53.03l19.61 19.65 6.25-24.19z" class="B C E"/><path d="M90.84,380.71l4.89,16L108.29,383L85.2,362.24Z" class="B C F"/><path d="M179.83,221.29l-.9-20.14-15.19,9.91Z" class="B C D"/><path d="M429.48 295.66l27.77-.15-12.83-21.44zM199.49 97L221 79.43l-23.48-8.57z" class="E B C"/><g id="B" transform="matrix(1 0 0 1 78.85 505.619995)" class="B C D"><path d="M56.56,525.24l44.58-12.55L93.39,486L76.28,504.25Z" transform="translate(-78.85 -505.62)"/></g><path d="M87.52 77.07l-36-6.94 14 37.14L129 85.07zM334.28 212l1.93 20.25 18.28-13.29-22.42-30.28z" class="B C D"/><path d="M412.34,499.29l19.48,19.79l6.42-24.15Z" class="B C E"/><path d="M397.34,357.41l20.82-20.91-12.64-12.38-3.8,15.47Z" class="B C D"/><path d="M110.59,438.25l15.69,22.91l10.56-22.65Z" class="B C F"/><g id="C" transform="matrix(1 0 0 1 121.705002 205.460007)" class="B C D"><path d="M108.64,191.46l9.41,28l16.72-5.79-12.14-10.31Z" transform="translate(-121.705 -205.46)"/></g><path d="M424.52,98.12l24.19-13.64L427.06,72Z" class="B C F"/><g id="D" transform="matrix(1 0 0 1 283.389999 538.579956)" class="B C F"><path d="M278,540l9.93,18.72l12.29-20.07-33.66-20.21Z" transform="translate(-283.39 -538.58)"/></g><g id="E" transform="matrix(1 0 0 1 336.23999 55.299999)" class="B C F"><path d="M337.32 58.78l14.08-9.08-16.64-8.34-13.68 27.88z" transform="translate(-336.24 -55.3)"/></g><path d="M466.07 147.85l-11.65 1 7.58 10.57 17.5-12.72zM144 289.33l-15.06-13.41-3.49 17.81z" class="B C D"/><g id="F" transform="matrix(1 0 0 1 124.244995 340.11998)" class="B C E"><path d="M116.28,330.36l1.5,19.52l14.43-10.1Z" transform="translate(-124.245 -340.12)"/></g><g id="G" transform="matrix(1 0 0 1 311.580002 435.359985)" class="B C D"><path d="M319.63,445.43l-.9-20.14-15.2,9.91Z" transform="translate(-311.58 -435.36)"/></g><g id="H" transform="matrix(1 0 0 1 431.334976 407.035004)" class="B C D"><path d="M430.49,407.65l8.4,8.14l3-12.64-21.11-4.87Z" transform="translate(-431.335 -407.035)"/></g><g class="B C D"><path d="M274.4 395.42v-34.67l33.18 19.6-33.18 55.01v-39.94z"/><path d="M274.4 395.42v-34.67l-33.17 19.6 33.17 55.01v-39.94zm-106.28-21.4l64.24 1.21.4-38.51-30.04 17.33-34.6 19.97z"/><path d="M202.72 354.05l30.04-17.33-33.56-18.92-31.08 56.22 34.6-19.97zm-34.6-102.7l31.07 56.22 33.57-18.91-30.04-17.34-34.6-19.97z"/><path d="M202.72 271.32l30.04 17.34-.39-38.51-64.25 1.2 34.6 19.97zm71.68-81.28l-33.17 55 33.17 19.6v-74.62.02z"/><path d="M274.4 229.98v34.66l33.18-19.6-33.18-55v39.94zm106.29 21.39l-64.25-1.21-.4 38.51 30.05-17.33 34.6-19.97z"/><path d="M346.08 271.34l-30.04 17.33 33.57 18.91 31.08-56.21-34.61 19.97zm34.61 102.7l-31.08-56.22-33.57 18.92 30.05 17.33 34.6 19.97z"/><path d="M346.08 354.07l-30.04-17.34.4 38.52 64.25-1.21-34.61-19.97z"/></g><path d="M274.4 327.34v27.13l33.18 19.59zm-33.17 46.72l33.17-19.59v-27.13zM261.71 320l-23.51 13.58-.39 38.5zm-57.07-5.35l33.55 18.92L261.7 320zm57.06-9.3l-23.51-13.55-33.55 18.92zm-23.89-52.07l.38 38.51 23.51 13.56zM274.4 298v-27.09l-33.17-19.59zm33.17-46.72l-33.17 19.63V298zm-20.48 54l23.51-13.48.39-38.51zm57.07 5.36L310.6 291.8l-23.51 13.56zM287.09 320l23.51 13.57 33.56-18.92zM311 372.08l-.39-38.5L287.09 320z" class="B C E"/><path d="M274.4 395.42v-34.67l33.18 19.6zm0 0v-34.67l-33.17 19.6zm-42-20.19l.4-38.51-30 17.33zm-29.64-21.18l30-17.33-33.56-18.91zm-3.52-46.48l33.56-18.91-30-17.34zm3.52-36.25l30 17.33-.39-38.5zM241.23 245l33.17 19.59V230zm33.17-15v34.65L307.58 245zm42 20.19l-.4 38.5 30-17.33zm29.64 21.17l-30 17.33 33.57 18.92zm3.53 46.48L316 336.71l30 17.34zm-3.53 36.25l-30-17.33.4 38.51z" fill="#11bc92" class="B C"/><g id="I" transform="matrix(1 0 0 1 274.629944 312.754974)" class="B C D"><path d="M276.55 324.13a1.56 1.56 0 0 0-.16-.2.73.73 0 0 1-.08-.09l-.18-.15-.09-.08-.17-.11-.14-.08-.15-.07-.18-.07h-.15-.19-.18-.37-.18-.19-.14l-.19.07-.15.07-.14.09-.17.1a.87.87 0 0 1-.1.08l-.17.15-.08.09-.16.2L247.52 360l18.24-40h0a1.31 1.31 0 0 0 .08-.21.43.43 0 0 1 .05-.13c.024-.04 0-.13 0-.19a1.43 1.43 0 0 0 0-.16 1 1 0 0 0 0-.17v-.2a.57.57 0 0 0 0-.14v-.22a.5.5 0 0 0 0-.13c0-.05 0-.14-.06-.21l-.07-.15-.09-.18-.1-.15-.11-.15-.13-.14-.1-.11a1.58 1.58 0 0 0-.15-.12l-.14-.1-.12-.07-.2-.11h-.09l-.25-.09h-.09a1.28 1.28 0 0 0-.27-.05l-43.57-4.11 43.55-4.1a2.25 2.25 0 0 0 .36-.06h0a1.92 1.92 0 0 0 .31-.11h.05a1.51 1.51 0 0 0 .28-.15h0l.25-.19h0 0l.1-.11a.93.93 0 0 0 .14-.14l.1-.15a1.3 1.3 0 0 0 .1-.15l.09-.17a1.11 1.11 0 0 0 .07-.16l.06-.21a.56.56 0 0 1 0-.12 1.81 1.81 0 0 1 0-.23.46.46 0 0 1 0-.14 1.32 1.32 0 0 0 0-.2v-.16a.9.9 0 0 0 0-.16v-.2a.43.43 0 0 0-.05-.13 1.28 1.28 0 0 0-.07-.21l-18.24-39.95 25.32 35.84.05.07.16.18.08.08a.8.8 0 0 0 .17.15l.08.06a1.61 1.61 0 0 0 .28.17h0l.29.13h.09l.23.05h.1.31.32.09l.23-.05h.1l.29-.13a2.09 2.09 0 0 0 .28-.17l.07-.06a.65.65 0 0 0 .18-.15l.08-.07c.06-.06.11-.13.16-.19l.05-.07 25.32-35.84-18.24 39.95-.08.21a.65.65 0 0 0 0 .13 1.42 1.42 0 0 0 0 .2v.16a.86.86 0 0 0 0 .16v.34a.91.91 0 0 0 0 .23.56.56 0 0 0 0 .12.83.83 0 0 0 .06.21c0 .06 0 .1.07.16s.05.11.09.17l.09.15.11.15.13.14.11.11h0 0l.25.19h0a1.51 1.51 0 0 0 .28.15h.05a1.82 1.82 0 0 0 .3.11h0a2.25 2.25 0 0 0 .36.06l43.55 4.1-43.57 4.11h-.25a.18.18 0 0 0-.1 0l-.24.08h-.11l-.18.1-.14.08-.13.1a.88.88 0 0 0-.15.12 1.14 1.14 0 0 0-.11.11l-.13.14-.11.15a1.3 1.3 0 0 0-.1.15 1 1 0 0 0-.15.33c0 .05-.05.14-.07.21a.93.93 0 0 0 0 .13v.22.51.15a1.18 1.18 0 0 0 0 .2.5.5 0 0 0 .05.13 1 1 0 0 0 .07.21h0L301.92 360z" transform="translate(-274.63 -312.755)"/></g><g id="J" transform="matrix(1 0 0 1 274.450035 312.679993)" class="B C F"><path d="M268.3 328.9c0-.13 0-.25-.06-.37a1.22 1.22 0 0 1 0-.17c0-.06-.08-.23-.13-.35l-.05-.16q-.07-.15-.15-.27l-.11-.21-.15-.2-.18-.24-.17-.15a2.09 2.09 0 0 0-.22-.2 1.37 1.37 0 0 0-.21-.15l-.24-.14-.24-.14-.24-.11a1.61 1.61 0 0 0-.29-.09l-.21-.07h-.3-.25-.54-.19c-.06 0-.23 0-.34.06l-.17.06a2 2 0 0 0-.34.13l-59.65 27.34 53.51-38h0a2.75 2.75 0 0 0 .26-.22c0-.05.11-.09.16-.13a2.59 2.59 0 0 0 .19-.23l.16-.18a2.39 2.39 0 0 0 .12-.22l.16-.26a.52.52 0 0 0 .08-.19c0-.07.11-.19.12-.31a.46.46 0 0 0 .05-.2 2.7 2.7 0 0 0 .08-.31v-.25a2.48 2.48 0 0 0 0-.29 2.28 2.28 0 0 0 0-.27 2.45 2.45 0 0 0 0-.27c0-.1-.05-.19-.07-.29s0-.15-.05-.22-.08-.18-.11-.27a1.75 1.75 0 0 0-.11-.24l-.1-.17c0-.06-.11-.2-.18-.29l-.09-.11-.26-.3-.11-.09a2.78 2.78 0 0 0-.32-.26l-53.52-38 59.64 27.35a3 3 0 0 0 .5.19h.05a3.55 3.55 0 0 0 .47.09h.09a3.62 3.62 0 0 0 .47 0h.06l.46-.05h.07a1.06 1.06 0 0 0 .22-.06c.09 0 .19-.05.28-.09l.25-.11.24-.12.24-.16.21-.15a2.39 2.39 0 0 0 .23-.22 1 1 0 0 1 .15-.14c.05-.09.13-.17.2-.27a.8.8 0 0 1 .13-.16 1.5 1.5 0 0 0 .15-.26l.12-.21a1.55 1.55 0 0 0 .08-.23c0-.09.07-.19.1-.28a1.3 1.3 0 0 0 0-.21c0-.07 0-.22.06-.33l6.11-65.32 6.15 65.32v.12a2.2 2.2 0 0 0 .06.37l.05.16c0 .11.07.22.11.32l.06.14a3.62 3.62 0 0 0 .24.43h0a5.25 5.25 0 0 0 .29.37h.05.07a3.07 3.07 0 0 0 .26.25l.11.09a2.7 2.7 0 0 0 .39.27l.42.2.14.05.35.1h.07 0a3.78 3.78 0 0 0 .47.06 2.66 2.66 0 0 0 .49 0h.15a1.86 1.86 0 0 0 .34-.06h.16l.35-.13h.12L345.06 272l-53.51 38a2.65 2.65 0 0 0-.26.21 1.07 1.07 0 0 0-.16.14c-.07.07-.13.15-.2.23a2 2 0 0 0-.15.18c0 .07-.08.14-.13.21l-.15.26-.1.18a2.88 2.88 0 0 0-.13.31.65.65 0 0 0 0 .19c0 .11-.06.21-.08.32s0 .17 0 .25a2.83 2.83 0 0 0 0 .29 2.45 2.45 0 0 0 0 .27 2.45 2.45 0 0 0 0 .27c0 .1.05.19.07.28s0 .15 0 .23h0 0a3.25 3.25 0 0 0 .18.43v.05a3.45 3.45 0 0 0 .25.41l.05.07a2.74 2.74 0 0 0 .32.36h.05a3.36 3.36 0 0 0 .41.34l53.51 38-59.65-27.36-.37-.14a.33.33 0 0 0-.15-.05l-.36-.07h-.17-.55-.25-.29l-.22.07a1.71 1.71 0 0 0-.27.09l-.26.11-.24.12-.24.16a1.49 1.49 0 0 0-.2.15c-.07 0-.16.14-.24.21a1.67 1.67 0 0 1-.15.14l-.21.28a1 1 0 0 0-.1.17l-.15.26-.12.21a2.09 2.09 0 0 0-.08.23c0 .09-.07.19-.1.28a1.55 1.55 0 0 0 0 .21l-.06.33h0l-6.11 65.32z" transform="translate(-274.45 -312.68)"/></g><g class="B C"><path d="M296.13 308.75c4.601-4.601 4.601-12.059 0-16.66s-12.059-4.601-16.66 0l-11.67 11.66 16.66 16.65z" class="E"/><path d="M267.8 303.75l-11.67 11.66c-4.601 4.603-4.598 12.064.005 16.665s12.064 4.598 16.665-.005l11.66-11.67z" fill="#5bf1cd"/><g fill="#11bc92"><path d="M294.58 290.79a11.76 11.76 0 0 1-1.3 15.11l-11.67 11.66 2.85 2.84 11.67-11.65a11.78 11.78 0 0 0 0-16.66 11.36 11.36 0 0 0-1.55-1.3z"/><path d="M281.61 317.56L270 329.22a11.78 11.78 0 0 1-15.12 1.3 11.24 11.24 0 0 0 1.3 1.55 11.78 11.78 0 0 0 16.66 0l11.67-11.66-2.85-2.85z"/></g></g><g fill="#0e0333"><path d="M128.22 165.15a.19.19 0 0 0-.21.21v4.52c0 .24-.15.37-.44.37h-2a.42.42 0 0 1-.29-.08.45.45 0 0 1-.06-.26v-11.28c0-.2.08-.31.25-.31h2.3c.17 0 .26.1.26.29v4.12q0 .27.24.27H132a.23.23 0 0 0 .26-.26v-4.13c0-.19.08-.29.24-.29h2.3c.18 0 .27.11.27.31v11.28a.38.38 0 0 1-.08.26.36.36 0 0 1-.27.08h-2.05c-.27 0-.41-.13-.41-.37v-4.52c0-.14-.08-.21-.23-.21zm12.72 5.26a4.38 4.38 0 0 1-2.25-.57 4 4 0 0 1-1.51-1.54 4.67 4.67 0 0 1-.55-2.26 4.6 4.6 0 0 1 .57-2.33 4 4 0 0 1 1.54-1.58 4.41 4.41 0 0 1 2.22-.56 4.27 4.27 0 0 1 2.26.58 3.85 3.85 0 0 1 1.5 1.57 4.76 4.76 0 0 1 .54 2.3 4.69 4.69 0 0 1-.54 2.28 4 4 0 0 1-1.53 1.54 4.32 4.32 0 0 1-2.25.57zm0-1.64a1.54 1.54 0 0 0 1-.31 1.86 1.86 0 0 0 .6-1 4.76 4.76 0 0 0 .21-1.52 4.9 4.9 0 0 0-.21-1.56 1.9 1.9 0 0 0-.6-1 1.55 1.55 0 0 0-1-.32 1.62 1.62 0 0 0-1 .32 2 2 0 0 0-.61 1 5.83 5.83 0 0 0 0 3.1 1.92 1.92 0 0 0 .61.93 1.61 1.61 0 0 0 1.06.36zm16.84-7a.26.26 0 0 1 .23.11.3.3 0 0 1 0 .26l-2.6 7.86a.42.42 0 0 1-.13.21.36.36 0 0 1-.21.05h-1.32a.4.4 0 0 1-.41-.31l-1.34-4.43c0-.1-.08-.16-.13-.16s-.07.06-.09.16l-1.47 4.48a.3.3 0 0 1-.11.21.4.4 0 0 1-.22.05h-1.37a.4.4 0 0 1-.4-.31l-2.59-7.82a.38.38 0 0 1 0-.28.28.28 0 0 1 .24-.11h1.88a.37.37 0 0 1 .21.08.3.3 0 0 1 .14.19l1.43 4.55c0 .1.06.15.1.15s.1-.06.13-.17l1.38-4.54a.27.27 0 0 1 .13-.18.35.35 0 0 1 .22-.08h1.35a.32.32 0 0 1 .21.08.23.23 0 0 1 .13.19l1.4 4.55c0 .1.07.15.11.15s.09-.06.13-.17l1.38-4.54a.45.45 0 0 1 .15-.18.33.33 0 0 1 .22-.08zm10-3.57a5.2 5.2 0 0 1 1.74.28 4.68 4.68 0 0 1 1.46.74 4.09 4.09 0 0 1 1 1.12 3.7 3.7 0 0 1 .55 1.4c0 .17.05.28 0 .34s-.08.08-.17.09l-2.17.15a.27.27 0 0 1-.19-.05.58.58 0 0 1-.07-.19 2.75 2.75 0 0 0-.69-1.37 1.88 1.88 0 0 0-1.43-.55 2.2 2.2 0 0 0-1.89 1 5.62 5.62 0 0 0-.68 3.14 5.86 5.86 0 0 0 .64 3.13 2.23 2.23 0 0 0 2 1 2.77 2.77 0 0 0 1.61-.46 3.31 3.31 0 0 0 1.11-1.59c0-.1.16-.13.35-.1l1.58.34a.22.22 0 0 1 .14.1c.031.051.05.14 0 .3a3.19 3.19 0 0 1-.32.79 4.75 4.75 0 0 1-1.57 1.8 5.81 5.81 0 0 1-1.32.66 5.67 5.67 0 0 1-1.72.24 5.3 5.3 0 0 1-2.89-.79 5.1 5.1 0 0 1-1.88-2.19 7.5 7.5 0 0 1-.66-3.24 7.16 7.16 0 0 1 .66-3.2 4.89 4.89 0 0 1 2.03-2.19 5.5 5.5 0 0 1 2.85-.74zm6.73 12.09a.37.37 0 0 1-.34-.33V162c0-.21.08-.31.26-.31h1.88c.17 0 .25.09.25.27V163c0 .07 0 .11.07.13s.1 0 .16-.08a4 4 0 0 1 .72-.76 3.52 3.52 0 0 1 .85-.49 2.18 2.18 0 0 1 .82-.18c.39 0 .58.09.58.27v1.87q0 .25-.24.21a2.35 2.35 0 0 0-.59-.1h-.54a1.75 1.75 0 0 0-.61.11 1.85 1.85 0 0 0-.56.32 2.2 2.2 0 0 0-.42.45 1 1 0 0 0-.16.52v4.69c0 .24-.14.37-.41.37zm7.29 2.65a4.09 4.09 0 0 1-.73-.05.24.24 0 0 1-.22-.26v-1.24a.21.21 0 0 1 .1-.17.54.54 0 0 1 .37-.08h1.09a1 1 0 0 0 .59-.14 1.09 1.09 0 0 0 .41-.35 1.35 1.35 0 0 0 .22-.45.62.62 0 0 0 0-.43l-3.09-7.6a.29.29 0 0 1 0-.26.28.28 0 0 1 .26-.13h2a.35.35 0 0 1 .22.08.33.33 0 0 1 .13.19l1.78 4.79c0 .1.08.15.13.16s.1-.06.15-.17L187 162a.55.55 0 0 1 .15-.18.29.29 0 0 1 .21-.08h1.38a.21.21 0 0 1 .22.13.21.21 0 0 1 0 .24l-3.29 8.15a7 7 0 0 1-.71 1.35 2.71 2.71 0 0 1-.78.8 2.57 2.57 0 0 1-1 .38 6.12 6.12 0 0 1-1.31.11zm10.45-11.17c.23 0 .35.11.35.32v.48c0 .07 0 .11.07.12a.33.33 0 0 0 .16-.08 5.34 5.34 0 0 1 .56-.47 3.1 3.1 0 0 1 1.78-.53 3 3 0 0 1 1.69.48 3.19 3.19 0 0 1 1.17 1.43 5.88 5.88 0 0 1 .44 2.44 6.18 6.18 0 0 1-.45 2.54 3.25 3.25 0 0 1-1.22 1.48 3.36 3.36 0 0 1-1.76.47 3.31 3.31 0 0 1-1.15-.2 2.73 2.73 0 0 1-1-.62q-.17-.17-.24-.15s-.06.09-.06.24v2.94c0 .19-.08.28-.25.28h-2c-.17 0-.26-.1-.26-.29v-10.57a.36.36 0 0 1 .08-.25.34.34 0 0 1 .29-.1zm.34 6.32a3.08 3.08 0 0 0 .69.57 1.59 1.59 0 0 0 .85.23 1.63 1.63 0 0 0 1-.29 1.88 1.88 0 0 0 .64-.95 5.48 5.48 0 0 0 .23-1.73 4.73 4.73 0 0 0-.23-1.64 1.58 1.58 0 0 0-1.55-1.11 1.71 1.71 0 0 0-.82.19 1.5 1.5 0 0 0-.57.48 1 1 0 0 0-.2.61zm10.63-4.62c-.12 0-.18.07-.18.2v3.87a1.06 1.06 0 0 0 .26.79 1.22 1.22 0 0 0 .82.22h.87a.21.21 0 0 1 .17.08.28.28 0 0 1 .07.19v1a.38.38 0 0 1-.35.39l-.63.06h-.66-.59a2.67 2.67 0 0 1-1.74-.52 1.89 1.89 0 0 1-.64-1.56v-4.5q0-.24-.21-.24h-1c-.21 0-.31-.09-.31-.27V162c0-.16.1-.24.29-.24h1.11c.1 0 .15-.06.16-.18l.23-2.44q0-.27.24-.27h1.75c.17 0 .26.1.26.3v2.41a.14.14 0 0 0 .16.16h1.7c.2 0 .29.09.29.26v1.19c0 .18-.1.27-.32.27zm7 7a4.43 4.43 0 0 1-2.25-.57 4 4 0 0 1-1.51-1.54 5.06 5.06 0 0 1 0-4.59 4.1 4.1 0 0 1 1.54-1.58 4.46 4.46 0 0 1 2.22-.56 4.31 4.31 0 0 1 2.27.58 3.82 3.82 0 0 1 1.49 1.57 4.77 4.77 0 0 1 .55 2.3 4.69 4.69 0 0 1-.55 2.28 3.84 3.84 0 0 1-1.53 1.54 4.32 4.32 0 0 1-2.16.51zm0-1.64a1.57 1.57 0 0 0 1-.31 1.92 1.92 0 0 0 .59-1 4.76 4.76 0 0 0 .21-1.52 4.9 4.9 0 0 0-.21-1.56 2 2 0 0 0-.59-1 1.58 1.58 0 0 0-1-.32 1.62 1.62 0 0 0-1 .32 2.06 2.06 0 0 0-.61 1 5.83 5.83 0 0 0 0 3.1 2 2 0 0 0 .61.93 1.61 1.61 0 0 0 1.09.3zm14.25-10.61a5.1 5.1 0 0 1 1.73.28 4.47 4.47 0 0 1 1.46.74 4.13 4.13 0 0 1 1.05 1.12 3.7 3.7 0 0 1 .55 1.4.56.56 0 0 1 0 .34q0 .08-.18.09l-2.16.15a.3.3 0 0 1-.2-.05 1.08 1.08 0 0 1-.06-.19 2.75 2.75 0 0 0-.69-1.37 1.9 1.9 0 0 0-1.43-.55 2.2 2.2 0 0 0-1.9 1 5.63 5.63 0 0 0-.67 3.14 5.86 5.86 0 0 0 .64 3.13 2.22 2.22 0 0 0 2 1 2.77 2.77 0 0 0 1.61-.46 3.31 3.31 0 0 0 1.11-1.59c0-.1.16-.13.35-.1l1.57.34a.24.24 0 0 1 .15.1c.035.052 0 .14 0 .3a3.19 3.19 0 0 1-.32.79 5.09 5.09 0 0 1-.61.93 4.87 4.87 0 0 1-1 .87 5.54 5.54 0 0 1-1.31.66 5.72 5.72 0 0 1-1.72.24 5.28 5.28 0 0 1-2.89-.79 5 5 0 0 1-1.88-2.19 7.5 7.5 0 0 1-.66-3.24 7.16 7.16 0 0 1 .66-3.2 4.83 4.83 0 0 1 1.88-2.09 5.47 5.47 0 0 1 3.01-.86zm11 11.27a4 4 0 0 1-1.12.72 3.65 3.65 0 0 1-1.41.26 2.71 2.71 0 0 1-1.93-.66 2.23 2.23 0 0 1-.69-1.69 2.34 2.34 0 0 1 .56-1.57 3.59 3.59 0 0 1 1.61-1.05 8.08 8.08 0 0 1 2.51-.5h.56a.41.41 0 0 0 .18 0 .19.19 0 0 0 .08-.18v-.34a1.22 1.22 0 0 0-.36-.94 1.34 1.34 0 0 0-1-.36 2.06 2.06 0 0 0-.93.23 1.7 1.7 0 0 0-.74.74.27.27 0 0 1-.11.14.47.47 0 0 1-.24 0l-1.61-.37a.32.32 0 0 1-.15-.09.54.54 0 0 1 .07-.33 2.64 2.64 0 0 1 1.38-1.39 5.59 5.59 0 0 1 2.44-.47 5.36 5.36 0 0 1 2.12.34 2.23 2.23 0 0 1 1.14 1 2.62 2.62 0 0 1 .36 1.39v5.64a.43.43 0 0 1-.07.28.3.3 0 0 1-.24.08h-1.65a.29.29 0 0 1-.26-.13 1 1 0 0 1-.08-.32v-.36c-.03-.31-.15-.32-.37-.13zm.33-3c0-.18-.08-.27-.25-.27h-.45a4.08 4.08 0 0 0-.83.13 3 3 0 0 0-.76.29 1.7 1.7 0 0 0-.56.47 1 1 0 0 0-.21.64 1 1 0 0 0 .34.77 1.47 1.47 0 0 0 .93.27 1.92 1.92 0 0 0 .71-.12 1.87 1.87 0 0 0 .93-.73.72.72 0 0 0 .15-.43zm4.49 3.8a.29.29 0 0 1-.34-.33V162c0-.21.08-.31.26-.31h1.94q.24 0 .24.27v.79a.14.14 0 0 0 .05.13c.039.031.08 0 .14-.06a7.16 7.16 0 0 1 .84-.68 3.85 3.85 0 0 1 .88-.45 3 3 0 0 1 1-.16 2.47 2.47 0 0 1 1.85.69 2.51 2.51 0 0 1 .69 1.85v5.75a.34.34 0 0 1-.39.39h-1.78a.38.38 0 0 1-.24-.07.37.37 0 0 1-.07-.26v-5.43a1.1 1.1 0 0 0-.3-.83 1.15 1.15 0 0 0-.87-.31 1.68 1.68 0 0 0-.63.12 1.91 1.91 0 0 0-.56.33 4.75 4.75 0 0 0-.58.55v5.53c0 .24-.14.37-.41.37zm22.45-.44a.34.34 0 0 1 0 .31.24.24 0 0 1-.23.13h-2.36a.34.34 0 0 1-.35-.29l-1.74-4.5c-.06-.15-.21-.23-.45-.23h-1.52a.17.17 0 0 0-.16.07.19.19 0 0 0 0 .11v4.45c0 .26-.14.39-.43.39h-2a.38.38 0 0 1-.27-.08.37.37 0 0 1-.07-.25v-11.33c0-.2.09-.31.26-.31h5a5.63 5.63 0 0 1 3.34.86 2.76 2.76 0 0 1 1.21 2.42 3.34 3.34 0 0 1-1.11 2.54 3.52 3.52 0 0 1-1.09.63c-.1 0-.12.11-.07.24zm-4.66-6.47a2.16 2.16 0 0 0 1.4-.39 1.38 1.38 0 0 0 .5-1.16 1.39 1.39 0 0 0-.5-1.18 2 2 0 0 0-1.31-.41h-2c-.2 0-.31.1-.31.28v2.58c0 .19.08.28.23.28zm8 3.37a2 2 0 0 0 1.03 1.77 2.38 2.38 0 0 0 1.08.24 2.36 2.36 0 0 0 1.06-.24 3.36 3.36 0 0 0 1-.84.19.19 0 0 1 .12-.06.23.23 0 0 1 .17 0l1.16.48c.15.06.17.17 0 .32a5.14 5.14 0 0 1-1.08 1.17 3.6 3.6 0 0 1-1.25.63 6 6 0 0 1-1.53.18 4.55 4.55 0 0 1-2.23-.55 4.18 4.18 0 0 1-1.56-1.51 4.35 4.35 0 0 1-.56-2.23 4.74 4.74 0 0 1 .58-2.4 4.2 4.2 0 0 1 3.72-2.15 4.14 4.14 0 0 1 2.17.55 3.69 3.69 0 0 1 1.46 1.52 5 5 0 0 1 .55 2.43.91.91 0 0 1 0 .27c0 .07-.1.1-.24.11h-5.46a.18.18 0 0 0-.15.07.33.33 0 0 0-.01.2zm3.23-1.61a.56.56 0 0 0 .23 0 .27.27 0 0 0 .05-.19 1.94 1.94 0 0 0-.2-.82 1.67 1.67 0 0 0-.54-.69 1.43 1.43 0 0 0-.92-.29 1.81 1.81 0 0 0-.95.26 1.66 1.66 0 0 0-.64.72 2.26 2.26 0 0 0-.23 1zm12.69-3.78a.29.29 0 0 1 .22.08.33.33 0 0 1 .1.27v1.1a.42.42 0 0 1-.1.32.33.33 0 0 1-.27.05 2 2 0 0 0-.42 0 1.15 1.15 0 0 0-.33 0c-.29 0-.4.17-.33.37s.05.2.09.32a1.25 1.25 0 0 1 .06.4 2.32 2.32 0 0 1-.43 1.34 2.82 2.82 0 0 1-1.29.94 5.65 5.65 0 0 1-2.15.36 4.82 4.82 0 0 0-1 .08 1.33 1.33 0 0 0-.56.19.3.3 0 0 0 .08.56 3.55 3.55 0 0 0 .77.12l2.3.12a4.12 4.12 0 0 1 2.39.73 2 2 0 0 1 .75 1.6 2.32 2.32 0 0 1-1.15 2 6.21 6.21 0 0 1-3.41.77 9 9 0 0 1-3.5-.52 1.66 1.66 0 0 1-1.17-1.55 1.11 1.11 0 0 1 .43-.92 3.63 3.63 0 0 1 1.11-.59q.21-.09 0-.18a2.64 2.64 0 0 1-.68-.47 1 1 0 0 1-.25-.72.88.88 0 0 1 .21-.58 2.12 2.12 0 0 1 .56-.5 3.62 3.62 0 0 1 .79-.38.24.24 0 0 0 .11-.08c.028-.037 0-.08-.08-.12a2.83 2.83 0 0 1-1.16-.9 2.08 2.08 0 0 1-.4-1.28 2.27 2.27 0 0 1 1-1.93 5.23 5.23 0 0 1 3-.74 5.71 5.71 0 0 1 1.53.19 2.76 2.76 0 0 1 1 .54.43.43 0 0 0 .23.08.32.32 0 0 0 .21-.12 2.46 2.46 0 0 1 .5-.46 2.8 2.8 0 0 1 .61-.34 1.45 1.45 0 0 1 .63-.15zm-4.87 4.31a1.69 1.69 0 0 0 1.24-.39 1.32 1.32 0 0 0 .4-1 1.38 1.38 0 0 0-.4-1 1.62 1.62 0 0 0-1.24-.42 1.69 1.69 0 0 0-1.22.42 1.33 1.33 0 0 0-.43 1 1.28 1.28 0 0 0 .43 1 1.77 1.77 0 0 0 1.19.39zm-1.19 4.09a1.57 1.57 0 0 0-.61.1 1.35 1.35 0 0 0-.48.32.68.68 0 0 0-.19.48.91.91 0 0 0 .27.65 1.81 1.81 0 0 0 .88.41 7.2 7.2 0 0 0 1.64.15 3.5 3.5 0 0 0 1.66-.31.91.91 0 0 0 .58-.83.7.7 0 0 0-.33-.58 1.62 1.62 0 0 0-.94-.27zm9.28-3a2 2 0 0 0 1.03 1.77 2.38 2.38 0 0 0 1.08.24 2.36 2.36 0 0 0 1.06-.24 3.36 3.36 0 0 0 1-.84.19.19 0 0 1 .12-.06.23.23 0 0 1 .17 0l1.16.48c.15.06.17.17.05.32a5.14 5.14 0 0 1-1.08 1.17 3.6 3.6 0 0 1-1.25.63 6 6 0 0 1-1.53.18 4.55 4.55 0 0 1-2.23-.55 4.18 4.18 0 0 1-1.56-1.51 4.35 4.35 0 0 1-.56-2.23 4.74 4.74 0 0 1 .58-2.4 4.2 4.2 0 0 1 3.72-2.15 4.14 4.14 0 0 1 2.17.55 3.69 3.69 0 0 1 1.46 1.52 5 5 0 0 1 .55 2.43.91.91 0 0 1 0 .27c0 .07-.1.1-.24.11h-5.46a.18.18 0 0 0-.15.07.33.33 0 0 0-.12.19zm3.23-1.61a.56.56 0 0 0 .23 0 .27.27 0 0 0 .05-.19 1.94 1.94 0 0 0-.2-.82 1.67 1.67 0 0 0-.54-.69 1.43 1.43 0 0 0-.92-.29 1.81 1.81 0 0 0-1 .26 1.66 1.66 0 0 0-.64.72 2.26 2.26 0 0 0-.23 1zm4.35 5.15a.29.29 0 0 1-.33-.33V162c0-.21.08-.31.25-.31h1.95q.24 0 .24.27v.79a.14.14 0 0 0 .05.13c.039.031.08 0 .14-.06a7.16 7.16 0 0 1 .84-.68 3.85 3.85 0 0 1 .88-.45 3 3 0 0 1 1-.16 2.47 2.47 0 0 1 1.85.69 2.51 2.51 0 0 1 .69 1.85v5.75a.34.34 0 0 1-.39.39h-1.78a.38.38 0 0 1-.24-.07.37.37 0 0 1-.07-.26v-5.43a1.1 1.1 0 0 0-.3-.83 1.18 1.18 0 0 0-.87-.31 1.64 1.64 0 0 0-.63.12 1.91 1.91 0 0 0-.56.33 4.75 4.75 0 0 0-.58.55v5.53c0 .24-.14.37-.42.37zm11.41-3.54a1.91 1.91 0 0 0 1 1.77 2.42 2.42 0 0 0 1.09.24 2.31 2.31 0 0 0 1-.24 3.26 3.26 0 0 0 1-.84.17.17 0 0 1 .11-.06.25.25 0 0 1 .18 0l1.15.48c.16.06.17.17.05.32a5.34 5.34 0 0 1-1.07 1.17 3.64 3.64 0 0 1-1.26.63 5.92 5.92 0 0 1-1.52.18 4.52 4.52 0 0 1-2.23-.55 4 4 0 0 1-1.56-1.51 4.35 4.35 0 0 1-.56-2.23 4.84 4.84 0 0 1 .57-2.4 4.23 4.23 0 0 1 3.73-2.15 4.17 4.17 0 0 1 2.17.55 3.69 3.69 0 0 1 1.46 1.52 5.07 5.07 0 0 1 .54 2.43.67.67 0 0 1 0 .27c0 .07-.1.1-.24.11h-5.46a.17.17 0 0 0-.14.07.33.33 0 0 0-.04.19zm3.23-1.61a.48.48 0 0 0 .22 0 .27.27 0 0 0 .05-.19 2.08 2.08 0 0 0-.19-.82 1.61 1.61 0 0 0-.55-.69 1.4 1.4 0 0 0-.91-.29 1.78 1.78 0 0 0-.95.26 1.66 1.66 0 0 0-.64.72 2.14 2.14 0 0 0-.23 1zm4.35 5.15a.38.38 0 0 1-.26-.08.37.37 0 0 1-.08-.25V162c0-.21.09-.31.26-.31h1.88a.24.24 0 0 1 .26.27V163c0 .07 0 .11.06.13a.17.17 0 0 0 .09-.13 4.75 4.75 0 0 1 .72-.76 3.57 3.57 0 0 1 .86-.49 2.14 2.14 0 0 1 .82-.18q.57 0 .57.27v1.87q0 .25-.24.21a2.35 2.35 0 0 0-.59-.1h-.53a1.71 1.71 0 0 0-.61.11 2 2 0 0 0-.57.32 2.15 2.15 0 0 0-.41.45.89.89 0 0 0-.16.52v4.69c0 .24-.14.37-.42.37zm10.85-.82a4 4 0 0 1-1.13.72 3.62 3.62 0 0 1-1.41.26 2.72 2.72 0 0 1-1.93-.66 2.23 2.23 0 0 1-.69-1.69 2.4 2.4 0 0 1 .56-1.57 3.65 3.65 0 0 1 1.61-1.05 8.18 8.18 0 0 1 2.49-.42h.56a.35.35 0 0 0 .18 0 .19.19 0 0 0 .08-.18v-.34a1.22 1.22 0 0 0-.36-.94 1.32 1.32 0 0 0-1-.36 2.06 2.06 0 0 0-.93.23 1.75 1.75 0 0 0-.74.74.27.27 0 0 1-.11.14.46.46 0 0 1-.24 0l-1.61-.37a.28.28 0 0 1-.14-.09.59.59 0 0 1 .06-.33 2.64 2.64 0 0 1 1.38-1.39 5.64 5.64 0 0 1 2.45-.47 5.4 5.4 0 0 1 2.12.34 2.31 2.31 0 0 1 1.14 1 2.61 2.61 0 0 1 .35 1.39v5.64a.51.51 0 0 1-.06.28.34.34 0 0 1-.25.08h-1.65a.27.27 0 0 1-.25-.13.79.79 0 0 1-.08-.32v-.36c-.1-.38-.22-.39-.43-.2zm.32-3q0-.27-.24-.27h-.45a4.18 4.18 0 0 0-.84.13 2.93 2.93 0 0 0-.75.29 1.73 1.73 0 0 0-.57.47 1.07 1.07 0 0 0-.21.64 1 1 0 0 0 .34.77 1.48 1.48 0 0 0 .94.27 1.9 1.9 0 0 0 .7-.12 2.2 2.2 0 0 0 .55-.31 2.06 2.06 0 0 0 .38-.42.72.72 0 0 0 .15-.43zm7.47-3c-.12 0-.17.07-.17.2v3.87a1.06 1.06 0 0 0 .25.79 1.22 1.22 0 0 0 .82.22h.87a.25.25 0 0 1 .18.08.33.33 0 0 1 .06.19v1a.38.38 0 0 1-.35.39l-.63.06h-.66-.62a2.67 2.67 0 0 1-1.74-.52 1.89 1.89 0 0 1-.64-1.56v-4.5q0-.24-.21-.24h-1c-.2 0-.31-.09-.31-.27V162c0-.16.1-.24.29-.24h1.11c.1 0 .15-.06.17-.18l.22-2.44q0-.27.24-.27H330c.17 0 .26.1.26.3v2.41a.14.14 0 0 0 .16.16h1.68c.2 0 .3.09.3.26v1.19c0 .18-.12.27-.33.27zm5.25 3.28a2 2 0 0 0 1.03 1.77 2.38 2.38 0 0 0 1.08.24 2.36 2.36 0 0 0 1.06-.24 3.51 3.51 0 0 0 1-.84.17.17 0 0 1 .11-.06.26.26 0 0 1 .18 0l1.15.48c.15.06.17.17.05.32a5.14 5.14 0 0 1-1.08 1.17 3.6 3.6 0 0 1-1.25.63 5.92 5.92 0 0 1-1.52.18 4.56 4.56 0 0 1-2.24-.55 4 4 0 0 1-1.56-1.51 4.35 4.35 0 0 1-.56-2.23 4.74 4.74 0 0 1 .58-2.4 4.35 4.35 0 0 1 1.57-1.59 4.29 4.29 0 0 1 2.16-.56 4.19 4.19 0 0 1 2.17.55 3.73 3.73 0 0 1 1.45 1.52 5 5 0 0 1 .55 2.43.91.91 0 0 1 0 .27c0 .07-.1.1-.24.11h-5.46a.18.18 0 0 0-.15.07.33.33 0 0 0-.11.19zm3.23-1.61a.56.56 0 0 0 .23 0 .27.27 0 0 0 .05-.19 1.94 1.94 0 0 0-.2-.82 1.59 1.59 0 0 0-.54-.69 1.43 1.43 0 0 0-.92-.29 1.81 1.81 0 0 0-.95.26 1.73 1.73 0 0 0-.64.72 2.26 2.26 0 0 0-.22 1zm7-6.49a.32.32 0 0 1 .08-.21.37.37 0 0 1 .25-.08h9.22a.3.3 0 0 1 .24.08.32.32 0 0 1 .08.21v1.5c0 .16-.1.24-.29.24h-3c-.12 0-.18.05-.18.16v9.43c0 .2-.09.31-.27.31h-2.3c-.16 0-.24-.09-.24-.28v-9.41c0-.14-.06-.21-.17-.21h-3.11c-.2 0-.31-.08-.31-.24zm11.65 11.64a.29.29 0 0 1-.34-.33v-11.34c0-.2.09-.31.26-.31h1.93c.16 0 .24.1.24.28v4.11.13c0 .02.09 0 .15-.07a6.31 6.31 0 0 1 .94-.7 3.31 3.31 0 0 1 .88-.37 3.11 3.11 0 0 1 .9-.13 2.47 2.47 0 0 1 1.87.67 2.62 2.62 0 0 1 .67 1.9v5.72a.34.34 0 0 1-.39.39h-1.78a.38.38 0 0 1-.24-.07.37.37 0 0 1-.07-.26v-5.43a1.09 1.09 0 0 0-.29-.83 1.15 1.15 0 0 0-.87-.31 1.59 1.59 0 0 0-.62.12 1.79 1.79 0 0 0-.56.33 4.14 4.14 0 0 0-.59.55v5.53c0 .24-.13.37-.41.37zm11.4-3.54a2 2 0 0 0 1.03 1.77 2.38 2.38 0 0 0 1.08.24 2.36 2.36 0 0 0 1.06-.24 3.36 3.36 0 0 0 1-.84c.05 0 .08-.06.11-.06a.24.24 0 0 1 .18 0l1.16.48c.15.06.17.17.05.32a5.63 5.63 0 0 1-1.08 1.17 3.6 3.6 0 0 1-1.25.63 6 6 0 0 1-1.53.18 4.55 4.55 0 0 1-2.23-.55 4.18 4.18 0 0 1-1.56-1.51 4.45 4.45 0 0 1-.56-2.23 4.74 4.74 0 0 1 .58-2.4 4.2 4.2 0 0 1 3.72-2.15 4.14 4.14 0 0 1 2.17.55 3.72 3.72 0 0 1 1.47 1.52 5.07 5.07 0 0 1 .54 2.43.91.91 0 0 1 0 .27c0 .07-.11.1-.24.11h-5.56a.18.18 0 0 0-.15.07.33.33 0 0 0-.05.19zm3.23-1.61a.56.56 0 0 0 .23 0c.076-.016 0-.09 0-.19a1.92 1.92 0 0 0-.19-.82 1.67 1.67 0 0 0-.54-.69 1.45 1.45 0 0 0-.92-.29 1.78 1.78 0 0 0-.95.26 1.66 1.66 0 0 0-.64.72 2.26 2.26 0 0 0-.22 1zm22.93-6.78a.37.37 0 0 1 .34.15.42.42 0 0 1 0 .35l-3.28 11.09a.46.46 0 0 1-.48.34h-1.74a.48.48 0 0 1-.5-.34l-2-7c0-.1-.05-.15-.1-.15s-.06 0-.09.18l-2 7a.46.46 0 0 1-.49.34H383a.48.48 0 0 1-.5-.34l-3.27-11.09a.42.42 0 0 1 .05-.35.35.35 0 0 1 .33-.15h2a.44.44 0 0 1 .29.08.35.35 0 0 1 .13.2l2.07 7.31c0 .12.07.17.1.17s.06 0 .09-.12l2.08-7.36a.33.33 0 0 1 .11-.2.49.49 0 0 1 .3-.08h1.73a.41.41 0 0 1 .28.08.38.38 0 0 1 .15.2L391 166c0 .08.06.12.1.13s.07 0 .08-.11l2-7.44a.35.35 0 0 1 .13-.2.49.49 0 0 1 .3-.08zm4.55 12.09a4.35 4.35 0 0 1-2.25-.57 4 4 0 0 1-1.52-1.54 4.66 4.66 0 0 1-.54-2.26 4.59 4.59 0 0 1 .56-2.33 4.1 4.1 0 0 1 1.54-1.58 4.44 4.44 0 0 1 2.22-.56 4.31 4.31 0 0 1 2.27.58 3.89 3.89 0 0 1 1.49 1.57 4.66 4.66 0 0 1 .55 2.3 4.58 4.58 0 0 1-.55 2.28 3.91 3.91 0 0 1-1.53 1.54 4.31 4.31 0 0 1-2.3.52zm0-1.64a1.54 1.54 0 0 0 1-.31 1.86 1.86 0 0 0 .6-1 4.76 4.76 0 0 0 .21-1.52 4.9 4.9 0 0 0-.21-1.56 1.9 1.9 0 0 0-.6-1 1.55 1.55 0 0 0-1-.32 1.62 1.62 0 0 0-1 .32 2.06 2.06 0 0 0-.61 1 5.83 5.83 0 0 0 0 3.1 2 2 0 0 0 .61.93 1.61 1.61 0 0 0 .95.31zm6 1.48a.37.37 0 0 1-.34-.33V162c0-.21.09-.31.26-.31h1.88c.17 0 .25.09.25.27V163a.13.13 0 0 0 .07.13.18.18 0 0 0 .16-.08 4 4 0 0 1 .72-.76 3.52 3.52 0 0 1 .85-.49 2.18 2.18 0 0 1 .82-.18c.39 0 .58.09.58.27v1.87q0 .25-.24.21a2.35 2.35 0 0 0-.59-.1h-.54a1.66 1.66 0 0 0-.6.11 1.64 1.64 0 0 0-.56.32 1.76 1.76 0 0 0-.42.45.89.89 0 0 0-.16.52v4.69c0 .24-.14.37-.43.37zm9-.39a.46.46 0 0 1-.09.31.58.58 0 0 1-.34.08h-1.7c-.24 0-.36-.12-.36-.34l.05-11.28c0-.2.08-.31.26-.31h1.94c.16 0 .24.1.24.29zm7.69.39a.55.55 0 0 1-.24-.07.33.33 0 0 1-.09-.26v-.44c0-.08 0-.12-.07-.13s-.09 0-.16.06a7.18 7.18 0 0 1-.57.48 2.83 2.83 0 0 1-.76.37 3.38 3.38 0 0 1-2.75-.34 3.18 3.18 0 0 1-1.19-1.44 6 6 0 0 1-.43-2.43 5.31 5.31 0 0 1 .47-2.34 3.89 3.89 0 0 1 1.28-1.58 3 3 0 0 1 1.77-.56 3 3 0 0 1 1.14.21 3.28 3.28 0 0 1 1 .64c.09.07.15.09.19.08s.08-.09.08-.21v-3.68c0-.19.09-.29.26-.29h2c.17 0 .26.11.26.31v11.28a.38.38 0 0 1-.08.26.46.46 0 0 1-.29.08zM422 164a2.52 2.52 0 0 0-.72-.58 1.67 1.67 0 0 0-1.78.1 1.85 1.85 0 0 0-.66.91 6 6 0 0 0 0 3.3 1.93 1.93 0 0 0 .64.91 1.78 1.78 0 0 0 1.76.07 1.78 1.78 0 0 0 .56-.53 1.31 1.31 0 0 0 .2-.68zm-293.26-34.48h14.09v16.63h-5.64v-3.67h-.84a6.28 6.28 0 0 1-2.16 3.1 7.79 7.79 0 0 1-4.79 1.22 10.65 10.65 0 0 1-4.23-.84 9.68 9.68 0 0 1-3.43-2.49 12.58 12.58 0 0 1-2.3-4.13 18.09 18.09 0 0 1-.85-5.78v-7.7a16.28 16.28 0 0 1 .9-5.64A12.33 12.33 0 0 1 122 116a10.63 10.63 0 0 1 3.9-2.54 13.5 13.5 0 0 1 5-.89 12.62 12.62 0 0 1 5 .94 10.73 10.73 0 0 1 6.11 6.34 13.36 13.36 0 0 1 .8 4.65v.56h-6.2v-.56a6 6 0 0 0-1.55-4.46 6.39 6.39 0 0 0-8.6.23c-1.12 1.16-1.69 3.17-1.69 6v7q0 7.6 6.2 7.61a5.56 5.56 0 0 0 4.18-1.46 5.49 5.49 0 0 0 1.46-4h-7.89zm42 16.63h-6.2v-9.87a2.73 2.73 0 0 0-.61-1.83 2.34 2.34 0 0 0-1.93-.7h-7.14v12.4h-6.2v-32.88h12.64a12.93 12.93 0 0 1 4.46.7 8.6 8.6 0 0 1 3.2 2 7.93 7.93 0 0 1 2 2.86 8.85 8.85 0 0 1 .7 3.52v1.13a7.18 7.18 0 0 1-1.08 3.8 6.85 6.85 0 0 1-3.33 2.68v.85a3.87 3.87 0 0 1 3.57 4zm-15.88-18.32h5.92a5.09 5.09 0 0 0 3.43-1 3.9 3.9 0 0 0 1.17-3v-.56a3.84 3.84 0 0 0-1.17-2.82 4.52 4.52 0 0 0-3.43-1.22h-5.92zm23-14.56h20.76v5.92h-14.53v7.51h14v5.92h-14v7.61h15.13v5.92h-21.33zm28.76 0h20.76v5.92h-14.53v7.51h14v5.92h-14v7.61H228v5.92h-21.35zm43.74 29.78h.85v-29.78h6.2v32.88h-12.09l-3.85-29.78h-.85v29.78h-6.2v-32.88h12.12zm19.51-9.3v12.4h-6.2v-32.88h12.87a10.71 10.71 0 0 1 4.41.84 8.8 8.8 0 0 1 3.1 2.16 8.34 8.34 0 0 1 1.88 3.06 9.42 9.42 0 0 1 .66 3.47v1.13a10.38 10.38 0 0 1-.66 3.62 9.19 9.19 0 0 1-1.88 3.14 9 9 0 0 1-3.1 2.21 10.71 10.71 0 0 1-4.41.85zm0-5.92H276a4.53 4.53 0 0 0 3.25-1.13 3.79 3.79 0 0 0 1.22-2.91v-.56a3.83 3.83 0 0 0-1.22-2.92 4.52 4.52 0 0 0-3.25-1.12h-6.1zm22.55-14.56h22v5.92h-7.9v21h7.9v5.92h-22v-5.92h7.9v-21h-7.9zm29.23 0h6.2v27h14.93v5.92h-21.1zm28.76 0h6.2v27h14.93v5.92h-21.1zm28.76 0H400v5.92h-14.6v7.51h14v5.92h-14v7.61h15.12v5.92H379.2zm27.06 0h11.93q6.1 0 9.07 2.86 2.97 2.86 2.95 8.79v9.58c0 4-1 6.92-2.95 8.83s-5 2.82-9.07 2.82h-11.9v-6h3.1v-21h-3.1zm11.93 27c2.16 0 3.67-.5 4.51-1.51a7.27 7.27 0 0 0 1.32-4.79v-9a6.18 6.18 0 0 0-1.32-4.28c-.84-1-2.35-1.45-4.51-1.45h-2.63v21z"/><path d="M250.41 452.63a2.76 2.76 0 0 1 1.22.27 2.82 2.82 0 0 1 1 .77 3.6 3.6 0 0 1 .65 1.21 5 5 0 0 1 .22 1.55 4.69 4.69 0 0 1-.39 2 3.11 3.11 0 0 1-1.09 1.3 2.79 2.79 0 0 1-1.57.46 2.9 2.9 0 0 1-1.59-.46 3.15 3.15 0 0 1-1.09-1.29 4.69 4.69 0 0 1-.39-2 5 5 0 0 1 .23-1.56 3.77 3.77 0 0 1 .64-1.21 2.77 2.77 0 0 1 2.2-1zm0 6.31a1 1 0 0 0 .72-.25 1.55 1.55 0 0 0 .43-.8 5.76 5.76 0 0 0 .14-1.45 6.19 6.19 0 0 0-.14-1.51 1.71 1.71 0 0 0-.44-.83 1.11 1.11 0 0 0-1.43 0 1.8 1.8 0 0 0-.45.83 6.23 6.23 0 0 0-.15 1.51 5.7 5.7 0 0 0 .15 1.45 1.64 1.64 0 0 0 .45.8 1 1 0 0 0 .72.25zm6.24-3.06c-.07 0-.11 0-.11.12v2.39a.62.62 0 0 0 .16.48.75.75 0 0 0 .5.14h.54a.12.12 0 0 1 .1.05.16.16 0 0 1 0 .12v.6c0 .13-.07.2-.21.24h-.39-.4-.39a1.68 1.68 0 0 1-1.07-.32 1.19 1.19 0 0 1-.39-1V456c0-.1-.05-.15-.13-.15h-.6c-.13 0-.19-.05-.19-.16V455c0-.09.06-.14.18-.14h.75c.06 0 .09 0 .1-.11l.13-1.51c0-.11.06-.16.15-.16h1.08c.11 0 .16.06.16.18v1.49a.09.09 0 0 0 .1.1h1c.11 0 .17.05.17.15v.74c0 .11-.06.16-.19.16zm2.28 4.2a.18.18 0 0 1-.21-.2v-6.95c0-.13 0-.19.16-.19h1.19c.09 0 .14.06.14.17v2.53.08c0 .01.05 0 .09 0a3.86 3.86 0 0 1 .58-.44 2 2 0 0 1 .54-.22 1.75 1.75 0 0 1 .55-.08 1.58 1.58 0 0 1 1.16.41 1.62 1.62 0 0 1 .41 1.17v3.52a.21.21 0 0 1-.24.24h-1.1a.3.3 0 0 1-.15 0 .34.34 0 0 1 0-.16v-3.34a.63.63 0 0 0-.71-.71 1.12 1.12 0 0 0-.38.07 1.41 1.41 0 0 0-.35.21 3.6 3.6 0 0 0-.36.34v3.4c0 .15-.08.23-.25.23zm7.87-7.15c0-.13.05-.19.15-.19h5c.1 0 .15.06.15.17v.89a.19.19 0 0 1-.21.21h-3.16q-.18 0-.18.15v1.44c0 .11.05.17.15.17h2.09c.11 0 .17.05.17.15v.95a.12.12 0 0 1 0 .1c-.015.032-.06 0-.12 0h-2.11c-.1 0-.14 0-.14.12v1.55c0 .09 0 .13.11.13h3.3q.18 0 .18.15v.94a.21.21 0 0 1-.2.18h-5a.19.19 0 0 1-.21-.21zm9.83 7.15a.42.42 0 0 1-.15 0 .21.21 0 0 1-.06-.16v-.28-.08a.19.19 0 0 0-.1 0 3.63 3.63 0 0 1-.35.3 1.86 1.86 0 0 1-1.09.32 1.94 1.94 0 0 1-1.07-.3 2 2 0 0 1-.81-.88 3.64 3.64 0 0 1-.27-1.49 3.41 3.41 0 0 1 .29-1.45 2.47 2.47 0 0 1 .79-1 1.85 1.85 0 0 1 1.09-.34 1.71 1.71 0 0 1 .7.13 1.92 1.92 0 0 1 .6.39c.05 0 .09.06.11.05s0-.06 0-.13v-2.26c0-.12.06-.18.16-.18h1.21c.1 0 .16.06.16.19v6.94a.25.25 0 0 1-.05.16.3.3 0 0 1-.18.05zm-.23-3.88a1.59 1.59 0 0 0-.44-.36 1 1 0 0 0-.51-.12 1 1 0 0 0-.59.18 1.13 1.13 0 0 0-.4.57 3.71 3.71 0 0 0 0 2 1.18 1.18 0 0 0 .39.57 1.06 1.06 0 0 0 .58.17 1 1 0 0 0 .5-.13 1.07 1.07 0 0 0 .34-.33.71.71 0 0 0 .13-.41zm4.14 3.64a.25.25 0 0 1-.06.19.36.36 0 0 1-.21.05h-1a.25.25 0 0 1-.17-.05.25.25 0 0 1 0-.16V455c0-.12.05-.18.16-.18h1.21c.1 0 .15.05.15.16zm0-5.88q0 .24-.27.24h-1.07a.21.21 0 0 1-.17-.06.25.25 0 0 1 0-.16v-1c0-.13.05-.2.17-.2h1.22c.11 0 .16.06.16.19zm3.28 1.92c-.07 0-.11 0-.11.12v2.39a.62.62 0 0 0 .16.48.75.75 0 0 0 .5.14h.54a.16.16 0 0 1 .11.05.21.21 0 0 1 0 .12v.6c0 .13-.08.2-.22.24h-.39-.4-.39a1.68 1.68 0 0 1-1.07-.32 1.19 1.19 0 0 1-.39-1V456c0-.1 0-.15-.13-.15h-.6c-.13 0-.19-.05-.19-.16V455c0-.09.06-.14.18-.14h.68c.06 0 .09 0 .1-.11l.14-1.51c0-.11.05-.16.14-.16h1.08c.11 0 .16.06.16.18v1.49a.09.09 0 0 0 .1.1h1q.18 0 .18.15v.74c0 .11-.07.16-.2.16zm3.58 4a.31.31 0 0 1-.05.19.36.36 0 0 1-.21.05h-1a.26.26 0 0 1-.18-.05.25.25 0 0 1 0-.16V455c0-.12.05-.18.16-.18h1.22c.1 0 .14.05.14.16zm0-5.88c0 .16-.08.24-.26.24h-1.07a.22.22 0 0 1-.18-.06.34.34 0 0 1 0-.16v-1c0-.13.06-.2.17-.2h1.23c.1 0 .15.06.15.19zm3.49 6.22a2.72 2.72 0 0 1-1.38-.35 2.43 2.43 0 0 1-.93-.95 2.78 2.78 0 0 1-.34-1.39 2.9 2.9 0 0 1 .35-1.44 2.46 2.46 0 0 1 .95-1 2.67 2.67 0 0 1 1.36-.34 2.77 2.77 0 0 1 1.4.35 2.37 2.37 0 0 1 .91 1 3.09 3.09 0 0 1 0 2.82 2.43 2.43 0 0 1-.93.95 2.73 2.73 0 0 1-1.35.31zm0-1a1 1 0 0 0 .61-.19 1.15 1.15 0 0 0 .37-.58 3.54 3.54 0 0 0 0-1.9 1.18 1.18 0 0 0-.37-.59.93.93 0 0 0-.61-.19 1 1 0 0 0-.61.19 1.26 1.26 0 0 0-.38.59 3.18 3.18 0 0 0-.13 1 3.25 3.25 0 0 0 .13 1 1.2 1.2 0 0 0 .38.57 1 1 0 0 0 .66.05zm3.71.91a.18.18 0 0 1-.21-.2V455c0-.12.05-.18.16-.18h1.19c.1 0 .15.05.15.16v.49a.1.1 0 0 0 0 .08c.011.026 0 0 .09 0a4.71 4.71 0 0 1 .51-.42 2 2 0 0 1 .55-.27 1.74 1.74 0 0 1 .61-.1 1.54 1.54 0 0 1 1.14.42 1.56 1.56 0 0 1 .42 1.14v3.54a.21.21 0 0 1-.24.24H298a.27.27 0 0 1-.15 0 .25.25 0 0 1 0-.16v-3.34a.67.67 0 0 0-.19-.52.71.71 0 0 0-.53-.19 1.23 1.23 0 0 0-.39.07 1.36 1.36 0 0 0-.34.21 2.77 2.77 0 0 0-.36.34v3.4c0 .15-.09.23-.26.23zm-118.21 14.78a.11.11 0 0 1-.12-.12v-7.08a.13.13 0 0 1 0-.1.13.13 0 0 1 .1 0h2.28a3.54 3.54 0 0 1 2 .49 1.59 1.59 0 0 1 .72 1.41 1.57 1.57 0 0 1-.32 1 2 2 0 0 1-1 .64c-.39.107 0 0 0 0a2 2 0 0 1 1.08.61 1.84 1.84 0 0 1-.35 2.61 3.82 3.82 0 0 1-2.12.49zm2.31-.69a2.77 2.77 0 0 0 1.45-.31 1.11 1.11 0 0 0 .47-1 1.21 1.21 0 0 0-.24-.78 1.36 1.36 0 0 0-.64-.45 2.94 2.94 0 0 0-.93-.13h-1.45c-.1 0-.14 0-.14.11v2.41c0 .09 0 .14.09.14zm.11-3.38a2.88 2.88 0 0 0 .59-.06 1.58 1.58 0 0 0 .54-.19 1.09 1.09 0 0 0 .38-.39 1.16 1.16 0 0 0 .15-.62 1.08 1.08 0 0 0-.49-1 2.3 2.3 0 0 0-1.3-.33h-1.33c-.09 0-.13 0-.13.12v2.34q0 .12.09.12zm4.46 5.7h-.44c-.11 0-.16 0-.16-.11V476a.11.11 0 0 1 .05-.1.56.56 0 0 1 .23 0h.62a.58.58 0 0 0 .39-.15 1.07 1.07 0 0 0 .3-.36 1.46 1.46 0 0 0 .16-.44.63.63 0 0 0 0-.39l-1.89-4.72a.24.24 0 0 1 0-.12c.01-.039.06-.05.11-.05h.61a.15.15 0 0 1 .1 0 .1.1 0 0 1 .06.08l1.47 3.83q0 .09.09.09s.07 0 .09-.12l1.46-3.8v-.08a.11.11 0 0 1 .08 0h.47a.1.1 0 0 1 .1.05.09.09 0 0 1 0 .1l-2.17 5.55a2.7 2.7 0 0 1-.3.59 1.24 1.24 0 0 1-.39.34 1.23 1.23 0 0 1-.46.18 2.68 2.68 0 0 1-.58.06zm12.81-1.77a.12.12 0 0 1 0 .1.07.07 0 0 1-.07 0h-.81a.18.18 0 0 1-.18-.09l-2.19-3.65c0-.06-.08-.06-.14 0l-1.14 1.3a.23.23 0 0 0-.07.17v2.11c0 .1-.06.15-.17.15h-.63a.21.21 0 0 1-.12 0 .13.13 0 0 1 0-.1v-7.09c0-.08 0-.12.11-.12h.73c.07 0 .11 0 .11.12v3.63a.1.1 0 0 0 0 .07l.07-.05 3.24-3.68s.05-.06.08-.07h.12.68c.06 0 .1 0 .11.05a.09.09 0 0 1 0 .09l-2.3 2.57a.1.1 0 0 0 0 .13zm1.26-2.16a1.78 1.78 0 0 0 .22.89 1.84 1.84 0 0 0 .63.64 1.72 1.72 0 0 0 .88.23 1.93 1.93 0 0 0 .88-.19 1.88 1.88 0 0 0 .66-.63h.06.08l.41.21c.06 0 .07.08 0 .14a2.65 2.65 0 0 1-.59.65 2.1 2.1 0 0 1-.71.37 3.09 3.09 0 0 1-.89.12 2.54 2.54 0 0 1-1.3-.34 2.44 2.44 0 0 1-.89-.94 3 3 0 0 1-.32-1.39 3.2 3.2 0 0 1 .32-1.48 2.6 2.6 0 0 1 .9-1 2.54 2.54 0 0 1 1.28-.33 2.3 2.3 0 0 1 1.25.32 2 2 0 0 1 .83.91 3.28 3.28 0 0 1 .3 1.46.78.78 0 0 1 0 .14c-.004.047-.05.07-.13.07h-3.78-.07c-.02 0-.02.11-.02.15zm3-.69h.14a.17.17 0 0 0 0-.12 1.67 1.67 0 0 0-.19-.79 1.44 1.44 0 0 0-.52-.6 1.46 1.46 0 0 0-.82-.23 1.52 1.52 0 0 0-.9.26 1.54 1.54 0 0 0-.56.65 2.09 2.09 0 0 0-.18.85zm6.28-2.25a.09.09 0 0 1 .09.05.09.09 0 0 1 0 .1l-2 4.94a.22.22 0 0 1-.23.15h-.36a.24.24 0 0 1-.24-.14l-2-4.95a.11.11 0 0 1 0-.1c.016-.031.05-.05.1-.05h.61a.17.17 0 0 1 .1 0 .1.1 0 0 1 .06.08l1.55 3.88c0 .13.1.12.16 0l1.54-3.87s0-.07.05-.08a.17.17 0 0 1 .1 0zm2 5.07a.18.18 0 0 1 0 .14c-.019.045-.06 0-.14 0h-.5a.17.17 0 0 1-.12 0 .16.16 0 0 1 0-.11v-5c0-.1 0-.14.12-.14h.6c.08 0 .11 0 .11.13zm0-6.2c0 .13-.06.19-.18.19h-.57-.12a.25.25 0 0 1 0-.13v-.83c0-.11.05-.16.14-.16h.62c.1 0 .14.05.14.15zm1.64 6.37c-.1 0-.14 0-.14-.13v-5c0-.09 0-.13.11-.13h.59a.1.1 0 0 1 .11.11v.57.06c0 .06 0 0 .07 0l.6-.44a2.52 2.52 0 0 1 .58-.27 1.91 1.91 0 0 1 .64-.1 1.59 1.59 0 0 1 1.18.42 1.46 1.46 0 0 1 .42 1.08v3.69c0 .11-.05.16-.15.16h-.55a.13.13 0 0 1-.1 0 .17.17 0 0 1 0-.1v-3.53a1 1 0 0 0-1.03-1.03 1.4 1.4 0 0 0-.54.1 2.1 2.1 0 0 0-.51.27 5.32 5.32 0 0 0-.57.43v3.74a.13.13 0 0 1-.15.15zm10.76.1a3.19 3.19 0 0 1-1.68-.44 2.79 2.79 0 0 1-1.08-1.26 5 5 0 0 1-.37-2 5.12 5.12 0 0 1 .38-2.06 2.9 2.9 0 0 1 1.09-1.29 3 3 0 0 1 1.67-.45 3 3 0 0 1 1.66.45 2.79 2.79 0 0 1 1.08 1.28 4.89 4.89 0 0 1 .39 2.06 5 5 0 0 1-.38 2 2.78 2.78 0 0 1-1.09 1.27 3.1 3.1 0 0 1-1.64.43zm0-.73a1.82 1.82 0 0 0 1.59-.73 3.87 3.87 0 0 0 .54-2.28 3.91 3.91 0 0 0-.55-2.32 1.79 1.79 0 0 0-1.59-.76 1.85 1.85 0 0 0-1.61.77 4 4 0 0 0-.54 2.31 3.86 3.86 0 0 0 .54 2.27 1.86 1.86 0 0 0 1.67.74zm11.22-4.61a.09.09 0 0 1 .09.05.11.11 0 0 1 0 .1l-1.51 5a.2.2 0 0 1-.07.1.21.21 0 0 1-.12 0h-.48c-.11 0-.18 0-.2-.13l-1.18-3.7c0-.06-.05-.09-.07-.09s0 0 0 .09l-1.12 3.7a.13.13 0 0 1-.07.1.16.16 0 0 1-.11 0h-.51a.21.21 0 0 1-.21-.13l-1.56-5a.15.15 0 0 1 0-.1c.011-.032 0-.05.1-.05h.58a.15.15 0 0 1 .1 0 .1.1 0 0 1 .06.08l1.18 3.84c0 .07 0 .1.07.1a.21.21 0 0 0 .08-.11l1.16-3.84s0-.06.05-.07h.09.47a.17.17 0 0 1 .1 0 .12.12 0 0 1 .05.08l1.21 3.84c0 .07 0 .1.07.1s0 0 .07-.11l1.14-3.83s0-.07.07-.08a.15.15 0 0 1 .1 0zm3.19 5.34a2.62 2.62 0 0 1-1.32-.34 2.44 2.44 0 0 1-.88-.95 3.16 3.16 0 0 1-.3-1.4 3.12 3.12 0 0 1 .31-1.44 2.6 2.6 0 0 1 .89-1 2.46 2.46 0 0 1 1.31-.34 2.41 2.41 0 0 1 1.3.35 2.33 2.33 0 0 1 .87 1 3.27 3.27 0 0 1 0 2.82 2.37 2.37 0 0 1-.88 1 2.41 2.41 0 0 1-1.25.29zm0-.63a1.41 1.41 0 0 0 1.43-1 2.91 2.91 0 0 0 .2-1.12 2.88 2.88 0 0 0-.2-1.12 1.61 1.61 0 0 0-.56-.73 1.62 1.62 0 0 0-1.76 0 1.66 1.66 0 0 0-.59.73 3.37 3.37 0 0 0 0 2.23 1.69 1.69 0 0 0 .59.74 1.6 1.6 0 0 0 .96.27zm5.88-4.81a2.13 2.13 0 0 1 .9.17 1.91 1.91 0 0 1 .67.44 2.69 2.69 0 0 1 .47.61v.15l-.54.13c-.05 0-.09 0-.13-.06a2.67 2.67 0 0 0-.39-.46 1.33 1.33 0 0 0-.41-.27 1 1 0 0 0-.47-.1 1.55 1.55 0 0 0-.89.26 1.58 1.58 0 0 0-.59.72 2.78 2.78 0 0 0-.2 1.13 2.75 2.75 0 0 0 .2 1.13 1.75 1.75 0 0 0 .6.73 1.63 1.63 0 0 0 .9.24 1.49 1.49 0 0 0 .82-.23 2.29 2.29 0 0 0 .63-.7h0 .12l.42.16c.05 0 .06.07 0 .13a4 4 0 0 1-.34.5 2.35 2.35 0 0 1-.47.41 2.1 2.1 0 0 1-.58.29 2.72 2.72 0 0 1-.72.1 2.54 2.54 0 0 1-1.3-.34 2.42 2.42 0 0 1-.87-.95 3 3 0 0 1-.31-1.41 3.1 3.1 0 0 1 .31-1.43 2.63 2.63 0 0 1 .88-1 2.45 2.45 0 0 1 1.36-.35zm7.71 5.18a.12.12 0 0 1 0 .11c-.018.035-.05.05-.11.05h-.69a.2.2 0 0 1-.11 0 .22.22 0 0 1-.07-.09l-1.49-2.56a.12.12 0 0 0 0-.05c-.004-.016 0 0-.07 0l-1.05 1.06a.15.15 0 0 0-.06.09.28.28 0 0 0 0 .1v1.28a.18.18 0 0 1 0 .14c-.019.045-.06 0-.14 0h-.5a.19.19 0 0 1-.13 0 .27.27 0 0 1 0-.11v-7.06c0-.09 0-.14.11-.14h.6c.08 0 .12 0 .12.13v4.59a.22.22 0 0 0 0 .1.21.21 0 0 0 .08-.06l2.44-2.54a.29.29 0 0 1 .21-.12h.6c.07 0 .11 0 .11.06s0 .07-.06.13l-1.56 1.59a.16.16 0 0 0 0 .07.26.26 0 0 0 0 .1zm1.88 0a.18.18 0 0 1 0 .14c-.019.045-.06 0-.14 0h-.5a.17.17 0 0 1-.12 0 .16.16 0 0 1 0-.11v-5c0-.1 0-.14.12-.14h.6c.08 0 .11 0 .11.13zm0-6.2c0 .13-.06.19-.18.19h-.57-.12a.25.25 0 0 1 0-.13v-.83c0-.11 0-.16.14-.16h.62c.1 0 .14.05.14.15zm1.25 7.78a.07.07 0 0 1-.07 0 .2.2 0 0 1 0-.11l.45-1.1c0-.11 0-.16-.08-.16h-.13c-.09 0-.13 0-.13-.12v-.88c0-.07 0-.11.09-.11h.83c.07 0 .1 0 .1.1v.81a.27.27 0 0 1 0 .12l-.72 1.38a.18.18 0 0 1-.09.08.23.23 0 0 1-.11 0zm5.14-6.65c.09 0 .14.05.14.15v.41.09a.23.23 0 0 0 .1-.05c.07-.08.17-.17.29-.28a1.76 1.76 0 0 1 .49-.29 1.9 1.9 0 0 1 .77-.13 2.05 2.05 0 0 1 1.09.3 2 2 0 0 1 .78.87 3.18 3.18 0 0 1 .29 1.47 3.6 3.6 0 0 1-.28 1.51 2.18 2.18 0 0 1-.8 1 2.13 2.13 0 0 1-1.19.33 2.29 2.29 0 0 1-.81-.14 2.26 2.26 0 0 1-.59-.36c-.06-.05-.11-.07-.13-.06s0 .05 0 .12v1.84c0 .09 0 .13-.11.13h-.61c-.08 0-.11 0-.11-.13v-6.58a.17.17 0 0 1 0-.12c.015-.039.07 0 .13 0zm.15 4.08a3 3 0 0 0 .62.48 1.59 1.59 0 0 0 .72.17 1.48 1.48 0 0 0 .84-.24 1.64 1.64 0 0 0 .59-.74 3 3 0 0 0 .21-1.2 2.87 2.87 0 0 0-.21-1.18 1.47 1.47 0 0 0-.59-.66 1.51 1.51 0 0 0-.79-.21 1.43 1.43 0 0 0-.72.18 1.41 1.41 0 0 0-.49.44.93.93 0 0 0-.18.52zm5.9 1a.23.23 0 0 1 0 .14.22.22 0 0 1-.14 0h-.5a.17.17 0 0 1-.12 0 .16.16 0 0 1 0-.11v-5c0-.1 0-.14.12-.14h.6c.07 0 .11 0 .11.13zm0-6.2c0 .13-.06.19-.18.19h-.57-.12a.25.25 0 0 1 0-.13v-.83c0-.11 0-.16.14-.16h.62c.09 0 .14.05.14.15zm5.77 6.16c.06.08.08.14.07.17s0 0-.11 0h-.69a.23.23 0 0 1-.21-.09l-1.39-1.92s-.06-.07-.09-.07 0 0-.08.07l-1.45 1.92a.23.23 0 0 1-.21.09h-.46a.17.17 0 0 1-.14-.05c-.037-.037 0-.1.07-.19l1.8-2.29a.24.24 0 0 0 0-.11.3.3 0 0 0 0-.11l-1.73-2.33v-.1a.1.1 0 0 1 .1-.06h.66.11a.23.23 0 0 1 .08.07l1.33 1.81q.07.1.15 0l1.29-1.81a.23.23 0 0 1 .08-.07.22.22 0 0 1 .12 0h.52c.06 0 .09 0 .09.05a.23.23 0 0 1 0 .09l-1.57 2.21a.19.19 0 0 0 0 .11.3.3 0 0 0 0 .11zm1.28-2.09a1.69 1.69 0 0 0 .23.89 1.73 1.73 0 0 0 .62.64 1.75 1.75 0 0 0 .88.23 1.93 1.93 0 0 0 .88-.19 1.8 1.8 0 0 0 .66-.63h.06.28l.42.21c.05 0 .06.08 0 .14a2.65 2.65 0 0 1-.59.65 2.1 2.1 0 0 1-.71.37 3 3 0 0 1-.89.12 2.54 2.54 0 0 1-1.3-.34 2.44 2.44 0 0 1-.89-.94 3 3 0 0 1-.32-1.39 3.2 3.2 0 0 1 .32-1.48 2.6 2.6 0 0 1 .9-1 2.54 2.54 0 0 1 1.28-.33 2.36 2.36 0 0 1 1.26.32 2.16 2.16 0 0 1 .83.91 3.42 3.42 0 0 1 .29 1.46.36.36 0 0 1 0 .14c-.009.046-.05.07-.13.07h-3.78-.07c-.02 0-.08.09-.08.13zm3-.69h.14a.17.17 0 0 0 0-.12 1.67 1.67 0 0 0-.19-.79 1.37 1.37 0 0 0-.52-.6 1.44 1.44 0 0 0-.82-.23 1.54 1.54 0 0 0-1.45.91 2 2 0 0 0-.19.85zm3 2.82a.18.18 0 0 1 0 .14.24.24 0 0 1-.14 0h-.51c-.1 0-.15-.05-.15-.14v-7.06c0-.09 0-.14.12-.14h.59c.08 0 .12 0 .12.13zm4.67-3.92a1.62 1.62 0 0 0-.55-.48 1.75 1.75 0 0 0-.85-.19 1.61 1.61 0 0 0-.89.23.69.69 0 0 0-.35.61.6.6 0 0 0 .16.4 1.43 1.43 0 0 0 .64.33l1.26.38a2 2 0 0 1 1 .54 1.24 1.24 0 0 1 .3.82 1.32 1.32 0 0 1-.27.82 1.84 1.84 0 0 1-.77.54 3.11 3.11 0 0 1-1.09.19 3 3 0 0 1-1.37-.31 2 2 0 0 1-.83-.78.16.16 0 0 1 0-.09c.009-.029 0-.05.05-.07l.39-.22a.15.15 0 0 1 .09 0 .05.05 0 0 1 .05 0 2.87 2.87 0 0 0 .39.45 1.8 1.8 0 0 0 .53.29 2.13 2.13 0 0 0 .74.11 2.11 2.11 0 0 0 .68-.11 1.13 1.13 0 0 0 .63-.3.67.67 0 0 0 .18-.46.56.56 0 0 0-.22-.45 1.87 1.87 0 0 0-.75-.35l-1-.28a2.14 2.14 0 0 1-1-.54 1.2 1.2 0 0 1-.31-.79 1.28 1.28 0 0 1 .26-.82 1.59 1.59 0 0 1 .71-.55 2.54 2.54 0 0 1 1.06-.2 2.46 2.46 0 0 1 1.17.26 1.74 1.74 0 0 1 .79.66.11.11 0 0 1 0 .08.07.07 0 0 1 0 .06l-.41.22a.12.12 0 0 1-.08 0c-.026-.009-.13.01-.16-.02zm4.19 4.09a.22.22 0 0 1-.13 0 .21.21 0 0 1 0-.12v-7c0-.09 0-.14.12-.14h.76c.07 0 .1.05.1.14v2.42.12c0 .01.06 0 .11-.06a2.27 2.27 0 0 1 .29-.24 2.51 2.51 0 0 1 .52-.26 2.22 2.22 0 0 1 .77-.12 2 2 0 0 1 1.19.35 2.16 2.16 0 0 1 .69 1 3.72 3.72 0 0 1 .24 1.37 3.13 3.13 0 0 1-.6 2 2 2 0 0 1-1.66.74 2.05 2.05 0 0 1-.78-.14 1.78 1.78 0 0 1-.52-.33 3 3 0 0 1-.31-.31c-.096-.111-.05-.05-.07 0s0 0 0 .07l-.05.49a.16.16 0 0 1-.18.16zm.67-1.77a1.16 1.16 0 0 0 .2.65 1.58 1.58 0 0 0 .53.46 1.51 1.51 0 0 0 .68.16 1.58 1.58 0 0 0 .81-.21 1.63 1.63 0 0 0 .56-.71 3 3 0 0 0 .21-1.21 2.63 2.63 0 0 0-.39-1.55 1.29 1.29 0 0 0-1.12-.56 1.66 1.66 0 0 0-.85.22 2.28 2.28 0 0 0-.63.51zm5.15 3.4h-.44c-.11 0-.16 0-.16-.11V476a.11.11 0 0 1 .05-.1.56.56 0 0 1 .23 0h.62a.62.62 0 0 0 .4-.15 1.18 1.18 0 0 0 .29-.36 1.46 1.46 0 0 0 .16-.44.63.63 0 0 0 0-.39l-1.89-4.72a.24.24 0 0 1 0-.12c.01-.039.06-.05.11-.05h.61a.15.15 0 0 1 .1 0 .1.1 0 0 1 .06.08l1.48 3.83c0 .06.05.09.08.09s.07 0 .09-.12l1.46-3.8a.18.18 0 0 1 .06-.08.1.1 0 0 1 .08 0h.46c.05 0 .08 0 .1.05a.09.09 0 0 1 0 .1l-2.02 5.55a2.7 2.7 0 0 1-.3.59 1.24 1.24 0 0 1-.39.34 1.23 1.23 0 0 1-.46.18 2.61 2.61 0 0 1-.6.06zm10.27-1.56a3.14 3.14 0 0 1-1.68-.44 2.79 2.79 0 0 1-1.08-1.26 5.79 5.79 0 0 1 0-4.1 2.9 2.9 0 0 1 1.09-1.29 3 3 0 0 1 1.67-.45 3 3 0 0 1 1.66.45 2.79 2.79 0 0 1 1.08 1.28 4.89 4.89 0 0 1 .38 2.06 5 5 0 0 1-.37 2 2.78 2.78 0 0 1-1.09 1.27 3.1 3.1 0 0 1-1.66.48zm0-.73a1.82 1.82 0 0 0 1.59-.73 3.87 3.87 0 0 0 .54-2.28 4 4 0 0 0-.55-2.32 1.79 1.79 0 0 0-1.59-.76 1.85 1.85 0 0 0-1.61.77 4 4 0 0 0-.55 2.31 3.85 3.85 0 0 0 .55 2.27 1.86 1.86 0 0 0 1.64.75zm6.69-4.71a2.13 2.13 0 0 1 .9.17 1.82 1.82 0 0 1 .67.44 3.07 3.07 0 0 1 .48.61c0 .08 0 .13-.05.15l-.55.13c-.05 0-.08 0-.13-.06a2.67 2.67 0 0 0-.39-.46 1.22 1.22 0 0 0-.41-.27 1 1 0 0 0-.47-.1 1.55 1.55 0 0 0-1.47 1 2.78 2.78 0 0 0-.21 1.13 2.75 2.75 0 0 0 .21 1.13 1.66 1.66 0 0 0 .59.73 1.68 1.68 0 0 0 .9.24 1.46 1.46 0 0 0 .82-.23 2.29 2.29 0 0 0 .63-.7h.05.08l.43.16s.05.07 0 .13a4.1 4.1 0 0 1-.35.5 2.28 2.28 0 0 1-.46.41 2.42 2.42 0 0 1-.58.29 2.8 2.8 0 0 1-.73.1 2.48 2.48 0 0 1-1.29-.34 2.42 2.42 0 0 1-.87-.95 2.93 2.93 0 0 1-.32-1.41 3 3 0 0 1 .32-1.43 2.54 2.54 0 0 1 .88-1 2.39 2.39 0 0 1 1.34-.36zm4.45.72c-.06 0-.09 0-.09.08v3.13a.9.9 0 0 0 .16.63.69.69 0 0 0 .48.15h.68a.11.11 0 0 1 .08 0 .1.1 0 0 1 0 .08v.34c0 .07 0 .11-.12.13h-.29-.36-.28a1.26 1.26 0 0 1-.91-.29 1.31 1.31 0 0 1-.29-.93v-3.3c0-.07 0-.1-.1-.1h-.79c-.07 0-.1 0-.1-.11v-.41c0-.07 0-.1.09-.1h.85s.06 0 .06-.08l.11-1.57c0-.09.05-.13.11-.13h.49c.08 0 .12 0 .12.14v1.56a.07.07 0 0 0 .08.08h1.25c.07 0 .1 0 .1.09v.42c0 .07 0 .11-.1.11zm5.45 4a3 3 0 0 1-.8.54 2.49 2.49 0 0 1-1 .19 1.74 1.74 0 0 1-1.22-.4 1.34 1.34 0 0 1-.44-1 1.4 1.4 0 0 1 .3-.9 2.08 2.08 0 0 1 .88-.6 5 5 0 0 1 1.44-.28l.77-.06a.21.21 0 0 0 .11 0 .11.11 0 0 0 .05-.1v-.27a1.08 1.08 0 0 0-.34-.84 1.21 1.21 0 0 0-.89-.32 1.63 1.63 0 0 0-.79.2 1.92 1.92 0 0 0-.62.59.22.22 0 0 1-.07.07c-.028.018 0 0-.08 0l-.53-.18a.08.08 0 0 1-.05-.05c-.008-.024 0 0 0-.1a2 2 0 0 1 .84-.81 2.68 2.68 0 0 1 1.32-.3 2.54 2.54 0 0 1 1.1.21 1.3 1.3 0 0 1 .66.58 1.72 1.72 0 0 1 .23.9v3.5a.17.17 0 0 1 0 .12.15.15 0 0 1-.1 0h-.51a.18.18 0 0 1-.1 0 .35.35 0 0 1 0-.12v-.46c-.01-.19-.09-.19-.09-.11zm.13-1.88c0-.12-.05-.17-.14-.16l-.66.06a3.13 3.13 0 0 0-.8.12 2.28 2.28 0 0 0-.61.23 1.07 1.07 0 0 0-.37.36.8.8 0 0 0-.13.46.86.86 0 0 0 .3.69 1.33 1.33 0 0 0 .82.23 1.52 1.52 0 0 0 .6-.11 1.69 1.69 0 0 0 .51-.29 1.76 1.76 0 0 0 .35-.39.75.75 0 0 0 .13-.38zm6.4-2.73s.08 0 .1.05a.09.09 0 0 1 0 .1l-2 4.94a.2.2 0 0 1-.22.15H322a.23.23 0 0 1-.24-.14l-2-4.95a.11.11 0 0 1 0-.1c.016-.031.05-.05.1-.05h.61a.17.17 0 0 1 .1 0 .1.1 0 0 1 .06.08l1.55 3.88c.05.13.1.12.16 0l1.54-3.87s0-.07.05-.08a.17.17 0 0 1 .1 0zm2 5.07a.18.18 0 0 1 0 .14c-.019.045-.06 0-.14 0h-.5a.17.17 0 0 1-.12 0 .16.16 0 0 1 0-.11v-5c0-.1 0-.14.12-.14h.6c.07 0 .11 0 .11.13zm0-6.2c0 .13-.06.19-.17.19h-.58-.12a.25.25 0 0 1 0-.13v-.83c0-.11 0-.16.14-.16h.62c.1 0 .14.05.14.15zm4.51 5.74a2.82 2.82 0 0 1-.8.54 2.42 2.42 0 0 1-1 .19 1.72 1.72 0 0 1-1.21-.4 1.34 1.34 0 0 1-.44-1 1.4 1.4 0 0 1 .3-.9 2 2 0 0 1 .88-.6 5 5 0 0 1 1.43-.28l.78-.06a.21.21 0 0 0 .1 0c.033-.008.05-.05.05-.1v-.27a1.08 1.08 0 0 0-.33-.84 1.24 1.24 0 0 0-.89-.32 1.6 1.6 0 0 0-.79.2 2 2 0 0 0-.63.59.15.15 0 0 1-.07.07c-.031.015 0 0-.08 0l-.53-.18a.12.12 0 0 1-.05-.05.19.19 0 0 1 0-.1 2 2 0 0 1 .83-.81 2.71 2.71 0 0 1 1.32-.3 2.51 2.51 0 0 1 1.1.21 1.3 1.3 0 0 1 .66.58 1.63 1.63 0 0 1 .23.9v3.5a.17.17 0 0 1 0 .12.13.13 0 0 1-.1 0h-.5a.13.13 0 0 1-.1 0 .34.34 0 0 1 0-.12v-.46c.01-.19-.04-.19-.13-.11zm.13-1.88c0-.12 0-.17-.14-.16l-.65.06a3.21 3.21 0 0 0-.81.12 2.28 2.28 0 0 0-.61.23 1.16 1.16 0 0 0-.37.36.88.88 0 0 0-.13.46.86.86 0 0 0 .3.69 1.35 1.35 0 0 0 .82.23 1.52 1.52 0 0 0 .6-.11 1.58 1.58 0 0 0 .51-.29 1.37 1.37 0 0 0 .35-.39.67.67 0 0 0 .13-.38zm2.41 2.51c-.09 0-.14 0-.14-.13v-5c0-.09 0-.13.11-.13h.6c.07 0 .1 0 .1.11v.57a.08.08 0 0 0 0 .06c.008.019 0 0 .08 0a6.47 6.47 0 0 1 .6-.44 2.34 2.34 0 0 1 .58-.27 1.89 1.89 0 0 1 .63-.1 1.6 1.6 0 0 1 1.18.41 1.46 1.46 0 0 1 .42 1.08v3.69c0 .11-.05.16-.15.16H337a.15.15 0 0 1-.1 0 .29.29 0 0 1 0-.1v-3.53a1.09 1.09 0 0 0-.24-.75 1 1 0 0 0-.78-.28 1.49 1.49 0 0 0-.55.1 2.24 2.24 0 0 0-.5.27 5.34 5.34 0 0 0-.58.43v3.74a.13.13 0 0 1-.15.15zm7.41-7.23a.19.19 0 0 1 0-.08.13.13 0 0 1 .1 0h5.32.08a.11.11 0 0 1 0 .08v.51c0 .07 0 .1-.11.1h-2c-.08 0-.11 0-.11.1v6.39c0 .09 0 .13-.12.13h-.71c-.08 0-.12 0-.12-.13v-6.38c0-.07 0-.11-.1-.11H341c-.08 0-.12 0-.12-.1zm7.87 7.33a2.59 2.59 0 0 1-1.32-.34 2.44 2.44 0 0 1-.88-.95 3.17 3.17 0 0 1-.31-1.4 3.12 3.12 0 0 1 .32-1.44 2.6 2.6 0 0 1 .89-1 2.46 2.46 0 0 1 1.31-.34 2.41 2.41 0 0 1 1.3.35 2.33 2.33 0 0 1 .87 1 3.27 3.27 0 0 1 0 2.82 2.39 2.39 0 0 1-2.18 1.3zm0-.63a1.6 1.6 0 0 0 .89-.24 1.65 1.65 0 0 0 .55-.73 2.91 2.91 0 0 0 .2-1.12 2.88 2.88 0 0 0-.2-1.12 1.61 1.61 0 0 0-.56-.73 1.52 1.52 0 0 0-.88-.26 1.58 1.58 0 0 0-.89.26 1.72 1.72 0 0 0-.58.73 3.37 3.37 0 0 0 0 2.23 1.75 1.75 0 0 0 .58.74 1.65 1.65 0 0 0 .94.24zm7.44.53a.2.2 0 0 1-.11 0 .18.18 0 0 1 0-.11v-.42-.08h-.09l-.31.27a2.21 2.21 0 0 1-.51.3 2 2 0 0 1-.73.13 2.11 2.11 0 0 1-1.12-.3 2.19 2.19 0 0 1-.79-.88 3.36 3.36 0 0 1-.29-1.46 3.54 3.54 0 0 1 .29-1.47 2.4 2.4 0 0 1 .82-1 2.2 2.2 0 0 1 1.21-.35 1.8 1.8 0 0 1 .81.16 2.31 2.31 0 0 1 .57.36q.09.07.12.06v-.13-2.29c0-.09 0-.13.11-.13h.6c.07 0 .11 0 .11.13v7.05a.23.23 0 0 1 0 .13.17.17 0 0 1-.12 0zm-.17-4.09a2.6 2.6 0 0 0-.62-.47 1.52 1.52 0 0 0-.71-.17 1.5 1.5 0 0 0-.86.25 1.6 1.6 0 0 0-.6.72 3 3 0 0 0-.21 1.19 2.86 2.86 0 0 0 .22 1.18 1.53 1.53 0 0 0 .59.68 1.64 1.64 0 0 0 .8.2 1.39 1.39 0 0 0 .71-.18 1.47 1.47 0 0 0 .49-.47.91.91 0 0 0 .19-.54zm3.19 3.92a.18.18 0 0 1 0 .14c-.019.045-.06 0-.14 0h-.5a.17.17 0 0 1-.12 0 .16.16 0 0 1 0-.11v-5c0-.1 0-.14.12-.14h.61c.06 0 .1 0 .1.13zm0-6.2c0 .13-.06.19-.18.19h-.57-.12a.25.25 0 0 1 0-.13v-.83c0-.11.05-.16.14-.16h.62c.09 0 .14.05.14.15zm1.64 6.37a.24.24 0 0 1-.12 0 .3.3 0 0 1 0-.1v-5c0-.09 0-.13.1-.13h.58a.1.1 0 0 1 .11.11v.64.07h.08a3.36 3.36 0 0 1 .5-.5 1.76 1.76 0 0 1 .52-.28 1.32 1.32 0 0 1 .51-.1c.23 0 .34 0 .34.13v.59c0 .07 0 .09-.08.08h-.21-.24a1.13 1.13 0 0 0-.46.1 1.56 1.56 0 0 0-.47.26 1.75 1.75 0 0 0-.35.37.76.76 0 0 0-.13.42v3.27a.13.13 0 0 1-.15.15zm5.42-.56a1.54 1.54 0 0 0 .81-.22 3.76 3.76 0 0 0 .79-.64v-3.67a.13.13 0 0 1 .15-.15h.54c.1 0 .15 0 .15.14v5c0 .09 0 .13-.1.13h-.58a.1.1 0 0 1-.11-.11v-.58-.06h-.07a3.73 3.73 0 0 1-1 .64 2 2 0 0 1-.82.18 1.73 1.73 0 0 1-.81-.19 1.46 1.46 0 0 1-.57-.53 1.49 1.49 0 0 1-.21-.8v-3.66c0-.11.05-.16.15-.16h.55c.09 0 .13 0 .13.14v3.47a1.12 1.12 0 0 0 .27.78 1 1 0 0 0 .82.29zm5.33-4.06a.07.07 0 0 0-.08.08v3.13a.9.9 0 0 0 .16.63.65.65 0 0 0 .47.15h.81a.08.08 0 0 1 .07 0 .08.08 0 0 1 0 .08v.34c0 .07 0 .11-.12.13h-.29-.36-.3a1.24 1.24 0 0 1-.91-.29 1.31 1.31 0 0 1-.29-.93v-3.3c0-.07 0-.1-.1-.1h-.79a.1.1 0 0 1-.11-.11v-.41a.09.09 0 0 1 .1-.1h.84c.05 0 .07 0 .07-.08l.11-1.57c0-.09.05-.13.11-.13h.49c.08 0 .12 0 .12.14v1.56a.07.07 0 0 0 .08.08H373c.07 0 .1 0 .1.09v.42c0 .07 0 .11-.1.11zm-214 12.23a.41.41 0 0 1 0-.1h.09 4.36c.07 0 .1 0 .08.11l-.07.52a.34.34 0 0 1 0 .08c-.003.027 0 0-.1 0h-3.4a.12.12 0 0 0-.09 0 .41.41 0 0 0 0 .1l-.34 2.43a.11.11 0 0 0 0 .08c.01.026 0 0 .08 0h2.67.06v.06.54a.2.2 0 0 1 0 .08h-.08-2.67-.08c-.01 0 0 0 0 .09l-.42 3a.1.1 0 0 1 0 .09h-.1-.71a.13.13 0 0 1-.1 0 .88.88 0 0 1 0-.14zm6.17 7.32a2.3 2.3 0 0 1-1.17-.28 1.85 1.85 0 0 1-.76-.78 2.6 2.6 0 0 1-.26-1.18 3.5 3.5 0 0 1 .23-1.27 3.06 3.06 0 0 1 .62-1 2.87 2.87 0 0 1 .92-.67 2.72 2.72 0 0 1 1.12-.24 2.31 2.31 0 0 1 1.17.29 1.85 1.85 0 0 1 .74.8 2.51 2.51 0 0 1 .26 1.19 3.42 3.42 0 0 1-.38 1.64 2.93 2.93 0 0 1-1 1.11 2.69 2.69 0 0 1-1.44.39zm0-.62a1.68 1.68 0 0 0 1-.33 2.15 2.15 0 0 0 .72-.92 3.58 3.58 0 0 0 .26-1.41 1.63 1.63 0 0 0-.35-1.13 1.23 1.23 0 0 0-1-.42 1.67 1.67 0 0 0-1 .34 2.24 2.24 0 0 0-.74.93 3.33 3.33 0 0 0-.27 1.4 1.67 1.67 0 0 0 .36 1.13 1.3 1.3 0 0 0 1.1.41zm3.83.52a.14.14 0 0 1-.11 0 .12.12 0 0 1 0-.12l.7-5a.22.22 0 0 1 0-.08h.07.7a.11.11 0 0 1 .08 0c.026.01 0 .05 0 .11l-.09.56v.08c0 .01.05 0 .08 0a3.42 3.42 0 0 1 .58-.48 1.71 1.71 0 0 1 .54-.27 1.61 1.61 0 0 1 .51-.09.94.94 0 0 1 .28 0c.06 0 .09.05.08.1l-.08.58a.08.08 0 0 1 0 .07c-.011.022 0 0 0 0h-.44a1.34 1.34 0 0 0-.49.1 2.78 2.78 0 0 0-.51.27 1.93 1.93 0 0 0-.42.38.87.87 0 0 0-.19.43l-.46 3.27a.19.19 0 0 1 0 .1h-.12zm5.73.1a2.3 2.3 0 0 1-1.17-.28 1.88 1.88 0 0 1-.76-.77 2.48 2.48 0 0 1-.27-1.18 3.61 3.61 0 0 1 .2-1.18 3.14 3.14 0 0 1 .57-1 2.77 2.77 0 0 1 .91-.72 2.53 2.53 0 0 1 1.2-.28 2.28 2.28 0 0 1 1.11.26 1.73 1.73 0 0 1 .71.73 2.47 2.47 0 0 1 .25 1.17 2.72 2.72 0 0 1 0 .28 1.5 1.5 0 0 1 0 .29.21.21 0 0 1 0 .13.33.33 0 0 1-.15 0h-3.75c-.05 0-.09 0-.11.1a1.24 1.24 0 0 0 0 .34 1.43 1.43 0 0 0 .41 1.08 1.47 1.47 0 0 0 1.05.39 2 2 0 0 0 .93-.21 2.22 2.22 0 0 0 .75-.63.07.07 0 0 1 .07 0h.07l.39.21a.11.11 0 0 1 0 .17 3.28 3.28 0 0 1-.68.63 2.78 2.78 0 0 1-.76.36 3.56 3.56 0 0 1-.89.11zm1.76-3.07a.17.17 0 0 0 .15-.08.67.67 0 0 0 .06-.36 1.36 1.36 0 0 0-.34-1 1.24 1.24 0 0 0-1-.38 1.77 1.77 0 0 0-.94.26 2.11 2.11 0 0 0-.66.67 2.14 2.14 0 0 0-.31.85zm9-2.27a.11.11 0 0 1 .1.06.14.14 0 0 1 0 .11l-2.22 5q0 .08-.06.09h-.12-.47c-.13 0-.2-.05-.2-.15l-.66-3.7c0-.06 0-.08-.06-.07a.27.27 0 0 0-.06.11l-1.65 3.7a.17.17 0 0 1-.06.09h-.12-.5c-.13 0-.19-.05-.19-.15l-.88-5c0-.09 0-.13.11-.13h.58a.13.13 0 0 1 .1 0c.032.013 0 0 0 .09l.65 3.84c0 .07 0 .1.06.08a.29.29 0 0 0 .08-.13l1.72-3.84a.13.13 0 0 1 .13-.08h.46a.13.13 0 0 1 .1 0 .11.11 0 0 1 0 .09l.69 3.84c0 .07 0 .1.05.08a.22.22 0 0 0 .08-.13l1.68-3.84a.21.21 0 0 1 .17-.08zm2.49 5.34a2.3 2.3 0 0 1-1.17-.28 1.85 1.85 0 0 1-.76-.78 2.59 2.59 0 0 1-.25-1.18 3.49 3.49 0 0 1 .22-1.27 2.93 2.93 0 0 1 .63-1 2.76 2.76 0 0 1 .92-.67 2.64 2.64 0 0 1 1.11-.24 2.25 2.25 0 0 1 1.17.29 1.85 1.85 0 0 1 .74.8 2.52 2.52 0 0 1 .27 1.19 3.42 3.42 0 0 1-.39 1.64 2.85 2.85 0 0 1-1 1.11 2.69 2.69 0 0 1-1.36.39zm0-.62a1.71 1.71 0 0 0 1-.33 2.21 2.21 0 0 0 .71-.92 3.41 3.41 0 0 0 .27-1.41 1.63 1.63 0 0 0-.36-1.13 1.22 1.22 0 0 0-1-.42 1.67 1.67 0 0 0-1 .34 2.32 2.32 0 0 0-.74.93 3.5 3.5 0 0 0-.26 1.4 1.66 1.66 0 0 0 .35 1.13 1.33 1.33 0 0 0 1.19.41zm3.83.52a.15.15 0 0 1-.11 0 .21.21 0 0 1 0-.12l.71-5v-.08a.1.1 0 0 1 .07 0h.58a.12.12 0 0 1 .09 0c.029.012 0 .05 0 .11l-.09.56v.08c0 .01 0 0 .08 0a3.82 3.82 0 0 1 .57-.48 1.86 1.86 0 0 1 .55-.27 1.51 1.51 0 0 1 .5-.09 1 1 0 0 1 .29 0c.06 0 .08.05.08.1l-.08.58a.24.24 0 0 1 0 .07c-.003.023 0 0 0 0h-.45a1.33 1.33 0 0 0-.48.1 2.86 2.86 0 0 0-.52.27 1.87 1.87 0 0 0-.41.38.89.89 0 0 0-.2.43l-.45 3.27a.19.19 0 0 1 0 .1h-.12zm7.25 0a.27.27 0 0 1-.12 0 .13.13 0 0 1 0-.11l.06-.42v-.08s-.05 0-.11.07l-.34.26a2.47 2.47 0 0 1-.54.29 2 2 0 0 1-.74.12 1.85 1.85 0 0 1-1.36-.53 2.08 2.08 0 0 1-.54-1.56 4 4 0 0 1 .18-1.19 3.62 3.62 0 0 1 .53-1.08 2.53 2.53 0 0 1 .85-.78 2.19 2.19 0 0 1 1.15-.3 1.51 1.51 0 0 1 .8.18 2.39 2.39 0 0 1 .52.37c.05.06.09.08.13.06s0-.08.07-.17l.32-2.33v-.08a.12.12 0 0 1 .09 0h.6c.08 0 .11.05.1.15l-1 7.05a.17.17 0 0 1 0 .12h-.12zm.41-4.1a1.87 1.87 0 0 0-.56-.47 1.45 1.45 0 0 0-.55-.17 1.68 1.68 0 0 0-.89.25 2.09 2.09 0 0 0-.64.65 3.39 3.39 0 0 0-.39.89 3.86 3.86 0 0 0-.13.93 1.8 1.8 0 0 0 .18.86 1.16 1.16 0 0 0 .48.5 1.51 1.51 0 0 0 .68.15 1.61 1.61 0 0 0 .75-.19 1.84 1.84 0 0 0 .58-.48 1.13 1.13 0 0 0 .27-.55zm3.52 4.2a2.71 2.71 0 0 1-1.36-.32 1.61 1.61 0 0 1-.73-.81v-.15l.38-.2a.19.19 0 0 1 .1 0c.033.009.05 0 .07.06a1.42 1.42 0 0 0 .54.6 1.84 1.84 0 0 0 1 .23 4.09 4.09 0 0 0 .46 0 2.81 2.81 0 0 0 .49-.16 1.26 1.26 0 0 0 .41-.29.69.69 0 0 0 .16-.45.57.57 0 0 0-.21-.43 1.68 1.68 0 0 0-.66-.32l-1-.27a2.13 2.13 0 0 1-.91-.48 1 1 0 0 1-.27-.69 1.44 1.44 0 0 1 .32-.93 1.89 1.89 0 0 1 .82-.58 2.92 2.92 0 0 1 1.08-.2 2.28 2.28 0 0 1 1.15.27 1.61 1.61 0 0 1 .7.69.08.08 0 0 1 0 .08c-.014.025 0 0-.05.06l-.38.19h-.08a.59.59 0 0 1-.08-.08 1.18 1.18 0 0 0-.5-.46 1.67 1.67 0 0 0-.81-.18 2.42 2.42 0 0 0-.63.1 1.49 1.49 0 0 0-.55.31.64.64 0 0 0-.22.51.54.54 0 0 0 .14.35 1.64 1.64 0 0 0 .56.3l1.2.36a1.57 1.57 0 0 1 .85.5 1.07 1.07 0 0 1 .28.74 1.31 1.31 0 0 1-.21.74 1.82 1.82 0 0 1-.54.53 2.78 2.78 0 0 1-.75.32 3.21 3.21 0 0 1-.61.06zm5.59-.1a.14.14 0 0 1-.12-.05.2.2 0 0 1 0-.14l1-7a.1.1 0 0 1 .11-.11h.79a.07.07 0 0 1 .07.05.34.34 0 0 1 0 .11l-.34 2.4v.09s.05 0 .1-.07l.33-.21a2.63 2.63 0 0 1 1.32-.37 1.79 1.79 0 0 1 1 .27 1.49 1.49 0 0 1 .58.74 2.77 2.77 0 0 1 .2 1.08 4.34 4.34 0 0 1-.16 1.17 3.67 3.67 0 0 1-.47 1.09 2.58 2.58 0 0 1-.82.79 2.32 2.32 0 0 1-1.2.3 1.82 1.82 0 0 1-.75-.14 1.74 1.74 0 0 1-.49-.33 2.82 2.82 0 0 1-.26-.32c-.079-.113 0-.05-.07 0s0 0-.06.09l-.12.49a.16.16 0 0 1 0 .11.19.19 0 0 1-.13 0zm.91-1.75a1 1 0 0 0 .1.64 1.32 1.32 0 0 0 .45.46 1.4 1.4 0 0 0 .64.15 1.57 1.57 0 0 0 .88-.24 2.07 2.07 0 0 0 .61-.67 3.18 3.18 0 0 0 .35-.9 4 4 0 0 0 .12-.94 1.7 1.7 0 0 0-.31-1.1 1.07 1.07 0 0 0-.92-.39 1.9 1.9 0 0 0-.89.23 3.17 3.17 0 0 0-.71.52zm4.64 3.38h-.42c-.1 0-.15-.05-.14-.11v-.38a.13.13 0 0 1 .09-.1.66.66 0 0 1 .24 0h.59a.7.7 0 0 0 .42-.15 1.42 1.42 0 0 0 .34-.35 1.1 1.1 0 0 0 .22-.43.67.67 0 0 0 0-.39l-1.24-4.72c0-.13 0-.19.11-.19h.67c.08 0 .12 0 .13.09l.95 3.83c0 .07 0 .1.07.1s.07 0 .12-.12l2-3.77a.2.2 0 0 1 .07-.1.12.12 0 0 1 .09 0h.47c.09 0 .1 0 0 .12l-3 5.56a2.66 2.66 0 0 1-.39.58 1.34 1.34 0 0 1-.44.36 1.22 1.22 0 0 1-.49.19 2.77 2.77 0 0 1-.3-.02zm10.3-1.53a2.78 2.78 0 0 1-1.43-.35 2.25 2.25 0 0 1-.89-1 3.53 3.53 0 0 1-.31-1.56 6.27 6.27 0 0 1 .24-1.75 4.78 4.78 0 0 1 .71-1.47 3.35 3.35 0 0 1 1.14-1 3.23 3.23 0 0 1 1.57-.38 2.6 2.6 0 0 1 1.23.29 2.29 2.29 0 0 1 .87.75 1.66 1.66 0 0 1 .33 1q0 .1-.06.12l-.75.12h-.06a1.23 1.23 0 0 1 0-.13 1.45 1.45 0 0 0-.23-.69 1.37 1.37 0 0 0-.53-.51 1.77 1.77 0 0 0-.82-.18 2 2 0 0 0-1.19.34 2.78 2.78 0 0 0-.82.91 4.31 4.31 0 0 0-.48 1.29 7 7 0 0 0-.15 1.45 2.42 2.42 0 0 0 .43 1.58 1.61 1.61 0 0 0 1.3.52 2.14 2.14 0 0 0 .87-.17 2.26 2.26 0 0 0 .66-.45 2.31 2.31 0 0 0 .46-.58 2.48 2.48 0 0 0 .24-.61l.09-.59q0-.09-.09-.09h-1.62c-.06 0-.08 0-.08-.09l.06-.46c0-.05 0-.07.07-.07h2.52.08a.06.06 0 0 1 0 .07l-.49 3.51a.13.13 0 0 1-.14.11h-.22a.12.12 0 0 1-.14-.12v-.92-.05c0 .01 0 0-.08.06a2.67 2.67 0 0 1-1.29 1 3 3 0 0 1-.84.1zm5.19-.24a.17.17 0 0 1 0 .12.33.33 0 0 1-.14 0h-.5a.17.17 0 0 1-.13 0 .25.25 0 0 1 0-.13l.7-5a.22.22 0 0 1 0-.09h.08.73a.07.07 0 0 1 .07 0 .13.13 0 0 1 0 .11zm.91-6.21a.32.32 0 0 1-.05.13c-.026.039-.06 0-.14 0h-.6a.13.13 0 0 1-.11-.05.33.33 0 0 1 0-.14l.12-.82q0-.15.15-.15h.64a.09.09 0 0 1 .08.05.14.14 0 0 1 0 .13zm2.32 6.35a1.27 1.27 0 0 1-.82-.22.85.85 0 0 1-.27-.69v-.16-.17l.47-3.3v-.06h-.07-.81c-.06 0-.08 0-.07-.13l.06-.42a.08.08 0 0 1 0-.06h.91.06a.13.13 0 0 0 0-.08l.34-1.57a.11.11 0 0 1 .13-.1h.5.08c.01 0 0 .06 0 .12l-.23 1.54v.06h.06 1.24a.11.11 0 0 1 .08 0c.026.01 0 0 0 .06l-.06.44a.15.15 0 0 1 0 .07c-.006.023 0 0-.08 0H232s-.09 0-.11.11l-.44 3.13v.14.13a.48.48 0 0 0 .13.4.76.76 0 0 0 .41.09h.68a.09.09 0 0 1 .08 0 .11.11 0 0 1 0 .08l-.06.34c0 .07 0 .11-.1.12h-.29-.64zm4.87-5.34a2 2 0 0 1 .89.18 1.81 1.81 0 0 1 .63.45 2 2 0 0 1 .37.65c.081.238 0 .05 0 .07s0 0-.06 0l-.54.12a.06.06 0 0 1-.07 0l-.05-.1a2.2 2.2 0 0 0-.33-.43 1 1 0 0 0-.36-.26 1.11 1.11 0 0 0-.46-.09 1.67 1.67 0 0 0-.89.24 2.1 2.1 0 0 0-.63.63 3.49 3.49 0 0 0-.4.85 3.63 3.63 0 0 0-.12.92 1.67 1.67 0 0 0 .37 1.16 1.33 1.33 0 0 0 1 .42 1.71 1.71 0 0 0 .87-.23 2.77 2.77 0 0 0 .74-.72c.199-.284.07 0 .12 0l.4.15a.17.17 0 0 1 .06.06.14.14 0 0 1 0 .11 4.63 4.63 0 0 1-.41.49 2.46 2.46 0 0 1-.51.39 3.23 3.23 0 0 1-.63.27 2.39 2.39 0 0 1-.73.1 2.25 2.25 0 0 1-1.15-.28 1.88 1.88 0 0 1-.75-.78 2.64 2.64 0 0 1-.25-1.19 3.74 3.74 0 0 1 .18-1.15 3.33 3.33 0 0 1 .57-1 2.64 2.64 0 0 1 .9-.73 2.5 2.5 0 0 1 1.4-.3zm4.62 5.44a2.27 2.27 0 0 1-1.16-.28 1.87 1.87 0 0 1-.77-.78 2.59 2.59 0 0 1-.25-1.18 3.49 3.49 0 0 1 .22-1.27 3.09 3.09 0 0 1 .63-1 2.76 2.76 0 0 1 .92-.67 2.67 2.67 0 0 1 1.11-.24 2.25 2.25 0 0 1 1.17.29 1.85 1.85 0 0 1 .74.8 2.52 2.52 0 0 1 .27 1.19 3.42 3.42 0 0 1-.39 1.64 2.9 2.9 0 0 1-1 1.11 2.72 2.72 0 0 1-1.33.39zm0-.62a1.71 1.71 0 0 0 1-.33 2.21 2.21 0 0 0 .71-.92 3.41 3.41 0 0 0 .27-1.41 1.63 1.63 0 0 0-.36-1.13 1.22 1.22 0 0 0-1-.42 1.66 1.66 0 0 0-1 .34 2.34 2.34 0 0 0-.75.93 3.5 3.5 0 0 0-.26 1.4 1.72 1.72 0 0 0 .35 1.13 1.33 1.33 0 0 0 1.23.41zm4.53.38a.24.24 0 0 1 0 .12h-.14-.37a.15.15 0 0 1-.12 0 .18.18 0 0 1 0-.13l.7-5q0-.08 0-.09h.08.62.08a.13.13 0 0 1 0 .11zm.91-6.21a.59.59 0 0 1-.05.13c-.022.041-.07 0-.14 0h-.6a.12.12 0 0 1-.11-.05.17.17 0 0 1 0-.14l.12-.82c0-.1.06-.15.14-.15h.65a.1.1 0 0 1 .08.05.18.18 0 0 1 0 .13zm.73 6.35a.1.1 0 0 1-.09 0 .22.22 0 0 1 0-.12l.7-5a.22.22 0 0 1 0-.08h.07.63.07v.09l-.08.56c0 .07 0 .08.08 0a4.3 4.3 0 0 1 .93-.58 2.29 2.29 0 0 1 1-.22 1.49 1.49 0 0 1 1.06.35 1.2 1.2 0 0 1 .37.91v.12.14l-.53 3.69a.16.16 0 0 1 0 .11h-.1-.58a.1.1 0 0 1-.09 0 .16.16 0 0 1 0-.12l.5-3.51v-.13-.12a.74.74 0 0 0-.21-.57 1 1 0 0 0-.66-.2 1.81 1.81 0 0 0-.58.1 2.38 2.38 0 0 0-.55.28l-.63.44-.54 3.75a.13.13 0 0 1 0 .1h-.12zm6 0a.16.16 0 0 1-.11-.05.25.25 0 0 1 0-.13l1-7.06a.28.28 0 0 1 .05-.08h.1 1.49a4.77 4.77 0 0 1 1.95.34 2.35 2.35 0 0 1 1.15 1 2.93 2.93 0 0 1 .37 1.54 5.32 5.32 0 0 1-.5 2.43 3.52 3.52 0 0 1-1.49 1.54 5.21 5.21 0 0 1-2.46.53zm1.56-.71a3.78 3.78 0 0 0 2-.45 2.65 2.65 0 0 0 1.1-1.3 5.62 5.62 0 0 0 .35-2.08 2.33 2.33 0 0 0-.16-1.2 1.58 1.58 0 0 0-.84-.65 4.3 4.3 0 0 0-1.41-.2h-.61c-.08 0-.12.05-.14.13l-.77 5.63a.41.41 0 0 0 0 .12.13.13 0 0 0 .1 0zm4.56.71a.08.08 0 0 1-.08-.05.19.19 0 0 1 0-.14l3.56-7a.38.38 0 0 1 .09-.09.23.23 0 0 1 .13 0H264a.2.2 0 0 1 .14.05.33.33 0 0 1 .05.12l1.55 7a.2.2 0 0 1 0 .11c-.01.036 0 0-.09 0h-.7c-.09 0-.13 0-.14-.13l-.43-1.9s0-.07-.09-.07h-2.88a.14.14 0 0 0-.13.09l-1 1.94a.09.09 0 0 1 0 .06h-.73zm4.62-2.85c.08 0 .11 0 .09-.13l-.74-3.25c0-.07 0-.1-.05-.09s-.06 0-.09.11l-1.65 3.23a.45.45 0 0 0 0 .11c.004.037 0 0 .05 0zm5.41 2.95a2.89 2.89 0 0 1-1.46-.34 2.19 2.19 0 0 1-.92-1 3.57 3.57 0 0 1-.32-1.57v-.43c0-.15 0-.31.05-.46a5.83 5.83 0 0 1 .66-2 3.41 3.41 0 0 1 1.26-1.27 3.31 3.31 0 0 1 1.71-.45 2.86 2.86 0 0 1 1.45.35 2.18 2.18 0 0 1 .92 1 3.65 3.65 0 0 1 .32 1.6v.43.45a5.4 5.4 0 0 1-.66 2 3.41 3.41 0 0 1-1.24 1.26 3.35 3.35 0 0 1-1.58.43zm.05-.72a2.13 2.13 0 0 0 1.72-.76 4.34 4.34 0 0 0 .87-2.31 4.87 4.87 0 0 0 .05-.51v-.47a2.32 2.32 0 0 0-.43-1.54 1.63 1.63 0 0 0-1.31-.5 2.19 2.19 0 0 0-1.74.77 4.5 4.5 0 0 0-.89 2.34 4.66 4.66 0 0 0-.06.49v.45a2.24 2.24 0 0 0 .45 1.53 1.66 1.66 0 0 0 1.53.51zm3.37 2c-.05 0-.06 0 0-.12l.62-1.11a.26.26 0 0 0 0-.14.11.11 0 0 0-.1 0h-.14a.14.14 0 0 1-.09 0 .09.09 0 0 1 0-.08l.13-.88a.16.16 0 0 1 0-.09.12.12 0 0 1 .09 0h.82c.07 0 .09 0 .08.12l-.12.76v.09.06l-.92 1.36a.31.31 0 0 1-.1.1.16.16 0 0 1-.11 0zm7.66-1.31a2.84 2.84 0 0 1-1.44-.35 2.31 2.31 0 0 1-.89-1 3.68 3.68 0 0 1-.3-1.56 6.27 6.27 0 0 1 .23-1.75 5 5 0 0 1 .71-1.47 3.38 3.38 0 0 1 1.15-1 3.22 3.22 0 0 1 1.56-.38 2.61 2.61 0 0 1 1.24.29 2.29 2.29 0 0 1 .87.75 1.66 1.66 0 0 1 .33 1q0 .1-.06.12l-.75.12h-.06a.39.39 0 0 1 0-.13 1.53 1.53 0 0 0-.76-1.2 1.81 1.81 0 0 0-.83-.18 2 2 0 0 0-1.18.34 2.67 2.67 0 0 0-.82.91 4.61 4.61 0 0 0-.49 1.29 7 7 0 0 0-.15 1.45 2.42 2.42 0 0 0 .44 1.58 1.6 1.6 0 0 0 1.29.52 2.14 2.14 0 0 0 .87-.17 2.46 2.46 0 0 0 .67-.45 2.06 2.06 0 0 0 .45-.58 2.54 2.54 0 0 0 .25-.61l.09-.59q0-.09-.09-.09h-1.62c-.06 0-.09 0-.08-.09l.06-.46a.06.06 0 0 1 .07-.07h2.52a.1.1 0 0 1 .08 0c.026.011 0 0 0 .07l-.5 3.51c0 .07-.05.11-.14.11h-.21a.12.12 0 0 1-.14-.12v-.92-.05c0 .01-.05 0-.08.06a2.78 2.78 0 0 1-.53.56 2.59 2.59 0 0 1-.77.42 3 3 0 0 1-.8.15zm5.19-.24a.24.24 0 0 1 0 .12.31.31 0 0 1-.13 0h-.51-.13a.18.18 0 0 1 0-.13l1-7.06a.12.12 0 0 1 0-.09.13.13 0 0 1 .08 0h.61c.08 0 .11.05.09.14zm3.74.24a2.36 2.36 0 0 1-1.17-.28 1.88 1.88 0 0 1-.76-.77 2.48 2.48 0 0 1-.27-1.18 3.61 3.61 0 0 1 .2-1.18 3 3 0 0 1 .58-1 2.67 2.67 0 0 1 .91-.72 2.46 2.46 0 0 1 1.19-.28 2.28 2.28 0 0 1 1.11.26 1.62 1.62 0 0 1 .71.73 2.47 2.47 0 0 1 .26 1.17v.28.29a.31.31 0 0 1-.06.13.27.27 0 0 1-.15 0h-3.75c-.05 0-.09 0-.11.1a1.24 1.24 0 0 0 0 .34 1.43 1.43 0 0 0 .41 1.08 1.49 1.49 0 0 0 1.06.39 2 2 0 0 0 .93-.21 2.29 2.29 0 0 0 .74-.63.08.08 0 0 1 .08 0h.07l.38.21a.1.1 0 0 1 0 .17 2.85 2.85 0 0 1-.68.63 2.78 2.78 0 0 1-.76.36 3.56 3.56 0 0 1-.73.14zm1.76-3.07a.18.18 0 0 0 .16-.08.67.67 0 0 0 .06-.36 1.37 1.37 0 0 0-.35-1 1.24 1.24 0 0 0-1-.38 1.77 1.77 0 0 0-.94.26 2.11 2.11 0 0 0-.66.67 2.14 2.14 0 0 0-.31.85zm1.89 3a.1.1 0 0 1-.09 0 .16.16 0 0 1 0-.12l.7-5a.22.22 0 0 1 0-.08h.07.62a.1.1 0 0 1 .07 0c.023.008 0 0 0 .09l-.08.56c0 .07 0 .08.08 0a4.61 4.61 0 0 1 .94-.58 2.26 2.26 0 0 1 1-.22 1.5 1.5 0 0 1 1.06.35 1.2 1.2 0 0 1 .36.91.49.49 0 0 1 0 .12.71.71 0 0 1 0 .14l-.52 3.69a.23.23 0 0 1 0 .11h-.11-.57a.1.1 0 0 1-.09 0 .16.16 0 0 1 0-.12l.49-3.51a.62.62 0 0 0 0-.13.49.49 0 0 0 0-.12.77.77 0 0 0-.2-.57 1 1 0 0 0-.67-.2 1.8 1.8 0 0 0-.57.1 2.2 2.2 0 0 0-.55.28l-.64.44-.53 3.75a.19.19 0 0 1 0 .1h-.12zm17.79-7.34c.07 0 .11 0 .12.05a.3.3 0 0 1 0 .15l-3 7a.35.35 0 0 1-.08.11h-.14-.6a.33.33 0 0 1-.15 0 .21.21 0 0 1-.07-.11l-.79-5.59v-.05.05l-2.41 5.6a.24.24 0 0 1-.08.11h-.14-.62c-.13 0-.19-.05-.2-.15l-1-7a.16.16 0 0 1 0-.12.17.17 0 0 1 .12 0h.63a.17.17 0 0 1 .12 0 .19.19 0 0 1 0 .1l.81 5.74c0 .06 0 .08.05.08s0 0 .07-.08l2.46-5.79a.1.1 0 0 1 .05-.07.31.31 0 0 1 .13 0h.57a.14.14 0 0 1 .11 0 .19.19 0 0 1 0 .1l.82 5.77v.07l.07-.09 2.45-5.8a.14.14 0 0 1 .06-.07h.11zm1.88 7.44a2.36 2.36 0 0 1-1.17-.28 1.88 1.88 0 0 1-.76-.77 2.48 2.48 0 0 1-.27-1.18 3.61 3.61 0 0 1 .2-1.18 3 3 0 0 1 .58-1 2.63 2.63 0 0 1 .9-.72 2.53 2.53 0 0 1 1.2-.28 2.28 2.28 0 0 1 1.11.26 1.67 1.67 0 0 1 .71.73 2.47 2.47 0 0 1 .26 1.17v.28.29a.31.31 0 0 1-.06.13.33.33 0 0 1-.15 0h-3.75c-.05 0-.09 0-.1.1a.88.88 0 0 0 0 .34 1.43 1.43 0 0 0 .41 1.08 1.47 1.47 0 0 0 1.06.39 2 2 0 0 0 .93-.21 2.29 2.29 0 0 0 .74-.63.08.08 0 0 1 .08 0h.07l.38.21a.11.11 0 0 1 0 .17 2.85 2.85 0 0 1-.68.63 2.78 2.78 0 0 1-.76.36 3.62 3.62 0 0 1-.74.11zm1.76-3.07a.17.17 0 0 0 .16-.08.7.7 0 0 0 .05-.36 1.36 1.36 0 0 0-.34-1 1.24 1.24 0 0 0-1-.38 1.77 1.77 0 0 0-.94.26 2.11 2.11 0 0 0-.66.67 2.14 2.14 0 0 0-.31.85zm1.64 4.6h-.43c-.1 0-.15-.05-.14-.11l.05-.38a.12.12 0 0 1 .09-.1.6.6 0 0 1 .23 0h.6a.7.7 0 0 0 .42-.15 1.42 1.42 0 0 0 .34-.35 1.1 1.1 0 0 0 .22-.43.77.77 0 0 0 0-.39l-1.24-4.72c0-.13 0-.19.11-.19h.67c.08 0 .12 0 .13.09l.95 3.83c0 .07 0 .1.07.1s.07 0 .12-.12l2-3.77a.2.2 0 0 1 .07-.1.11.11 0 0 1 .08 0h.48c.08 0 .1 0 .05.12l-3 5.56a2.66 2.66 0 0 1-.39.58 1.34 1.34 0 0 1-.44.36 1.22 1.22 0 0 1-.49.19 2.74 2.74 0 0 1-.36-.02zm6.06-1.77a.24.24 0 0 1 0 .12h-.13-.51-.13a.18.18 0 0 1 0-.13l1-7.06a.12.12 0 0 1 0-.09h.07.62c.07 0 .11.05.09.14zm1 1.55c-.06 0-.07 0 0-.12l.61-1.11v-.14c0-.03-.05 0-.09 0h-.15-.08v-.08l.13-.88a.32.32 0 0 1 0-.09.12.12 0 0 1 .09 0h.82c.07 0 .1 0 .08.12l-.11.76a.32.32 0 0 0 0 .09.08.08 0 0 1 0 .06l-.92 1.36-.1.1a.18.18 0 0 1-.11 0zm11.43-8.75c.08 0 .1.05.07.14l-3.53 7.07a.24.24 0 0 1-.08.11h-.13-.68-.14a.18.18 0 0 1-.07-.11l-1.49-7.08c0-.08 0-.13.12-.13h.69c.08 0 .13.05.15.14l1.22 6c0 .12.06.13.12 0l3-6s0-.06.05-.07h.1zm1.09 7.2a.25.25 0 0 1 0 .12.4.4 0 0 1-.15 0h-.5a.17.17 0 0 1-.13 0 .25.25 0 0 1 0-.13l.7-5a.85.85 0 0 1 0-.09h.08.63.08a.18.18 0 0 1 0 .11zm.91-6.21a.22.22 0 0 1-.05.13c-.03.037-.06 0-.13 0H336a.13.13 0 0 1-.11-.05.33.33 0 0 1 0-.14l.12-.82q0-.15.15-.15h.64a.1.1 0 0 1 .08.05.14.14 0 0 1 0 .13zm2.32 6.35a1.27 1.27 0 0 1-.82-.22.85.85 0 0 1-.27-.69v-.16-.17l.47-3.3v-.06h-.06-.81c-.05 0-.08 0-.07-.13l.05-.42v-.06h.91a.11.11 0 0 0 .07 0c.023-.008 0-.05 0-.08l.33-1.57a.11.11 0 0 1 .13-.1h.51a.07.07 0 0 1 .07 0c.022.013 0 .06 0 .12l-.23 1.54v.06h.05 1.24a.1.1 0 0 1 .08 0l-.06.44v.07c0 .01 0 0-.08 0h-1.25c-.06 0-.1 0-.13.11l-.43 3.13a.59.59 0 0 1 0 .14v.13a.51.51 0 0 0 .13.4.76.76 0 0 0 .4.09h.69a.07.07 0 0 1 .07 0 .09.09 0 0 1 0 .08l-.06.34c0 .07 0 .11-.1.12h-.29-.64zm5.26-.61a3 3 0 0 1-.87.54 2.87 2.87 0 0 1-1 .17 1.66 1.66 0 0 1-1.11-.34 1.16 1.16 0 0 1-.4-.91 1.55 1.55 0 0 1 .25-.88 2 2 0 0 1 .67-.59 3.44 3.44 0 0 1 .93-.35 6.05 6.05 0 0 1 1-.15l.78-.05c.13 0 .2-.07.21-.17v-.27-.11a.37.37 0 0 0 0-.11.83.83 0 0 0-.29-.67 1.13 1.13 0 0 0-.77-.25 1.88 1.88 0 0 0-.83.2 2.26 2.26 0 0 0-.72.61c-.194.252 0 .05-.06.05h-.08l-.5-.17-.06-.06a.23.23 0 0 1 0-.14 2.43 2.43 0 0 1 .93-.77 3 3 0 0 1 1.34-.29 2.42 2.42 0 0 1 1 .18 1.22 1.22 0 0 1 .6.48 1.32 1.32 0 0 1 .2.75.76.76 0 0 1 0 .15.76.76 0 0 1 0 .15l-.48 3.51a.64.64 0 0 1 0 .1h-.1-.5a.12.12 0 0 1-.1 0 .35.35 0 0 1 0-.12v-.47c.32-.15.27-.15.19-.02zm.37-1.93a.1.1 0 0 0 0-.11c-.022-.033 0 0-.08 0l-.69.06a4.49 4.49 0 0 0-.66.09 2.58 2.58 0 0 0-.68.22 1.45 1.45 0 0 0-.55.39 1 1 0 0 0-.21.64.7.7 0 0 0 .26.56 1.17 1.17 0 0 0 .71.2 1.78 1.78 0 0 0 .65-.12 2.29 2.29 0 0 0 .56-.3 1.93 1.93 0 0 0 .41-.39.72.72 0 0 0 .18-.39zm2.75 2.4a.24.24 0 0 1 0 .12.31.31 0 0 1-.13 0h-.51-.13a.18.18 0 0 1 0-.13l1-7.06a.19.19 0 0 1 0-.09.13.13 0 0 1 .08 0h.61c.08 0 .11.05.09.14zm2.36 0a.17.17 0 0 1 0 .12h-.14-.5-.13a.18.18 0 0 1 0-.13l.7-5q0-.08 0-.09h.08.62a.08.08 0 0 1 .08 0 .13.13 0 0 1 0 .11zm.91-6.21a.22.22 0 0 1-.05.13c-.03.037-.06 0-.13 0h-.61a.11.11 0 0 1-.1-.05.17.17 0 0 1 0-.14l.11-.82q0-.15.15-.15h.65a.1.1 0 0 1 .08.05.14.14 0 0 1 0 .13zm5.14 6.21a.2.2 0 0 1 0 .1c-.008.033 0 0-.09 0h-.69a.12.12 0 0 1-.1 0 .33.33 0 0 1-.06-.1l-1.15-2.55c0-.05-.05-.05-.11 0l-1.2 1.07a.22.22 0 0 0-.07.09.37.37 0 0 0-.05.11l-.18 1.28a.17.17 0 0 1 0 .12.31.31 0 0 1-.13 0h-.5a.2.2 0 0 1-.14 0 .25.25 0 0 1 0-.13l1-7.06a.19.19 0 0 1 0-.09.1.1 0 0 1 .07 0h.62a.09.09 0 0 1 .08 0 .13.13 0 0 1 0 .11l-.63 4.6v.07l.07-.07 2.8-2.55.12-.08h.1.61c.07 0 .11 0 .13.07s0 .08-.07.14l-1.79 1.59a.23.23 0 0 0-.07.07.17.17 0 0 0 0 .1zm3.47.14h-.08a.11.11 0 0 1 0-.11l1-7.07a.15.15 0 0 1 .15-.13h2.26a3.32 3.32 0 0 1 1.86.43 1.34 1.34 0 0 1 .66 1.22 1.82 1.82 0 0 1-.41 1.22 2.49 2.49 0 0 1-1.12.69c-.05 0-.07 0-.07.05s0 0 .05.05a1.63 1.63 0 0 1 .91.51 1.26 1.26 0 0 1 .33.93 2.21 2.21 0 0 1-.25 1.08 2 2 0 0 1-.7.68 2.89 2.89 0 0 1-1 .37 6.12 6.12 0 0 1-1.14.11zm2.4-.69a4.88 4.88 0 0 0 .76-.07 2.63 2.63 0 0 0 .7-.24 1.38 1.38 0 0 0 .49-.47 1.47 1.47 0 0 0 .19-.79.88.88 0 0 0-.21-.63 1.09 1.09 0 0 0-.57-.35 2.61 2.61 0 0 0-.83-.11h-1.48a.18.18 0 0 0-.11 0 .19.19 0 0 0-.05.09l-.34 2.43v.09h.07zm.58-3.37a2.59 2.59 0 0 0 .95-.17 1.52 1.52 0 0 0 .68-.51 1.38 1.38 0 0 0 .26-.84.87.87 0 0 0-.44-.81 2.32 2.32 0 0 0-1.18-.26H361a.2.2 0 0 0-.11 0 .24.24 0 0 0 0 .1l-.33 2.35v.09a.1.1 0 0 0 .07 0zm5.16 4.16a1.53 1.53 0 0 1-1-.35 1.21 1.21 0 0 1-.38-.95v-.11a.49.49 0 0 1 0-.12l.52-3.68v-.1a.15.15 0 0 1 .1 0h.55a.15.15 0 0 1 .12.05.1.1 0 0 1 0 .11l-.48 3.47v.12.1a.85.85 0 0 0 .21.64 1 1 0 0 0 .64.2 1.73 1.73 0 0 0 .87-.24 5.84 5.84 0 0 0 .87-.64l.52-3.69a.15.15 0 0 1 .05-.1h.11.55a.11.11 0 0 1 .1.05.1.1 0 0 1 0 .11l-.71 5a.19.19 0 0 1 0 .08h-.08-.57-.09v-.09l.08-.55v-.07h-.08a4.1 4.1 0 0 1-1 .63 2.3 2.3 0 0 1-.67.13zm5.91-.1a1.26 1.26 0 0 1-.82-.22.85.85 0 0 1-.27-.69v-.16-.17l.46-3.3h-.06-.81c-.06 0-.08 0-.08-.13l.06-.42v-.06h.91a.13.13 0 0 0 .08 0 .24.24 0 0 0 0-.08l.34-1.57a.11.11 0 0 1 .13-.1h.5.08a.2.2 0 0 1 0 .12l-.23 1.54v.06h.06 1.5a.11.11 0 0 1 .08 0l-.06.44a.15.15 0 0 1 0 .07c-.006.023 0 0-.08 0h-1.26a.14.14 0 0 0-.12.11l-.43 3.13v.14.13a.48.48 0 0 0 .13.4.74.74 0 0 0 .4.09h.68.08a.12.12 0 0 1 0 .08l-.07.34a.1.1 0 0 1-.09.12h-.29-.64zm4.21.1a2.36 2.36 0 0 1-1.17-.28 1.88 1.88 0 0 1-.76-.77 2.6 2.6 0 0 1-.27-1.18 3.61 3.61 0 0 1 .2-1.18 3.35 3.35 0 0 1 .58-1 2.73 2.73 0 0 1 .9-.72 2.53 2.53 0 0 1 1.2-.28 2.28 2.28 0 0 1 1.11.26 1.62 1.62 0 0 1 .71.73 2.47 2.47 0 0 1 .26 1.17v.28.29a.31.31 0 0 1-.06.13.27.27 0 0 1-.15 0h-3.75c-.05 0-.09 0-.1.1a1.14 1.14 0 0 0 0 .34 1.43 1.43 0 0 0 .41 1.08 1.47 1.47 0 0 0 1.06.39 2 2 0 0 0 .93-.21 2.29 2.29 0 0 0 .74-.63.08.08 0 0 1 .08 0h.07l.39.21a.11.11 0 0 1 0 .17 2.85 2.85 0 0 1-.68.63 2.78 2.78 0 0 1-.76.36 3.56 3.56 0 0 1-.71.11zm1.76-3.07a.17.17 0 0 0 .16-.08.7.7 0 0 0 .05-.36 1.36 1.36 0 0 0-.34-1 1.24 1.24 0 0 0-1-.38 1.77 1.77 0 0 0-.94.26 2.22 2.22 0 0 0-.66.67 2.14 2.14 0 0 0-.31.85zm1.92 3a.13.13 0 0 1-.14-.16l.7-5a.22.22 0 0 1 0-.08h.07.58q.08 0 .09 0v.11l-.08.56v.08c0 .01 0 0 .08 0a3.34 3.34 0 0 1 .56-.48 1.86 1.86 0 0 1 .55-.27 1.56 1.56 0 0 1 .5-.09 1 1 0 0 1 .29 0c.06 0 .09.05.08.1l-.08.58v.07H384a1.34 1.34 0 0 0-.49.1 2.49 2.49 0 0 0-.51.27 1.72 1.72 0 0 0-.42.38 1 1 0 0 0-.2.43l-.45 3.27a.13.13 0 0 1 0 .1h-.12zm4.47-.14a.17.17 0 0 1 0 .12.4.4 0 0 1-.15 0h-.5a.17.17 0 0 1-.13 0 .27.27 0 0 1 0-.13l.69-5a.85.85 0 0 1 0-.09h.09.62.08a.18.18 0 0 1 0 .11zm.91-6.21a.22.22 0 0 1 0 .13c-.013.042-.06 0-.13 0h-.61a.1.1 0 0 1-.1-.05.17.17 0 0 1 0-.14l.11-.82q0-.15.15-.15h.64a.08.08 0 0 1 .08.05.12.12 0 0 1 0 .13zm.74 6.35a.1.1 0 0 1-.09 0 .22.22 0 0 1 0-.12l.7-5a.22.22 0 0 1 0-.08h.07.62.07v.09l-.08.56c0 .07 0 .08.08 0a4.61 4.61 0 0 1 .94-.58 2.29 2.29 0 0 1 1-.22 1.49 1.49 0 0 1 1.06.35 1.2 1.2 0 0 1 .37.91v.12a.36.36 0 0 1 0 .14l-.52 3.69a.16.16 0 0 1 0 .11h-.1-.58a.1.1 0 0 1-.09 0 .16.16 0 0 1 0-.12l.5-3.51v-.13a.49.49 0 0 0 0-.12.71.71 0 0 0-.21-.57.91.91 0 0 0-.66-.2 1.8 1.8 0 0 0-.57.1 2.38 2.38 0 0 0-.55.28l-.64.44-.53 3.75a.19.19 0 0 1 0 .1h-.12zm-197.84 14.8a.12.12 0 0 1-.1-.05.14.14 0 0 1 0-.13l1-7.06a.28.28 0 0 1 .05-.08h.1 1.5a4.86 4.86 0 0 1 1.94.34 2.35 2.35 0 0 1 1.15 1 2.93 2.93 0 0 1 .38 1.54 5.32 5.32 0 0 1-.51 2.43 3.47 3.47 0 0 1-1.49 1.54 5.21 5.21 0 0 1-2.46.53zm1.57-.71a3.77 3.77 0 0 0 2-.45 2.61 2.61 0 0 0 1.1-1.3 5.58 5.58 0 0 0 .35-2.08 2.27 2.27 0 0 0-.29-1.22 1.53 1.53 0 0 0-.84-.66 4.3 4.3 0 0 0-1.4-.19h-.62a.12.12 0 0 0-.13.12l-.78 5.63a.41.41 0 0 0 0 .12.15.15 0 0 0 .1 0zm8.36.1a2.65 2.65 0 0 1-1.84.71 1.64 1.64 0 0 1-1.11-.34 1.15 1.15 0 0 1-.39-.91 1.54 1.54 0 0 1 .24-.88 2 2 0 0 1 .68-.59 3.26 3.26 0 0 1 .92-.35 7.07 7.07 0 0 1 1-.14l.79-.06c.12 0 .19-.07.2-.17v-.27a.41.41 0 0 0 0-.11.37.37 0 0 0 0-.11.82.82 0 0 0-.28-.67 1.18 1.18 0 0 0-.78-.25 1.88 1.88 0 0 0-.83.2 2.39 2.39 0 0 0-.72.62c-.196.253 0 0-.06 0h-.08l-.5-.18-.06-.06v-.14a2.6 2.6 0 0 1 .93-.77 3 3 0 0 1 1.34-.29 2.39 2.39 0 0 1 1 .18 1.29 1.29 0 0 1 .61.48 1.43 1.43 0 0 1 .19.76.71.71 0 0 1 0 .14.76.76 0 0 1 0 .15l-.48 3.51a.25.25 0 0 1 0 .1h-.1-.49a.11.11 0 0 1-.1 0 .21.21 0 0 1 0-.12v-.47c.05-.08 0-.07-.08.07zm.37-1.93a.1.1 0 0 0 0-.11c-.022-.033 0 0-.08 0l-.69.06a4.49 4.49 0 0 0-.66.09 3.18 3.18 0 0 0-.68.22 1.45 1.45 0 0 0-.55.39 1 1 0 0 0-.2.65.67.67 0 0 0 .25.55 1.16 1.16 0 0 0 .72.2 1.77 1.77 0 0 0 .64-.12 2.29 2.29 0 0 0 .56-.3 2.25 2.25 0 0 0 .42-.38.94.94 0 0 0 .18-.4zm2 2.54a.1.1 0 0 1-.09 0 .16.16 0 0 1 0-.12l.7-5a.22.22 0 0 1 0-.08h.07.7a.1.1 0 0 1 .07 0c.023.008 0 0 0 .09l-.07.54c0 .07 0 .08.08 0a4.61 4.61 0 0 1 .94-.58 2.29 2.29 0 0 1 1-.22 1.49 1.49 0 0 1 1.06.35 1.2 1.2 0 0 1 .37.91v.13.13l-.53 3.69a.16.16 0 0 1 0 .11.23.23 0 0 1-.11 0h-.57a.1.1 0 0 1-.09 0 .16.16 0 0 1 0-.12l.5-3.51v-.13-.11a.74.74 0 0 0-.2-.58 1 1 0 0 0-.67-.2 1.8 1.8 0 0 0-.57.1 2.2 2.2 0 0 0-.55.28l-.64.44-.53 3.75a.19.19 0 0 1 0 .1h-.12zm5.77 0a.1.1 0 0 1-.09 0 .22.22 0 0 1 0-.12l.71-5v-.08a.1.1 0 0 1 .07 0h.62.07v.09l-.08.56c0 .07 0 .08.08 0a4.36 4.36 0 0 1 .94-.58 2.23 2.23 0 0 1 1-.22 1.46 1.46 0 0 1 1 .35 1.17 1.17 0 0 1 .37.91c0-6057.863 0-655.31 0 .26l-.52 3.69a.23.23 0 0 1 0 .11h-.11-.58-.08a.12.12 0 0 1 0-.12l.49-3.51a.57.57 0 0 0 0-.13.45.45 0 0 0 0-.11.75.75 0 0 0-.21-.58 1 1 0 0 0-.66-.2 1.7 1.7 0 0 0-.57.1 2.25 2.25 0 0 0-.56.28l-.63.44-.53 3.75a.19.19 0 0 1 0 .1H208zm5.61 1.63a2.43 2.43 0 0 1-.42 0c-.1 0-.15-.05-.14-.11l.05-.38a.13.13 0 0 1 .09-.1.62.62 0 0 1 .24 0h.59a.67.67 0 0 0 .41-.15 1.41 1.41 0 0 0 .35-.34 1.21 1.21 0 0 0 .22-.44.89.89 0 0 0 0-.39l-1.24-4.72c0-.13 0-.19.11-.19h.67c.07 0 .12 0 .13.09l.95 3.84c0 .06 0 .09.07.09s.07 0 .12-.11l2-3.78a.29.29 0 0 1 .06-.1.16.16 0 0 1 .09 0h.48c.08 0 .1 0 .05.12l-3 5.57a3 3 0 0 1-.39.57 1.46 1.46 0 0 1-.44.36 1.28 1.28 0 0 1-.49.19 2.77 2.77 0 0 1-.56-.02zm12.79-1.8c0 .11 0 .17-.11.17h-.73a.17.17 0 0 1-.1 0 .28.28 0 0 1 0-.11l-.84-3.11s0-.06-.05-.07h-.12H222q-.11 0-.12.12l-.44 3.08a.23.23 0 0 1-.05.12h-.12-.64-.11a.16.16 0 0 1 0-.12l1-7.07a.12.12 0 0 1 0-.09h.08 2.76a2.76 2.76 0 0 1 1.64.42 1.37 1.37 0 0 1 .58 1.2 2.24 2.24 0 0 1-.21 1 2.12 2.12 0 0 1-.59.77 2.43 2.43 0 0 1-.89.46l-.1.06zm-2.12-3.86a3 3 0 0 0 1.05-.17 1.42 1.42 0 0 0 .68-.53 1.52 1.52 0 0 0 .25-.92.83.83 0 0 0-.35-.75 1.72 1.72 0 0 0-1-.24h-1.8a.13.13 0 0 0-.14.11l-.34 2.4a.19.19 0 0 0 0 .08.08.08 0 0 0 .06 0zm3.58 5.66a2.5 2.5 0 0 1-.43 0c-.1 0-.14-.05-.14-.11v-.38a.13.13 0 0 1 .09-.1.7.7 0 0 1 .24 0h.59a.7.7 0 0 0 .42-.15 1.57 1.57 0 0 0 .34-.34 1.21 1.21 0 0 0 .22-.44.67.67 0 0 0 0-.39l-1.24-4.72c0-.13 0-.19.11-.19h.67c.08 0 .12 0 .13.09l.95 3.84c0 .06 0 .09.07.09s.07 0 .12-.11l2-3.78a.2.2 0 0 1 .07-.1.12.12 0 0 1 .09 0h.47c.09 0 .1 0 0 .12l-3 5.57a2.58 2.58 0 0 1-.39.57 1.34 1.34 0 0 1-.44.36 1.22 1.22 0 0 1-.49.19 2.74 2.74 0 0 1-.48-.02zm8.23-2.24a2.65 2.65 0 0 1-1.84.71 1.62 1.62 0 0 1-1.11-.34 1.15 1.15 0 0 1-.39-.91 1.54 1.54 0 0 1 .24-.88 2 2 0 0 1 .62-.54 3.26 3.26 0 0 1 .92-.35 7.07 7.07 0 0 1 1-.14l.78-.06c.13 0 .2-.07.21-.17v-.27a.41.41 0 0 0 0-.11.37.37 0 0 0 0-.11.82.82 0 0 0-.28-.67 1.18 1.18 0 0 0-.78-.25 1.88 1.88 0 0 0-.83.2 2.39 2.39 0 0 0-.72.62c-.196.253 0 0-.06 0h-.08l-.5-.18-.06-.06v-.14a2.6 2.6 0 0 1 .93-.77 3 3 0 0 1 1.34-.29 2.42 2.42 0 0 1 1 .18 1.22 1.22 0 0 1 .6.48 1.35 1.35 0 0 1 .2.76.71.71 0 0 1 0 .14.76.76 0 0 1 0 .15l-.48 3.51a.64.64 0 0 1 0 .1h-.1-.49a.11.11 0 0 1-.1 0 .21.21 0 0 1 0-.12l.05-.47c.03-.13-.02-.12-.1.02zm.37-1.93a.1.1 0 0 0 0-.11c-.022-.033 0 0-.09 0l-.76.08a4.32 4.32 0 0 0-.66.09 3.18 3.18 0 0 0-.68.22 1.45 1.45 0 0 0-.55.39 1 1 0 0 0-.2.65.67.67 0 0 0 .25.55 1.16 1.16 0 0 0 .72.2 1.77 1.77 0 0 0 .64-.12 2.29 2.29 0 0 0 .56-.3 2.25 2.25 0 0 0 .42-.38.94.94 0 0 0 .18-.4zm2 2.54a.1.1 0 0 1-.09 0 .16.16 0 0 1 0-.12l.7-5a.22.22 0 0 1 0-.08h.07.62a.1.1 0 0 1 .07 0c.023.008 0 0 0 .09l-.08.56c0 .07 0 .08.08 0a4.61 4.61 0 0 1 .94-.58 2.29 2.29 0 0 1 1-.22 1.49 1.49 0 0 1 1.06.35 1.2 1.2 0 0 1 .37.91v.13.13l-.53 3.69a.16.16 0 0 1 0 .11.23.23 0 0 1-.11 0h-.57a.1.1 0 0 1-.09 0 .16.16 0 0 1 0-.12l.49-3.51a.57.57 0 0 0 0-.13.45.45 0 0 0 0-.11.74.74 0 0 0-.2-.58 1 1 0 0 0-.67-.2 1.8 1.8 0 0 0-.57.1 2.2 2.2 0 0 0-.55.28l-.64.44-.53 3.75a.19.19 0 0 1 0 .1h-.12zM243 506c-.06 0-.07 0 0-.11l.61-1.12v-.14c0-.03 0 0-.1 0h-.13a.14.14 0 0 1-.09 0c-.029-.01 0 0 0-.08l.13-.88a.16.16 0 0 1 0-.09.12.12 0 0 1 .08 0h.82c.07 0 .1 0 .08.12l-.11.76a.51.51 0 0 0 0 .09v.06l-.92 1.37s-.07.08-.1.09a.2.2 0 0 1-.11 0zm5-1.41a.12.12 0 0 1-.09 0 .2.2 0 0 1 0-.11l1-7.07a.14.14 0 0 1 .15-.13h2.26a3.41 3.41 0 0 1 1.86.43 1.36 1.36 0 0 1 .66 1.23 1.75 1.75 0 0 1-.42 1.21 2.38 2.38 0 0 1-1.12.69c-.431.12-.06 0-.06 0v.05a1.67 1.67 0 0 1 .91.51 1.31 1.31 0 0 1 .33.94 2.09 2.09 0 0 1-.26 1.07 2 2 0 0 1-.69.69 3.07 3.07 0 0 1-1 .36 6 6 0 0 1-1.14.11zm2.39-.69a4 4 0 0 0 .77-.07 2.63 2.63 0 0 0 .7-.24 1.3 1.3 0 0 0 .49-.47 1.46 1.46 0 0 0 .19-.78.93.93 0 0 0-.21-.64 1.18 1.18 0 0 0-.57-.35 3 3 0 0 0-.83-.11h-1.48a.16.16 0 0 0-.11 0 .19.19 0 0 0 0 .09l-.34 2.43a.13.13 0 0 0 0 .09h.08zm.59-3.37a2.63 2.63 0 0 0 .95-.17 1.52 1.52 0 0 0 .68-.51 1.38 1.38 0 0 0 .26-.84.88.88 0 0 0-.44-.81 2.34 2.34 0 0 0-1.19-.25h-1.34a.18.18 0 0 0-.11 0 .19.19 0 0 0 0 .09l-.32 2.35v.09h.06zm6.77 3.45a2.86 2.86 0 0 1-.87.54 2.78 2.78 0 0 1-1 .17 1.61 1.61 0 0 1-1.1-.34 1.13 1.13 0 0 1-.4-.91 1.47 1.47 0 0 1 .25-.88 1.92 1.92 0 0 1 .67-.59 3.38 3.38 0 0 1 .92-.35 7.21 7.21 0 0 1 1-.14l.78-.06c.12 0 .19-.07.21-.17v-.27-.11-.11a.83.83 0 0 0-.29-.67 1.15 1.15 0 0 0-.77-.25 1.85 1.85 0 0 0-.83.2 2.17 2.17 0 0 0-.72.62c-.191.257 0 0-.06 0h-.08l-.51-.18-.06-.06a.38.38 0 0 1 0-.14 2.6 2.6 0 0 1 .93-.77 3 3 0 0 1 1.35-.29 2.45 2.45 0 0 1 1 .18 1.22 1.22 0 0 1 .6.48 1.43 1.43 0 0 1 .2.76v.14.15l-.49 3.51v.1a.16.16 0 0 1-.1 0H258a.11.11 0 0 1-.1 0 .21.21 0 0 1 0-.12v-.47c-.01-.1-.05-.09-.14.05zm.38-1.93v-.11c0-.02 0 0-.09 0l-.68.06a4.61 4.61 0 0 0-.67.09 3.37 3.37 0 0 0-.68.22 1.34 1.34 0 0 0-.54.39 1 1 0 0 0-.21.65.68.68 0 0 0 .26.55 1.15 1.15 0 0 0 .71.2 1.73 1.73 0 0 0 .64-.12 2.57 2.57 0 0 0 .57-.3 1.9 1.9 0 0 0 .41-.38.75.75 0 0 0 .18-.4zm2.75 2.4a.24.24 0 0 1 0 .12h-.13-.52a.17.17 0 0 1-.13 0 .25.25 0 0 1 0-.13l1-7.06v-.09h.08.62c.07 0 .1 0 .08.14zm4.66-.47a3.12 3.12 0 0 1-.87.54 2.87 2.87 0 0 1-1 .17 1.62 1.62 0 0 1-1.11-.34 1.13 1.13 0 0 1-.4-.91 1.55 1.55 0 0 1 .25-.88 2 2 0 0 1 .67-.59 3.51 3.51 0 0 1 .92-.35 7.21 7.21 0 0 1 1-.14l.78-.06c.13 0 .2-.07.21-.17v-.27a.41.41 0 0 0 0-.11.37.37 0 0 0 0-.11.83.83 0 0 0-.29-.67 1.13 1.13 0 0 0-.77-.25 1.85 1.85 0 0 0-.83.2 2.17 2.17 0 0 0-.72.62c-.191.257 0 0-.06 0h-.08l-.5-.18a.17.17 0 0 1-.06-.06c-.015-.025 0-.07 0-.14a2.44 2.44 0 0 1 .93-.77 3 3 0 0 1 1.34-.29 2.42 2.42 0 0 1 1 .18 1.22 1.22 0 0 1 .6.48 1.43 1.43 0 0 1 .2.76.71.71 0 0 1 0 .14.76.76 0 0 1 0 .15l-.48 3.51a.64.64 0 0 1 0 .1h-.1-.5a.12.12 0 0 1-.1 0 .21.21 0 0 1 0-.12l.05-.47c.06-.1.01-.09-.07.05zm.37-1.93v-.11c0-.02 0 0-.09 0l-.68.06a4.32 4.32 0 0 0-.66.09 3 3 0 0 0-.68.22 1.45 1.45 0 0 0-.55.39 1 1 0 0 0-.21.65.68.68 0 0 0 .26.55 1.15 1.15 0 0 0 .71.2 1.78 1.78 0 0 0 .65-.12 2.49 2.49 0 0 0 .56-.3 1.9 1.9 0 0 0 .41-.38.75.75 0 0 0 .18-.4zm2.69 2.85a1.76 1.76 0 0 1-.44 1 1.51 1.51 0 0 1-1.09.33 2.22 2.22 0 0 1-.57 0c-.08 0-.11-.06-.11-.12l.06-.42v-.07h.06.52a.7.7 0 0 0 .48-.19 1 1 0 0 0 .24-.58l.75-5.34a.19.19 0 0 1 0-.08c.006-.026 0 0 .08 0h.6a.11.11 0 0 1 .09.05.12.12 0 0 1 0 .1zm1-6.66a.59.59 0 0 1-.05.13c-.022.041-.07 0-.14 0h-.6a.12.12 0 0 1-.11-.05.17.17 0 0 1 0-.14l.12-.82c0-.1.06-.15.14-.15h.65a.1.1 0 0 1 .08 0 .19.19 0 0 1 0 .13zm1.45 6.21a.17.17 0 0 1 0 .12.31.31 0 0 1-.13 0h-.51a.17.17 0 0 1-.13 0 .24.24 0 0 1 0-.13l.71-5q0-.07 0-.09a.1.1 0 0 1 .07 0h.63a.08.08 0 0 1 .08 0 .18.18 0 0 1 0 .11zm.91-6.21a.32.32 0 0 1-.05.13c-.026.039-.06 0-.13 0h-.61a.13.13 0 0 1-.11-.05.33.33 0 0 1 0-.14l.12-.82q0-.15.15-.15h.67a.09.09 0 0 1 .08 0 .12.12 0 0 1 0 .13zm7.75.34a1.79 1.79 0 0 0-.63-.5 2.12 2.12 0 0 0-1-.2 2.22 2.22 0 0 0-.92.18 1.54 1.54 0 0 0-.65.49 1.25 1.25 0 0 0-.22.75.91.91 0 0 0 .07.35 1.17 1.17 0 0 0 .28.33 2.16 2.16 0 0 0 .55.29l1.37.5a2.42 2.42 0 0 1 1.08.67 1.39 1.39 0 0 1 .33.95 2 2 0 0 1-.38 1.26 2.37 2.37 0 0 1-1 .78 4 4 0 0 1-1.47.26 3.35 3.35 0 0 1-1.54-.32 2.28 2.28 0 0 1-1-1 .52.52 0 0 1 0-.11.11.11 0 0 1 .08-.1l.38-.24a.19.19 0 0 1 .14 0 .19.19 0 0 1 .11.08 2.82 2.82 0 0 0 .46.54 1.47 1.47 0 0 0 .57.33 2.83 2.83 0 0 0 .85.11 2.91 2.91 0 0 0 1-.15 1.39 1.39 0 0 0 .68-.47 1.3 1.3 0 0 0 .24-.81.75.75 0 0 0-.2-.53 2 2 0 0 0-.77-.45l-1.43-.54a2 2 0 0 1-1-.67 1.61 1.61 0 0 1-.28-.92 2.2 2.2 0 0 1 .2-.94 2.31 2.31 0 0 1 .6-.72 2.66 2.66 0 0 1 .88-.47 3.36 3.36 0 0 1 1.06-.16 3.21 3.21 0 0 1 .92.12 2.83 2.83 0 0 1 .74.36 2.27 2.27 0 0 1 .55.52.24.24 0 0 1 .06.11c.01.041 0 .05 0 .07l-.48.34h-.08zm1.47 6a.13.13 0 0 1-.14-.16l.7-5a.22.22 0 0 1 0-.08h.07.58a.1.1 0 0 1 .11.14l-.09.56v.08c0 .01.05 0 .08 0a3.82 3.82 0 0 1 .57-.48 1.86 1.86 0 0 1 .55-.27 1.56 1.56 0 0 1 .5-.09 1 1 0 0 1 .29 0c.06 0 .08.05.08.1l-.08.58a.15.15 0 0 1 0 .07c-.006.023 0 0 0 0h-.44a1.58 1.58 0 0 0-.49.1 2.49 2.49 0 0 0-.51.27 1.72 1.72 0 0 0-.42.38.89.89 0 0 0-.2.43l-.45 3.27a.19.19 0 0 1 0 .1h-.12zm4.47-.14a.17.17 0 0 1 0 .12.31.31 0 0 1-.13 0H285a.17.17 0 0 1-.13 0 .24.24 0 0 1 0-.13l.71-5a.14.14 0 0 1 0-.09.15.15 0 0 1 .08 0h.63a.08.08 0 0 1 .08 0 .18.18 0 0 1 0 .11zm.91-6.21a.32.32 0 0 1-.05.13c-.026.039-.06 0-.13 0h-.61a.13.13 0 0 1-.11-.05.33.33 0 0 1 0-.14l.12-.82c0-.1.06-.15.15-.15h.64a.09.09 0 0 1 .08 0 .12.12 0 0 1 0 .13zm.74 6.35a.1.1 0 0 1-.09 0 .16.16 0 0 1 0-.12l.7-5a.22.22 0 0 1 0-.08h.07.62a.1.1 0 0 1 .07 0c.023.008 0 0 0 .09l-.08.56c0 .07 0 .08.08 0a4.61 4.61 0 0 1 .94-.58 2.26 2.26 0 0 1 1-.22 1.5 1.5 0 0 1 1.06.35 1.2 1.2 0 0 1 .36.91.62.62 0 0 1 0 .13.62.62 0 0 1 0 .13l-.52 3.69a.23.23 0 0 1 0 .11h-.11-.57a.1.1 0 0 1-.09 0 .16.16 0 0 1 0-.12l.49-3.51a.57.57 0 0 0 0-.13.45.45 0 0 0 0-.11.78.78 0 0 0-.2-.58 1 1 0 0 0-.67-.2 1.8 1.8 0 0 0-.57.1 2.2 2.2 0 0 0-.55.28l-.64.44-.53 3.75a.19.19 0 0 1 0 .1h-.12zm6.49-.14a.17.17 0 0 1 0 .12.31.31 0 0 1-.13 0h-.51a.17.17 0 0 1-.13 0 .24.24 0 0 1 0-.13l.7-5a.22.22 0 0 1 0-.09.15.15 0 0 1 .08 0h.63a.08.08 0 0 1 .08 0 .18.18 0 0 1 0 .11zm.91-6.21a.32.32 0 0 1-.05.13c-.026.039-.06 0-.14 0h-.6a.13.13 0 0 1-.11-.05.33.33 0 0 1 0-.14l.12-.82c0-.1.06-.15.15-.15h.64a.09.09 0 0 1 .08 0 .12.12 0 0 1 0 .13zm5.59 1.11a.1.1 0 0 1 .1.06.11.11 0 0 1 0 .11l-2.71 4.94a.2.2 0 0 1-.09.11h-.14-.35a.29.29 0 0 1-.16 0 .19.19 0 0 1-.07-.12l-1.32-5c0-.09 0-.13.11-.13h.61a.13.13 0 0 1 .1 0 .14.14 0 0 1 0 .09l1 3.88c0 .12.09.11.16 0l2.1-3.89a.16.16 0 0 1 .15-.08zm3.44 4.63a2.86 2.86 0 0 1-.87.54 2.77 2.77 0 0 1-1 .17 1.62 1.62 0 0 1-1.11-.34 1.13 1.13 0 0 1-.4-.91 1.55 1.55 0 0 1 .25-.88 2 2 0 0 1 .67-.59 3.51 3.51 0 0 1 .92-.35 7.21 7.21 0 0 1 1-.14l.78-.06c.13 0 .2-.07.21-.17v-.27a.41.41 0 0 0 0-.11.37.37 0 0 0 0-.11.83.83 0 0 0-.29-.67 1.13 1.13 0 0 0-.77-.25 1.85 1.85 0 0 0-.83.2 2.17 2.17 0 0 0-.72.62c-.191.257 0 0-.06 0h-.08l-.5-.18-.06-.06v-.14a2.48 2.48 0 0 1 .92-.77 3 3 0 0 1 1.35-.29 2.45 2.45 0 0 1 1 .18 1.22 1.22 0 0 1 .6.48 1.43 1.43 0 0 1 .2.76.71.71 0 0 1 0 .14.76.76 0 0 1 0 .15l-.49 3.51a.29.29 0 0 1 0 .1h-.1-.5a.12.12 0 0 1-.1 0 .21.21 0 0 1 0-.12l.05-.47c.05-.09 0-.08-.09.06zm.38-1.93v-.11c0-.02 0 0-.09 0l-.68.06a4.32 4.32 0 0 0-.66.09 3.26 3.26 0 0 0-.69.22 1.5 1.5 0 0 0-.54.39 1 1 0 0 0-.21.65.68.68 0 0 0 .26.55 1.15 1.15 0 0 0 .71.2 1.69 1.69 0 0 0 .64-.12 2.37 2.37 0 0 0 .57-.3 1.9 1.9 0 0 0 .41-.38.75.75 0 0 0 .18-.4zm3.66 2.64a2.75 2.75 0 0 1-1.37-.32 1.54 1.54 0 0 1-.73-.81.1.1 0 0 1 0-.15l.39-.19a.13.13 0 0 1 .1 0c.032.013 0 0 .06.07a1.41 1.41 0 0 0 .55.59 1.79 1.79 0 0 0 1 .23 4.14 4.14 0 0 0 .45 0 2.56 2.56 0 0 0 .49-.16 1 1 0 0 0 .41-.29.64.64 0 0 0 .16-.45.57.57 0 0 0-.21-.43 1.56 1.56 0 0 0-.66-.31l-1-.28a2.09 2.09 0 0 1-.91-.48 1 1 0 0 1-.27-.69 1.44 1.44 0 0 1 .32-.93 2 2 0 0 1 .82-.58 3 3 0 0 1 1.08-.2 2.34 2.34 0 0 1 1.16.27 1.66 1.66 0 0 1 .7.69.12.12 0 0 1 0 .08.17.17 0 0 1-.06.06l-.38.19h-.08l-.08-.08a1.18 1.18 0 0 0-.5-.46 1.65 1.65 0 0 0-.81-.18 2.29 2.29 0 0 0-.62.1 1.45 1.45 0 0 0-.56.31.66.66 0 0 0-.21.51.53.53 0 0 0 .13.35 1.46 1.46 0 0 0 .57.3l1.19.36a1.6 1.6 0 0 1 .86.5 1.11 1.11 0 0 1 .27.74 1.31 1.31 0 0 1-.21.74 1.71 1.71 0 0 1-.54.53 2.59 2.59 0 0 1-.74.32 3.21 3.21 0 0 1-.79.04zm6.44-.71a2.86 2.86 0 0 1-.87.54 2.83 2.83 0 0 1-1 .17 1.61 1.61 0 0 1-1.1-.34 1.13 1.13 0 0 1-.4-.91 1.47 1.47 0 0 1 .25-.88 1.92 1.92 0 0 1 .67-.59 3.26 3.26 0 0 1 .92-.35 7.28 7.28 0 0 1 1-.14l.79-.06c.12 0 .19-.07.2-.17l.05-.27v-.11a.37.37 0 0 0 0-.11.82.82 0 0 0-.28-.67 1.13 1.13 0 0 0-.77-.25 1.92 1.92 0 0 0-.84.2 2.25 2.25 0 0 0-.71.62h-.06-.06l-.5-.18a.17.17 0 0 1-.06-.06.38.38 0 0 1 0-.14 2.6 2.6 0 0 1 .93-.77 3 3 0 0 1 1.34-.29 2.39 2.39 0 0 1 1 .18 1.24 1.24 0 0 1 .61.48 1.43 1.43 0 0 1 .2.76v.14a.39.39 0 0 1 0 .15l-.48 3.51v.1h-.09-.5a.11.11 0 0 1-.1 0 .21.21 0 0 1 0-.12l.05-.47c-.08-.09-.12-.08-.21.06zm.38-1.93v-.11c0-.02 0 0-.09 0l-.68.06a4.32 4.32 0 0 0-.66.09 3.09 3.09 0 0 0-.69.22 1.34 1.34 0 0 0-.54.39 1 1 0 0 0-.21.65.68.68 0 0 0 .26.55 1.13 1.13 0 0 0 .71.2 1.77 1.77 0 0 0 .64-.12 2.57 2.57 0 0 0 .57-.3 2.17 2.17 0 0 0 .41-.38.75.75 0 0 0 .18-.4zm2 2.54h-.08a.16.16 0 0 1 0-.12l.71-5v-.08a.08.08 0 0 1 .06 0h.63.07v.09l-.08.56c0 .07 0 .08.08 0a4.13 4.13 0 0 1 .94-.58 2.22 2.22 0 0 1 1-.22 1.47 1.47 0 0 1 1.06.35 1.17 1.17 0 0 1 .37.91.62.62 0 0 1 0 .13c-.005.043 0 .08 0 .13l-.53 3.69a.24.24 0 0 1 0 .11h-.12-.56a.11.11 0 0 1-.1 0 .13.13 0 0 1 0-.12l.49-3.51a.57.57 0 0 0 0-.13c-.005-.043 0-.08 0-.11a.75.75 0 0 0-.21-.58 1 1 0 0 0-.66-.2 1.81 1.81 0 0 0-.58.1 2.38 2.38 0 0 0-.55.28l-.63.44-.53 3.75c0 .05 0 .08-.05.1a.25.25 0 0 1-.12 0zm5.17 1.41c-.06 0-.06 0 0-.11l.61-1.12a.26.26 0 0 0 0-.14.11.11 0 0 0-.1 0h-.14a.14.14 0 0 1-.09 0c-.029-.01 0 0 0-.08l.13-.88a.16.16 0 0 1 0-.09.13.13 0 0 1 .09 0h.82c.06 0 .09 0 .08.12l-.12.76a.64.64 0 0 1 0 .09v.06l-.92 1.37a.21.21 0 0 1-.1.09.16.16 0 0 1-.11 0zm8.28-8.85a2.28 2.28 0 0 1 .94.18 1.38 1.38 0 0 1 .6.54 1.19 1.19 0 0 1 .14.81 1.85 1.85 0 0 1-.28.68 2.9 2.9 0 0 1-.65.67 5.4 5.4 0 0 1-1.06.6c-.12 0-.15.07-.1.15l1.29 1.81s.06.05.08 0a.37.37 0 0 0 .1-.11 3 3 0 0 0 .43-.39l.46-.5a4.92 4.92 0 0 0 .37-.5 3.78 3.78 0 0 0 .26-.43.09.09 0 0 1 .06 0 .16.16 0 0 1 .1 0l.38.13a.11.11 0 0 1 .08.07.15.15 0 0 1 0 .13 3.46 3.46 0 0 1-.42.64 8.94 8.94 0 0 1-.6.75q-.33.38-.69.72a.19.19 0 0 0-.08.07.08.08 0 0 0 0 .09 1.6 1.6 0 0 0 .43.28 2.41 2.41 0 0 0 .55.21 3 3 0 0 0 .58.09.18.18 0 0 1 .14.05.1.1 0 0 1 0 .1l-.06.42a.14.14 0 0 1 0 .13.17.17 0 0 1-.12 0 2.93 2.93 0 0 1-.8-.12 5.84 5.84 0 0 1-.77-.29 3.06 3.06 0 0 1-.59-.41.12.12 0 0 0-.11 0 .19.19 0 0 0-.09.09 4.51 4.51 0 0 1-1.12.6 3.68 3.68 0 0 1-1.2.2 2.08 2.08 0 0 1-1.55-.53 1.58 1.58 0 0 1-.4-1.44 2.17 2.17 0 0 1 .48-1.06 4.76 4.76 0 0 1 1.28-1c.09 0 .14-.07.15-.1s0-.09 0-.16a2.25 2.25 0 0 1-.41-.69 1.77 1.77 0 0 1-.06-.76 1.82 1.82 0 0 1 .39-.91 2.25 2.25 0 0 1 .82-.64 2.44 2.44 0 0 1 1.01-.18zm0 .59a1.35 1.35 0 0 0-.7.18 1.42 1.42 0 0 0-.5.44 1.55 1.55 0 0 0-.24.6 1.35 1.35 0 0 0 0 .45 1.48 1.48 0 0 0 .23.45l.23.3a.06.06 0 0 0 .07 0l.1-.05a4.42 4.42 0 0 0 1.21-.71 1.37 1.37 0 0 0 .46-.82.59.59 0 0 0-.21-.64 1 1 0 0 0-.64-.21zm-1.21 3.44q-.06-.07-.12-.06l-.14.06a2.42 2.42 0 0 0-.91.64 1.69 1.69 0 0 0-.42.9 1 1 0 0 0 .27.91 1.3 1.3 0 0 0 1 .35 2.1 2.1 0 0 0 .87-.19 2.87 2.87 0 0 0 .76-.47.31.31 0 0 0 .12-.09.13.13 0 0 0 0-.12zm7.73 3.41q-.07 0-.09 0v-.14l1-7.06v-.09a.17.17 0 0 1 .09 0h1 .08a.16.16 0 0 1 .05.08l1.42 5.68c0 .06 0 .08.05.08a.14.14 0 0 0 .08-.1l3-5.66a.16.16 0 0 1 .15-.11h1c.08 0 .11 0 .1.12l-1 7.09a.23.23 0 0 1 0 .11h-.1-.66a.28.28 0 0 1-.13 0 .14.14 0 0 1 0-.13l.78-5.57-3 5.63c0 .05 0 .08-.08.09h-.1-.53-.09a.33.33 0 0 1-.06-.12l-1.34-5.56v-.06.05l-.79 5.61a.2.2 0 0 1 0 .08.14.14 0 0 1-.09 0zm10.87.1a2.28 2.28 0 0 1-1.17-.28 1.85 1.85 0 0 1-.76-.78 2.47 2.47 0 0 1-.26-1.18 3.3 3.3 0 0 1 .23-1.27 2.91 2.91 0 0 1 .62-1 2.76 2.76 0 0 1 .92-.67 2.64 2.64 0 0 1 1.11-.24 2.25 2.25 0 0 1 1.17.29 1.91 1.91 0 0 1 .74.8 2.53 2.53 0 0 1 .27 1.2 3.38 3.38 0 0 1-.38 1.63 3 3 0 0 1-1 1.11 2.69 2.69 0 0 1-1.48.38zm0-.62a1.7 1.7 0 0 0 1-.33 2.08 2.08 0 0 0 .71-.92 3.38 3.38 0 0 0 .27-1.41 1.7 1.7 0 0 0-.35-1.13 1.24 1.24 0 0 0-1-.42 1.69 1.69 0 0 0-1 .34 2.34 2.34 0 0 0-.75.93 3.53 3.53 0 0 0-.26 1.4 1.67 1.67 0 0 0 .36 1.13 1.3 1.3 0 0 0 1.06.4zm3.83.52a.13.13 0 0 1-.14-.16l.7-5a.22.22 0 0 1 0-.08h.07.58a.1.1 0 0 1 .11.14l-.09.56v.08c0 .01.05 0 .08 0a3.82 3.82 0 0 1 .57-.48 1.86 1.86 0 0 1 .55-.27 1.56 1.56 0 0 1 .5-.09 1 1 0 0 1 .29 0c.06 0 .08.05.08.1l-.08.58a.15.15 0 0 1 0 .07c-.006.023 0 0 0 0h-.45a1.58 1.58 0 0 0-.48.1 2.49 2.49 0 0 0-.51.27 1.72 1.72 0 0 0-.42.38 1 1 0 0 0-.2.43l-.45 3.27a.19.19 0 0 1 0 .1h-.12zm5.72.1a2.29 2.29 0 0 1-1.16-.28 1.84 1.84 0 0 1-.77-.77 2.57 2.57 0 0 1-.26-1.18 3.64 3.64 0 0 1 .19-1.18 3.27 3.27 0 0 1 .58-1 2.9 2.9 0 0 1 .91-.72 2.5 2.5 0 0 1 1.2-.28 2.26 2.26 0 0 1 1.1.26 1.62 1.62 0 0 1 .71.73 2.35 2.35 0 0 1 .26 1.17 2.72 2.72 0 0 1 0 .28v.29a.26.26 0 0 1-.06.13.2.2 0 0 1-.14 0h-3.76s-.08 0-.1.1a1.24 1.24 0 0 0 0 .34 1.4 1.4 0 0 0 .41 1.08 1.45 1.45 0 0 0 1.05.39 2 2 0 0 0 .93-.21 2.17 2.17 0 0 0 .74-.62c.197-.26.06 0 .08 0a.08.08 0 0 1 .07 0l.39.2a.11.11 0 0 1 0 .17 3 3 0 0 1-.68.63 2.84 2.84 0 0 1-.77.36 3.5 3.5 0 0 1-.9.1zm1.76-3.07a.19.19 0 0 0 .16-.07.74.74 0 0 0 .06-.37 1.32 1.32 0 0 0-.35-1 1.24 1.24 0 0 0-1-.38 1.8 1.8 0 0 0-.94.26 2.22 2.22 0 0 0-.66.67 2.5 2.5 0 0 0-.31.85z"/></g></svg>