<svg width="254" height="78" viewBox="0 0 254 78" fill="none" xmlns="http://www.w3.org/2000/svg">
<path d="M10.8085 0.5H243.192C248.887 0.5 253.5 5.09512 253.5 10.7586V67.2415C253.5 72.9052 248.887 77.5 243.192 77.5H10.8085C5.11308 77.5 0.5 72.9052 0.5 67.2415V10.7586C0.5 5.09512 5.11309 0.5 10.8085 0.5Z" fill="white" stroke="#02E2AC"/>
<path d="M67.1018 50.7243C67.1018 49.0782 67.4828 47.6016 68.2448 46.2944C69.0233 44.9872 70.0686 43.9706 71.3819 43.2444C72.7118 42.502 74.1625 42.1309 75.7354 42.1309C77.5347 42.1309 79.132 42.5747 80.5259 43.4622C81.9364 44.3337 82.9579 45.5763 83.5904 47.1901H80.2585C79.8207 46.3025 79.2126 45.6409 78.4347 45.2052C77.6562 44.7694 76.7569 44.5515 75.7354 44.5515C74.6168 44.5515 73.6197 44.8017 72.7441 45.302C71.8686 45.8022 71.1792 46.5204 70.6767 47.4564C70.1907 48.3924 69.9471 49.4817 69.9471 50.7243C69.9471 51.9669 70.1907 53.0562 70.6767 53.9922C71.1792 54.9282 71.8686 55.6544 72.7441 56.1709C73.6197 56.6712 74.6168 56.9212 75.7354 56.9212C76.7569 56.9212 77.6562 56.7034 78.4347 56.2677C79.2126 55.832 79.8207 55.1703 80.2585 54.2827H83.5904C82.9579 55.8965 81.9364 57.1392 80.5259 58.0106C79.132 58.882 77.5347 59.3177 75.7354 59.3177C74.1466 59.3177 72.6953 58.9547 71.3819 58.2284C70.0686 57.4861 69.0233 56.4613 68.2448 55.1542C67.4828 53.847 67.1018 52.3704 67.1018 50.7243ZM97.0982 59.342C95.5254 59.342 94.0747 58.9789 92.7448 58.2527C91.4315 57.5103 90.3862 56.4855 89.6077 55.1784C88.8457 53.8551 88.4647 52.3704 88.4647 50.7243C88.4647 49.0782 88.8457 47.6016 89.6077 46.2944C90.3862 44.9872 91.4315 43.9706 92.7448 43.2444C94.0747 42.502 95.5254 42.1309 97.0982 42.1309C98.6869 42.1309 100.138 42.502 101.451 43.2444C102.781 43.9706 103.826 44.9872 104.588 46.2944C105.35 47.6016 105.731 49.0782 105.731 50.7243C105.731 52.3704 105.35 53.8551 104.588 55.1784C103.826 56.4855 102.781 57.5103 101.451 58.2527C100.138 58.9789 98.6869 59.342 97.0982 59.342ZM97.0982 56.9455C98.2168 56.9455 99.2139 56.6953 100.089 56.195C100.965 55.6787 101.646 54.9524 102.132 54.0164C102.635 53.0643 102.886 51.9669 102.886 50.7243C102.886 49.4817 102.635 48.3924 102.132 47.4564C101.646 46.5204 100.965 45.8022 100.089 45.302C99.2139 44.8017 98.2168 44.5515 97.0982 44.5515C95.9796 44.5515 94.9826 44.8017 94.107 45.302C93.2314 45.8022 92.5421 46.5204 92.0396 47.4564C91.5536 48.3924 91.31 49.4817 91.31 50.7243C91.31 51.9669 91.5536 53.0643 92.0396 54.0164C92.5421 54.9524 93.2314 55.6787 94.107 56.195C94.9826 56.6953 95.9796 56.9455 97.0982 56.9455ZM128.815 42.3487V59.1725H126.042V47.65L120.886 59.1725H118.965L113.785 47.65V59.1725H111.013V42.3487H114.004L119.938 55.5415L125.848 42.3487H128.815ZM152.813 42.3487V59.1725H150.041V47.65L144.886 59.1725H142.964L137.784 47.65V59.1725H135.012V42.3487H138.003L143.937 55.5415L149.847 42.3487H152.813ZM161.759 42.3487V53.0724C161.759 54.3472 162.091 55.3075 162.756 55.953C163.437 56.5985 164.377 56.9212 165.577 56.9212C166.793 56.9212 167.733 56.5985 168.398 55.953C169.079 55.3075 169.419 54.3472 169.419 53.0724V42.3487H172.192V53.024C172.192 54.3957 171.892 55.5576 171.292 56.5097C170.692 57.4619 169.889 58.172 168.884 58.64C167.879 59.108 166.769 59.342 165.552 59.342C164.337 59.342 163.226 59.108 162.221 58.64C161.232 58.172 160.446 57.4619 159.862 56.5097C159.278 55.5576 158.986 54.3957 158.986 53.024V42.3487H161.759ZM192.241 59.1725H189.469L181.128 46.6092V59.1725H178.355V42.3245H181.128L189.469 54.8637V42.3245H192.241V59.1725ZM201.208 42.3487V59.1725H198.436V42.3487H201.208ZM218.321 42.3487V44.6H213.822V59.1725H211.05V44.6H206.526V42.3487H218.321ZM236.207 42.3487L230.613 53.0724V59.1725H227.84V53.0724L222.223 42.3487H225.311L229.227 50.6032L233.142 42.3487H236.207Z" fill="#02E2AC"/>
<path d="M73.1087 26.4822C73.5196 26.5467 73.8926 26.7135 74.2272 26.9825C74.5734 27.2514 74.8433 27.585 75.0381 27.983C75.2432 28.381 75.3464 28.806 75.3464 29.2579C75.3464 29.8281 75.2005 30.3445 74.9086 30.8072C74.6168 31.259 74.1894 31.6194 73.6277 31.8884C73.0763 32.1466 72.4224 32.2757 71.6659 32.2757H67.4504V21.0275H71.5035C72.271 21.0275 72.9249 21.1567 73.4652 21.4149C74.0056 21.6623 74.411 22.0012 74.6815 22.4315C74.9514 22.8619 75.0869 23.346 75.0869 23.884C75.0869 24.551 74.9031 25.105 74.5356 25.5462C74.179 25.9765 73.7034 26.2885 73.1087 26.4822ZM68.9256 25.885H71.4064C72.0982 25.885 72.633 25.7237 73.0116 25.401C73.3895 25.0782 73.5788 24.6317 73.5788 24.0615C73.5788 23.4913 73.3895 23.0448 73.0116 22.722C72.633 22.3993 72.0872 22.2379 71.374 22.2379H68.9256V25.885ZM71.5364 31.0653C72.271 31.0653 72.8443 30.8932 73.2546 30.5489C73.6655 30.2047 73.8707 29.7259 73.8707 29.1127C73.8707 28.4887 73.6545 27.9992 73.2222 27.6441C72.7899 27.2783 72.2117 27.0954 71.4876 27.0954H68.9256V31.0653H71.5364ZM78.9177 21.0275V28.1444C78.9177 29.1449 79.1607 29.8873 79.6473 30.3714C80.1443 30.8555 80.8306 31.0976 81.7062 31.0976C82.5708 31.0976 83.2461 30.8555 83.7327 30.3714C84.2297 29.8873 84.4788 29.1449 84.4788 28.1444V21.0275H85.954V28.1282C85.954 29.0642 85.7647 29.855 85.3867 30.5005C85.0082 31.1353 84.4947 31.6087 83.8463 31.9207C83.2088 32.2327 82.4896 32.3887 81.6897 32.3887C80.8899 32.3887 80.1657 32.2327 79.5173 31.9207C78.8798 31.6087 78.3718 31.1353 77.9933 30.5005C77.6257 29.855 77.4419 29.0642 77.4419 28.1282V21.0275H78.9177ZM89.9716 21.0275V32.2757H88.4958V21.0275H89.9716ZM94.5289 31.0815H98.4849V32.2757H93.0538V21.0275H94.5289V31.0815ZM107.574 21.0275V22.2217H104.494V32.2757H103.018V22.2217H99.9215V21.0275H107.574ZM119.533 26.4822C119.944 26.5467 120.317 26.7135 120.652 26.9825C120.997 27.2514 121.268 27.585 121.463 27.983C121.668 28.381 121.77 28.806 121.77 29.2579C121.77 29.8281 121.624 30.3445 121.333 30.8072C121.041 31.259 120.614 31.6194 120.052 31.8884C119.501 32.1466 118.847 32.2757 118.09 32.2757H113.875V21.0275H117.928C118.696 21.0275 119.349 21.1567 119.89 21.4149C120.43 21.6623 120.836 22.0012 121.105 22.4315C121.376 22.8619 121.511 23.346 121.511 23.884C121.511 24.551 121.327 25.105 120.96 25.5462C120.603 25.9765 120.127 26.2885 119.533 26.4822ZM115.35 25.885H117.831C118.523 25.885 119.058 25.7237 119.436 25.401C119.814 25.0782 120.003 24.6317 120.003 24.0615C120.003 23.4913 119.814 23.0448 119.436 22.722C119.058 22.3993 118.512 22.2379 117.799 22.2379H115.35V25.885ZM117.96 31.0653C118.696 31.0653 119.268 30.8932 119.679 30.5489C120.09 30.2047 120.295 29.7259 120.295 29.1127C120.295 28.4887 120.079 27.9992 119.647 27.6441C119.215 27.2783 118.636 27.0954 117.912 27.0954H115.35V31.0653H117.96ZM131.648 21.0275L127.968 28.0314V32.2757H126.493V28.0314L122.796 21.0275H124.434L127.222 26.7242L130.011 21.0275H131.648ZM143.997 21.0275V22.2217H140.916V32.2757H139.441V22.2217H136.344V21.0275H143.997ZM154.438 21.0275V32.2757H152.962V27.1761H147.206V32.2757H145.731V21.0275H147.206V25.9657H152.962V21.0275H154.438ZM158.35 22.2217V25.9819H162.468V27.1922H158.35V31.0653H162.954V32.2757H156.875V21.0114H162.954V22.2217H158.35ZM177.584 24.2874C177.271 23.6312 176.816 23.1255 176.222 22.7705C175.628 22.4047 174.936 22.2217 174.147 22.2217C173.357 22.2217 172.644 22.4047 172.007 22.7705C171.38 23.1255 170.883 23.6419 170.515 24.3197C170.159 24.9867 169.98 25.7613 169.98 26.6435C169.98 27.5257 170.159 28.3004 170.515 28.9674C170.883 29.6345 171.38 30.1509 172.007 30.5167C172.644 30.8717 173.357 31.0492 174.147 31.0492C175.249 31.0492 176.157 30.721 176.871 30.0648C177.584 29.4085 178 28.5209 178.119 27.402H173.611V26.2078H179.692V27.3375C179.605 28.2627 179.313 29.1127 178.816 29.8873C178.319 30.6512 177.665 31.259 176.854 31.7109C176.043 32.152 175.141 32.3725 174.147 32.3725C173.099 32.3725 172.142 32.1305 171.277 31.6463C170.413 31.1514 169.726 30.4682 169.218 29.5968C168.721 28.7253 168.472 27.741 168.472 26.6435C168.472 25.5462 168.721 24.5617 169.218 23.6903C169.726 22.8081 170.413 22.1249 171.277 21.6408C172.142 21.1459 173.099 20.8985 174.147 20.8985C175.347 20.8985 176.405 21.1943 177.324 21.786C178.254 22.3777 178.93 23.2115 179.351 24.2874H177.584ZM183.847 21.0275V32.2757H182.372V21.0275H183.847ZM194.047 21.0275V22.2217H190.966V32.2757H189.491V22.2217H186.394V21.0275H194.047ZM195.392 26.6435C195.392 25.5462 195.641 24.5617 196.138 23.6903C196.635 22.8081 197.311 22.1195 198.165 21.6247C199.029 21.1297 199.986 20.8823 201.034 20.8823C202.266 20.8823 203.342 21.1782 204.261 21.7699C205.179 22.3616 205.849 23.2008 206.271 24.2874H204.504C204.19 23.6096 203.736 23.0878 203.142 22.722C202.558 22.3562 201.856 22.1733 201.034 22.1733C200.245 22.1733 199.537 22.3562 198.911 22.722C198.284 23.0878 197.792 23.6096 197.435 24.2874C197.078 24.9545 196.9 25.7398 196.9 26.6435C196.9 27.5365 197.078 28.3219 197.435 28.9997C197.792 29.6667 198.284 30.1832 198.911 30.5489C199.537 30.9147 200.245 31.0976 201.034 31.0976C201.856 31.0976 202.558 30.9201 203.142 30.565C203.736 30.1993 204.19 29.6775 204.504 28.9997H206.271C205.849 30.0755 205.179 30.9093 204.261 31.501C203.342 32.082 202.266 32.3725 201.034 32.3725C199.986 32.3725 199.029 32.1305 198.165 31.6463C197.311 31.1514 196.635 30.4682 196.138 29.5968C195.641 28.7253 195.392 27.741 195.392 26.6435ZM213.672 32.3887C212.624 32.3887 211.667 32.1466 210.802 31.6625C209.938 31.1675 209.251 30.4844 208.743 29.6129C208.246 28.7307 207.998 27.741 207.998 26.6435C207.998 25.5462 208.246 24.5617 208.743 23.6903C209.251 22.8081 209.938 22.1249 210.802 21.6408C211.667 21.1459 212.624 20.8985 213.672 20.8985C214.731 20.8985 215.693 21.1459 216.558 21.6408C217.423 22.1249 218.104 22.8027 218.601 23.6742C219.098 24.5456 219.347 25.5354 219.347 26.6435C219.347 27.7517 219.098 28.7415 218.601 29.6129C218.104 30.4844 217.423 31.1675 216.558 31.6625C215.693 32.1466 214.731 32.3887 213.672 32.3887ZM213.672 31.1137C214.461 31.1137 215.169 30.9309 215.796 30.565C216.434 30.1993 216.931 29.6775 217.288 28.9997C217.655 28.3219 217.839 27.5365 217.839 26.6435C217.839 25.7398 217.655 24.9545 217.288 24.2874C216.931 23.6096 216.439 23.0878 215.812 22.722C215.185 22.3562 214.472 22.1733 213.672 22.1733C212.872 22.1733 212.159 22.3562 211.532 22.722C210.905 23.0878 210.408 23.6096 210.04 24.2874C209.684 24.9545 209.505 25.7398 209.505 26.6435C209.505 27.5365 209.684 28.3219 210.04 28.9997C210.408 29.6775 210.905 30.1993 211.532 30.565C212.17 30.9309 212.883 31.1137 213.672 31.1137ZM223.336 21.0275V32.2757H221.861V21.0275H223.336ZM235.303 32.2757H233.827L227.894 23.3192V32.2757H226.418V21.0114H227.894L233.827 29.9518V21.0114H235.303V32.2757Z" fill="#02E2AC"/>
<path fill-rule="evenodd" clip-rule="evenodd" d="M49.199 48.5186C50.1332 49.2606 50.9331 49.8995 51.426 50.3005C51.5962 50.4393 51.7331 50.6134 51.8268 50.8103C51.9206 51.0073 51.9688 51.2224 51.968 51.44L51.9529 58.139C51.9089 58.3967 51.7733 58.6309 51.5705 58.7997C51.3679 58.9686 51.1109 59.0612 50.8453 59.0614H36.2815C25.3718 59.0614 16.2804 50.2748 16.3664 39.5368C16.4225 32.6261 20.1561 26.5788 25.7363 23.1955V16.6377C25.7363 16.3851 25.789 16.1353 25.8911 15.9036C25.9933 15.6719 26.1426 15.4633 26.33 15.2906C26.5173 15.1181 26.7387 14.9852 26.9803 14.9003C27.2221 14.8155 27.4788 14.7802 27.7348 14.7971C28.7308 14.8607 29.4839 15.7184 29.4839 16.7006V21.4323C30.9972 20.9054 32.5705 20.5638 34.1685 20.4152V16.6377C34.1685 16.3851 34.2212 16.1351 34.3234 15.9036C34.4255 15.6719 34.5749 15.4632 34.7623 15.2906C34.9497 15.1181 35.1712 14.9852 35.4128 14.9003C35.6544 14.8155 35.9113 14.7804 36.1673 14.7971C37.1633 14.8607 37.9164 15.7184 37.9164 16.7006V20.4134C42.6588 20.8548 46.9121 22.9522 50.0693 26.1127C50.6605 26.7043 51.2127 27.3324 51.7226 27.9934C52.1142 28.5009 52.0261 28.8923 51.4873 29.2458L49.3051 30.9897C51.0416 33.5707 51.9684 36.5981 51.9695 39.6944C51.976 42.8454 51.0091 45.9226 49.199 48.5186ZM46.3176 46.2384C47.5935 44.2878 48.2727 42.0161 48.2727 39.6944C48.2727 37.3198 47.5421 35.0654 46.3359 33.2007L41.7909 36.5847C42.314 37.5221 42.5923 38.5727 42.6008 39.6421C42.6093 40.7116 42.3478 41.7663 41.8397 42.7116L41.9854 42.8264C42.6233 43.3277 44.4212 44.7415 46.3176 46.2384ZM48.2219 55.3722L48.2418 52.6644L38.9978 45.456C38.0816 45.9128 37.0687 46.1506 36.0417 46.1498C32.4195 46.1498 29.483 43.2596 29.483 39.6941C29.483 36.1284 32.4195 33.2383 36.0417 33.2383C37.053 33.2372 38.0507 33.4673 38.9562 33.9107L46.6063 27.9872C43.7623 25.3838 40.232 24.0156 36.0417 24.0156C33.7796 24.014 31.5434 24.4884 29.483 25.4072V31.3937C29.483 31.6463 29.4302 31.8961 29.3283 32.1279C29.2261 32.3595 29.0766 32.5681 28.8893 32.7407C28.702 32.9132 28.4806 33.0461 28.239 33.131C27.9973 33.216 27.7406 33.2511 27.4846 33.2344C26.4886 33.1707 25.7355 32.313 25.7355 31.3305V27.7448C22.3162 30.6047 20.1375 34.8582 20.114 39.6153C20.0706 48.2811 27.4341 55.3722 36.2385 55.3722H48.2219ZM38.3789 41.2313C38.6877 40.7763 38.8527 40.2413 38.8527 39.6941C38.8527 38.9602 38.5564 38.2565 38.0293 37.7375C37.5022 37.2187 36.7872 36.9271 36.0417 36.9271C35.4856 36.9271 34.9421 37.0895 34.4798 37.3934C34.0176 37.6974 33.6573 38.1297 33.4445 38.6352C33.2319 39.1409 33.1761 39.6972 33.2846 40.2339C33.3931 40.7706 33.6609 41.2637 34.0539 41.6506C34.447 42.0376 34.948 42.3011 35.4931 42.4078C36.0384 42.5146 36.6037 42.4599 37.1174 42.2504C37.6309 42.041 38.07 41.6863 38.3789 41.2313Z" fill="#02E2AC"/>
</svg>
