<?xml version="1.0" encoding="utf-8"?>
<!-- Generator: Adobe Illustrator 26.1.0, SVG Export Plug-In . SVG Version: 6.00 Build 0)  -->
<svg version="1.1" id="Layer_1" xmlns="http://www.w3.org/2000/svg" xmlns:xlink="http://www.w3.org/1999/xlink" x="0px" y="0px"
	 viewBox="0 0 2125.8 1146" enable-background="new 0 0 2125.8 1146" xml:space="preserve">

<style>
.a {
    -webkit-animation: slideupfast 1.3s ease-in-out infinite alternate;
            animation: slideupfast 1.3s ease-in-out infinite alternate;
}
.b {
    -webkit-animation: slidedownslow 2s ease-in-out infinite alternate;
            animation: slidedownslow 2s ease-in-out infinite alternate;
}
@-webkit-keyframes slideupfast {
    from {
        transform: translateY(0%);
    }
    to {
        transform: translateY(-2%);
    }
}
@keyframes slideupfast {
    from {
        transform: translateY(0%);
    }
    to {
        transform: translateY(-2%);
    }
}
@-webkit-keyframes slidedownslow {
    from {
        transform: translateY(0%);
    }
    to {
        transform: translateY(2%);
    }
}
@keyframes slidedownslow {
    from {
        transform: translateY(0%);
    }
    to {
        transform: translateY(2%);
    }
}
</style>
<g opacity="0.3">
<g class="a">
<path fill="#02E2AC" stroke="#0E0333" stroke-linejoin="round" stroke-miterlimit="10" d="M1947.8,1096c-5-3.5-12.5-2.1-15.8,3.1
	l0,0c-8.1,11.8,8.7,19.3,16.2,24.7l12.7-18.8L1947.8,1096z"/>
<path fill="#B3FFED" stroke="#0E0333" stroke-linejoin="round" stroke-miterlimit="10" d="M1948.3,1123.7c7.8,5,21,17.7,28.9,5.8
	c8-11.8-8.7-19.3-16.2-24.7L1948.3,1123.7z"/>
<path fill="#02E2AC" stroke="#0E0333" stroke-linejoin="round" stroke-miterlimit="10" d="M1752,1097.7c-3.6-5.5-11.7-7.1-17.1-3.2
	l0,0c-12.9,8.7,1,22.9,6.5,31.4l20.4-13.9L1752,1097.7z"/>
<path fill="#B3FFED" stroke="#0E0333" stroke-linejoin="round" stroke-miterlimit="10" d="M1741.3,1125.8c5.9,8.2,14,26.3,26.9,17.5
	l0,0c12.9-8.7-1-23-6.5-31.4L1741.3,1125.8z"/>
<path fill="#02E2AC" stroke="#0E0333" stroke-linejoin="round" stroke-miterlimit="10" d="M1581.5,1061c-2.2-4.6-8.2-6.6-12.8-4.2
	c-10.7,5.4-1.5,17.6,1.8,24.6l16.9-8.6L1581.5,1061z"/>
<path fill="#B3FFED" stroke="#0E0333" stroke-linejoin="round" stroke-miterlimit="10" d="M1570.5,1081.5c3.7,6.9,8.1,21.5,18.8,16
	c10.6-5.4,1.5-17.6-1.8-24.5L1570.5,1081.5z"/>
<path fill="#02E2AC" stroke="#0E0333" stroke-linejoin="round" stroke-miterlimit="10" d="M1345.3,1101.1c1.7-2.9,0.5-6.9-2.5-8.5
	c-6.8-3.8-10.2,5.8-12.7,10.2l11,6L1345.3,1101.1z"/>
<path fill="#B3FFED" stroke="#0E0333" stroke-linejoin="round" stroke-miterlimit="10" d="M1330.1,1102.7
	c-2.4,4.4-8.6,12.5-1.8,16.2c6.7,3.8,10.2-5.8,12.7-10.2L1330.1,1102.7z"/>
<path fill="#02E2AC" stroke="#0E0333" stroke-linejoin="round" stroke-miterlimit="10" d="M1140.4,1097c-4.3-7.4-16.4-5.3-18,3.1
	c-2,5.6,6.4,14.7,8.7,19.2l16.8-10.5L1140.4,1097z"/>
<path fill="#B3FFED" stroke="#0E0333" stroke-linejoin="round" stroke-miterlimit="10" d="M1131,1119.3c4.5,6.8,10.5,21.5,21,14.9
	l0,0c10.6-6.6-0.1-18.4-4.3-25.4L1131,1119.3z"/>
<path fill="#02E2AC" stroke="#0E0333" stroke-linejoin="round" stroke-miterlimit="10" d="M949.6,1114.3c3.2-4.7,1.7-11.7-3.2-14.7
	l0,0c-11.2-7.2-17.8,8.5-22.7,15.7l17.8,11.5L949.6,1114.3z"/>
<path fill="#B3FFED" stroke="#0E0333" stroke-linejoin="round" stroke-miterlimit="10" d="M923.8,1115.4
	c-4.5,7.4-16.1,19.9-4.8,27.1c11.2,7.3,17.8-8.5,22.7-15.7L923.8,1115.4z"/>
</g>
<g class="b">
<path fill="#02E2AC" stroke="#0E0333" stroke-linejoin="round" stroke-miterlimit="10" d="M773.8,1069.8c2.9-8.4-8.9-14.7-14.3-7.8
	c-1.8,1.7-4.1,11.7-5,13.9l15.9,4.9L773.8,1069.8z"/>
<path fill="#B3FFED" stroke="#0E0333" stroke-linejoin="round" stroke-miterlimit="10" d="M754.5,1076c-1.9,6.4-7.9,18.6,2,21.5
	c10,3.1,11.7-10.2,13.8-16.6L754.5,1076z"/>
<path fill="#02E2AC" stroke="#0E0333" stroke-linejoin="round" stroke-miterlimit="10" d="M592.2,1037.9c-3.9-4.5-11.3-4.8-15.6-0.7
	l0,0c-10.3,9.4,3.9,20.2,9.8,27l16.3-15L592.2,1037.9z"/>
<path fill="#B3FFED" stroke="#0E0333" stroke-linejoin="round" stroke-miterlimit="10" d="M586.4,1064.2c6.3,6.5,15.9,21.5,26.1,12
	l0,0c10.3-9.4-3.9-20.2-9.8-27L586.4,1064.2z"/>
<path fill="#02E2AC" stroke="#0E0333" stroke-linejoin="round" stroke-miterlimit="10" d="M365.3,1063c-3.2-4.6-10.2-5.7-14.7-2.3
	l0,0c-10.8,7.8,1.5,19.6,6.4,26.7l17-12.4L365.3,1063z"/>
<path fill="#B3FFED" stroke="#0E0333" stroke-linejoin="round" stroke-miterlimit="10" d="M356.9,1087.4
	c5.2,6.9,12.7,22.1,23.4,14.2l0,0c10.8-7.8-1.5-19.6-6.4-26.7L356.9,1087.4z"/>
<path fill="#02E2AC" stroke="#0E0333" stroke-linejoin="round" stroke-miterlimit="10" d="M198,1023c-2.6-3.7-8.2-4.5-11.8-1.7l0,0
	c-8.5,6.3,1.4,15.6,5.3,21.2l13.5-10L198,1023z"/>
<path fill="#B3FFED" stroke="#0E0333" stroke-linejoin="round" stroke-miterlimit="10" d="M191.6,1042.5
	c4.2,5.4,10.3,17.5,18.8,11.1l0,0c8.5-6.3-1.4-15.6-5.3-21.2L191.6,1042.5z"/>
<path fill="#02E2AC" stroke="#0E0333" stroke-linejoin="round" stroke-miterlimit="10" d="M2068.8,877.6c-3.5-4.6-10.6-5.5-15.1-1.8
	l0,0c-10.7,8.3,2.2,19.9,7.5,27l16.9-13.3L2068.8,877.6z"/>
<path fill="#B3FFED" stroke="#0E0333" stroke-linejoin="round" stroke-miterlimit="10" d="M2061.1,902.7
	c5.6,6.8,13.8,22.1,24.4,13.7l0,0c10.7-8.3-2.2-19.9-7.5-27L2061.1,902.7z"/>
<path fill="#02E2AC" stroke="#0E0333" stroke-linejoin="round" stroke-miterlimit="10" d="M1855.9,879.9c-1.2-3-4.9-4.6-7.8-3.3
	c-7,2.7-1.9,11.1-0.1,15.6l11.1-4.5L1855.9,879.9z"/>
<path fill="#B3FFED" stroke="#0E0333" stroke-linejoin="round" stroke-miterlimit="10" d="M1848,892.2c1.9,4.4,4.1,14,11,11
	c7-2.7,1.9-11.1,0.1-15.6L1848,892.2z"/>
<path fill="#02E2AC" stroke="#0E0333" stroke-linejoin="round" stroke-miterlimit="10" d="M1712.6,854.7c2.9-4.7,1.2-11.3-3.5-14
	l0,0c-11-6.6-16.9,8.8-21.4,15.8l17.6,10.5L1712.6,854.7z"/>
<path fill="#B3FFED" stroke="#0E0333" stroke-linejoin="round" stroke-miterlimit="10" d="M1687.7,856.6
	c-4.1,7.3-14.9,19.7-3.8,26.3c11,6.6,16.9-8.7,21.4-15.8L1687.7,856.6z"/>
</g>
<g class="a">
<path fill="#02E2AC" stroke="#0E0333" stroke-linejoin="round" stroke-miterlimit="10" d="M1448.6,906.1c2.6-3.2,1.8-8.3-1.5-10.7
	l0,0c-7.5-5.9-13.4,5.3-17.2,10.1l12.3,9.2L1448.6,906.1z"/>
<path fill="#B3FFED" stroke="#0E0333" stroke-linejoin="round" stroke-miterlimit="10" d="M1429.9,905.4c-3.6,5-12.7,13.7-4.9,19.3
	c7.5,5.9,13.4-5.3,17.2-10.1L1429.9,905.4z"/>
<path fill="#02E2AC" stroke="#0E0333" stroke-linejoin="round" stroke-miterlimit="10" d="M1266.8,911.2c4.4-5.1,3.6-13.4-1.7-17.6
	l0,0c-12.1-10-22,7.4-28.7,15.1l19.2,15.9L1266.8,911.2z"/>
<path fill="#B3FFED" stroke="#0E0333" stroke-linejoin="round" stroke-miterlimit="10" d="M1236.5,908.8c-6.3,8-21.6,21.1-9.4,31
	l0,0c12.1,10,22-7.5,28.7-15.2L1236.5,908.8z"/>
<path fill="#02E2AC" stroke="#0E0333" stroke-linejoin="round" stroke-miterlimit="10" d="M1094.8,869.5c2.6-6-0.5-13.5-6.6-15.9
	c-14.1-5.9-18.4,13.2-22.4,22.3l22.5,9.3L1094.8,869.5z"/>
<path fill="#B3FFED" stroke="#0E0333" stroke-linejoin="round" stroke-miterlimit="10" d="M1065.8,875.9
	c-3.6,9.3-14.1,25.8,0.1,31.6c14.1,5.9,18.4-13.2,22.4-22.3L1065.8,875.9z"/>
<path fill="#02E2AC" stroke="#0E0333" stroke-linejoin="round" stroke-miterlimit="10" d="M836.5,900.8c2.7-6.8-6.8-12.4-11.5-6.9
	c-1.5,1.3-3.8,9.5-4.6,11.3l12.8,4.6L836.5,900.8z"/>
<path fill="#B3FFED" stroke="#0E0333" stroke-linejoin="round" stroke-miterlimit="10" d="M820.5,905.2c-1.8,5.2-7.2,15,0.9,17.7
	c7.9,3,10-8,12-13.1L820.5,905.2z"/>
<path fill="#02E2AC" stroke="#0E0333" stroke-linejoin="round" stroke-miterlimit="10" d="M717.8,821.6c3.9-6.3-4.5-13.7-10.3-9
	c-1.7,1-5.5,8.8-6.7,10.5l12,7L717.8,821.6z"/>
<path fill="#B3FFED" stroke="#0E0333" stroke-linejoin="round" stroke-miterlimit="10" d="M700.8,823c-2.7,4.9-10,13.8-2.4,18l0,0
	c7.4,4.5,11.5-6.2,14.4-11L700.8,823z"/>
<path fill="#02E2AC" stroke="#0E0333" stroke-linejoin="round" stroke-miterlimit="10" d="M452.7,874.8c-3.6-4.7-11-5.5-15.6-1.7
	l0,0c-10.9,8.7,2.5,20.5,8.1,27.7l17.3-13.9L452.7,874.8z"/>
<path fill="#B3FFED" stroke="#0E0333" stroke-linejoin="round" stroke-miterlimit="10" d="M445.2,900.9c5.9,7,14.4,22.6,25.3,13.8
	c10.9-8.7-2.5-20.5-8.1-27.7L445.2,900.9z"/>
<path fill="#02E2AC" stroke="#0E0333" stroke-linejoin="round" stroke-miterlimit="10" d="M214.5,914.8c1.1-3.6-1.1-7.6-4.7-8.6
	c-8.2-2.6-9.7,8.7-11.4,14l13.3,3.9L214.5,914.8z"/>
<path fill="#B3FFED" stroke="#0E0333" stroke-linejoin="round" stroke-miterlimit="10" d="M198.5,920.2c-1.5,5.4-6.4,15.7,1.9,17.9
	c8.2,2.6,9.7-8.7,11.4-14L198.5,920.2z"/>
<path fill="#02E2AC" stroke="#0E0333" stroke-linejoin="round" stroke-miterlimit="10" d="M63.4,870.4c2.1-3.3,1-8-2.4-9.9l0,0
	c-7.6-4.9-12.1,6.1-15.2,11l12.3,7.6L63.4,870.4z"/>
</g>
<g class="b">
<path fill="#B3FFED" stroke="#0E0333" stroke-linejoin="round" stroke-miterlimit="10" d="M45.8,871.5c-3,5-10.7,14-2.9,18.6l0,0
	c7.6,4.9,12.1-6.1,15.2-11L45.8,871.5z"/>
<path fill="#02E2AC" stroke="#0E0333" stroke-linejoin="round" stroke-miterlimit="10" d="M1974.2,664c-3.7-3.6-10.2-3.4-13.7,0.5
	l0,0c-8.3,8.9,4.8,17.4,10.4,22.9l13.1-14.2L1974.2,664z"/>
<path fill="#B3FFED" stroke="#0E0333" stroke-linejoin="round" stroke-miterlimit="10" d="M1970.9,687.4c5.9,5.3,15.3,17.7,23.6,8.7
	l0,0c8.3-8.9-4.8-17.4-10.4-22.9L1970.9,687.4z"/>
<path fill="#02E2AC" stroke="#0E0333" stroke-linejoin="round" stroke-miterlimit="10" d="M1776.1,672.2c0.3-5.4-4.4-10.3-9.8-10.4
	c-12.7-0.4-10.4,15.7-10.8,24l20.2,0.6L1776.1,672.2z"/>
<path fill="#B3FFED" stroke="#0E0333" stroke-linejoin="round" stroke-miterlimit="10" d="M1755.5,685.8c0,8.3-3.3,24.2,9.4,24.5
	c12.7,0.4,10.4-15.7,10.8-24L1755.5,685.8z"/>
<path fill="#02E2AC" stroke="#0E0333" stroke-linejoin="round" stroke-miterlimit="10" d="M1569.5,663.6c-2.2-3.7-7.4-4.9-11-2.5
	l0,0c-8.5,5.1,0.1,15.1,3.4,20.5l13.6-8.5L1569.5,663.6z"/>
<path fill="#B3FFED" stroke="#0E0333" stroke-linejoin="round" stroke-miterlimit="10" d="M1561.8,681.6c3.5,5.4,8.6,17.5,16.9,12.1
	l0,0c8.5-5.1-0.1-15.1-3.4-20.5L1561.8,681.6z"/>
<path fill="#02E2AC" stroke="#0E0333" stroke-linejoin="round" stroke-miterlimit="10" d="M1386.3,669.7c2.8-3.7,1.9-9.5-1.9-12.2
	l0,0c-8.9-6.5-15,6.1-19.3,11.8l14.1,10.2L1386.3,669.7z"/>
<path fill="#B3FFED" stroke="#0E0333" stroke-linejoin="round" stroke-miterlimit="10" d="M1365,669.4c-4.1,5.9-14.1,15.6-5.2,22
	l0,0c8.9,6.5,15-6.1,19.3-11.8L1365,669.4z"/>
<path fill="#02E2AC" stroke="#0E0333" stroke-linejoin="round" stroke-miterlimit="10" d="M1169.6,672c-0.7-6-6.7-10.5-12.6-9.5
	c-14,1.9-8.4,19.1-7.3,28.1l22.1-3.1L1169.6,672z"/>
<path fill="#B3FFED" stroke="#0E0333" stroke-linejoin="round" stroke-miterlimit="10" d="M1149.7,690.6c1.5,9.1,0.9,27,14.8,25
	c14-1.9,8.4-19,7.3-28.1L1149.7,690.6z"/>
<path fill="#02E2AC" stroke="#0E0333" stroke-linejoin="round" stroke-miterlimit="10" d="M1006.4,642.2c4.2-5.9-1.7-14.5-8.7-12.8
	c-5.1,0.4-9,10.1-11.8,13.4l14,9.2L1006.4,642.2z"/>
<path fill="#B3FFED" stroke="#0E0333" stroke-linejoin="round" stroke-miterlimit="10" d="M986,642.8c-3.6,5.7-12.9,15.9-4,21.4
	c8.8,5.8,14.2-6.6,18.1-12.2L986,642.8z"/>
<path fill="#02E2AC" stroke="#0E0333" stroke-linejoin="round" stroke-miterlimit="10" d="M823.6,617.3c2.3-3.1,1.5-7.8-1.7-10l0,0
	c-7.2-5.3-12.4,5.3-15.8,9.9l11.7,8.3L823.6,617.3z"/>
<path fill="#B3FFED" stroke="#0E0333" stroke-linejoin="round" stroke-miterlimit="10" d="M806,617.2c-3.2,4.8-11.5,13.2-4.1,18.3
	l0,0c7.2,5.3,12.4-5.3,15.8-9.9L806,617.2z"/>
<path fill="#02E2AC" stroke="#0E0333" stroke-linejoin="round" stroke-miterlimit="10" d="M579.6,640.2c-7.6-6.5-19.2,3.3-14.1,11.9
	c1,2.5,10.7,9.1,12.7,11l11.7-14.7L579.6,640.2z"/>
<path fill="#B3FFED" stroke="#0E0333" stroke-linejoin="round" stroke-miterlimit="10" d="M578.2,663.1c6.1,4.6,16.2,15.9,23.5,6.7
	l0,0c7.4-9.2-5.9-16.5-11.8-21.4L578.2,663.1z"/>
<path fill="#02E2AC" stroke="#0E0333" stroke-linejoin="round" stroke-miterlimit="10" d="M415.6,615.7c0.6-4.9-3.2-9.7-8.2-10.1
	c-11.5-1.2-10.5,13.5-11.4,20.9l18.2,2L415.6,615.7z"/>
<path fill="#B3FFED" stroke="#0E0333" stroke-linejoin="round" stroke-miterlimit="10" d="M395.9,626.6c-0.6,7.5-4.7,21.7,6.8,22.9
	c11.5,1.3,10.5-13.5,11.5-20.9L395.9,626.6z"/>
</g>
<g class="a">
<path fill="#02E2AC" stroke="#0E0333" stroke-linejoin="round" stroke-miterlimit="10" d="M225.8,640.9c10.7-7.3,2.5-25.1-10-21.7
	c-3.5,0.4-15.1,10.2-18.1,12l14.3,19.7L225.8,640.9z"/>
<path fill="#B3FFED" stroke="#0E0333" stroke-linejoin="round" stroke-miterlimit="10" d="M197.7,631.2c-8,6-25.6,14.6-16.5,27l0,0
	c8.9,12.5,22.6-1.6,30.8-7.3L197.7,631.2z"/>
<path fill="#02E2AC" stroke="#0E0333" stroke-linejoin="round" stroke-miterlimit="10" d="M2100.3,443.7c-1.7-5.1-7.8-7.9-12.8-5.9
	c-11.8,4.3-3.7,18.2-1.1,26l18.8-6.9L2100.3,443.7z"/>
<path fill="#B3FFED" stroke="#0E0333" stroke-linejoin="round" stroke-miterlimit="10" d="M2086.4,463.8c3,7.6,5.9,23.4,17.7,19.1
	s3.7-18.2,1.1-26L2086.4,463.8z"/>
<path fill="#02E2AC" stroke="#0E0333" stroke-linejoin="round" stroke-miterlimit="10" d="M1898.4,445.1c-1.4-5.4-7.5-8.8-12.8-7.1
	c-12.6,3.5-5.3,18.6-3.2,26.8l19.9-5.7L1898.4,445.1z"/>
<path fill="#B3FFED" stroke="#0E0333" stroke-linejoin="round" stroke-miterlimit="10" d="M1882.5,464.8c2.5,8.1,4.2,24.7,16.8,21.1
	c12.6-3.5,5.3-18.6,3.2-26.7L1882.5,464.8z"/>
<path fill="#02E2AC" stroke="#0E0333" stroke-linejoin="round" stroke-miterlimit="10" d="M1660.7,464.2c-1.2-2.3-4.3-3.2-6.5-2
	c-5.3,2.7-0.5,9,1.3,12.5l8.5-4.6L1660.7,464.2z"/>
<path fill="#B3FFED" stroke="#0E0333" stroke-linejoin="round" stroke-miterlimit="10" d="M1655.4,474.7c1.9,3.4,4.5,10.8,9.7,7.9
	c5.3-2.7,0.5-9-1.2-12.4L1655.4,474.7z"/>
<path fill="#02E2AC" stroke="#0E0333" stroke-linejoin="round" stroke-miterlimit="10" d="M1438.1,503.6
	c-1.8-9.5-15.4-11.9-20.3-3.6c-4.3,5.2,1.2,18,1.9,23.6l21.8-4.8L1438.1,503.6z"/>
<path fill="#B3FFED" stroke="#0E0333" stroke-linejoin="round" stroke-miterlimit="10" d="M1419.8,523.6c2.2,8.9,3,26.8,16.7,23.7
	c13.7-3,6.9-19.6,5.1-28.5L1419.8,523.6z"/>
<path fill="#02E2AC" stroke="#0E0333" stroke-linejoin="round" stroke-miterlimit="10" d="M1296.3,435.8c-5.3-4.4-13.8-3.5-18,2l0,0
	c-10.1,12.5,8,22.4,16,29.2l16-19.9L1296.3,435.8z"/>
<path fill="#B3FFED" stroke="#0E0333" stroke-linejoin="round" stroke-miterlimit="10" d="M1294.3,467c8.3,6.4,21.9,21.8,31.9,9.2
	l0,0c10.1-12.5-8-22.4-16-29.2L1294.3,467z"/>
<path fill="#02E2AC" stroke="#0E0333" stroke-linejoin="round" stroke-miterlimit="10" d="M1132.6,437.6c4.7-4.2,5-12.1,0.6-16.6
	l0,0c-10-10.8-21.4,4.3-28.6,10.6l16,17.1L1132.6,437.6z"/>
<path fill="#B3FFED" stroke="#0E0333" stroke-linejoin="round" stroke-miterlimit="10" d="M1104.6,431.6c-6.9,6.7-22.7,17-12.6,27.8
	c10,10.8,21.4-4.3,28.6-10.6L1104.6,431.6z"/>
<path fill="#02E2AC" stroke="#0E0333" stroke-linejoin="round" stroke-miterlimit="10" d="M866,500.2c4.3-4.6,3.9-12.6-0.9-16.7l0,0
	c-11.1-10-21.2,6.2-27.8,13.3l17.6,15.8L866,500.2z"/>
<path fill="#B3FFED" stroke="#0E0333" stroke-linejoin="round" stroke-miterlimit="10" d="M837.3,496.8c-6.3,7.4-21.3,19.1-10.2,29
	l0,0c11.1,10,21.2-6.2,27.8-13.2L837.3,496.8z"/>
</g>
<g class="b">
<path fill="#02E2AC" stroke="#0E0333" stroke-linejoin="round" stroke-miterlimit="10" d="M643.3,473.4c-3.6-2.8-9.3-2.1-12,1.6l0,0
	c-6.6,8.3,5.8,15,11.2,19.2l10.3-13.6L643.3,473.4z"/>
<path fill="#B3FFED" stroke="#0E0333" stroke-linejoin="round" stroke-miterlimit="10" d="M642.5,494.2c5.7,4.1,15,14.2,21.5,5.6
	c6.5-8.5-5.7-14.9-11.2-19.2L642.5,494.2z"/>
<path fill="#02E2AC" stroke="#0E0333" stroke-linejoin="round" stroke-miterlimit="10" d="M505.9,425c-3.3-10.1-18.6-10.7-22.8-0.9
	c-3.9,6.4,4,19.5,5.5,25.6l23.2-8.5L505.9,425z"/>
<path fill="#B3FFED" stroke="#0E0333" stroke-linejoin="round" stroke-miterlimit="10" d="M488.7,449.7c3.7,9.4,7.2,28.9,21.8,23.5
	c14.6-5.3,4.6-22.5,1.4-32L488.7,449.7z"/>
<path fill="#02E2AC" stroke="#0E0333" stroke-linejoin="round" stroke-miterlimit="10" d="M253.1,471.6c-0.5-5.2-5.6-9.3-10.8-8.6
	c-12.3,1.3-7.8,16.5-7.1,24.5l19.5-2.2L253.1,471.6z"/>
<path fill="#B3FFED" stroke="#0E0333" stroke-linejoin="round" stroke-miterlimit="10" d="M235.2,487.5c1.1,8,0.1,23.7,12.4,22.2
	c12.3-1.4,7.8-16.5,7.1-24.5L235.2,487.5z"/>
<path fill="#02E2AC" stroke="#0E0333" stroke-linejoin="round" stroke-miterlimit="10" d="M22.5,503.9c2.5-1.8,3.1-5.6,1.2-8l0,0
	c-4.1-5.8-10.7,0.9-14.4,3.6l6.8,9.2L22.5,503.9z"/>
<path fill="#B3FFED" stroke="#0E0333" stroke-linejoin="round" stroke-miterlimit="10" d="M9.2,499.5c-3.6,2.8-12,7.2-7.6,12.8
	c4.1,5.8,10.7-0.9,14.4-3.6L9.2,499.5z"/>
<path fill="#02E2AC" stroke="#0E0333" stroke-linejoin="round" stroke-miterlimit="10" d="M2006.6,237.5c-2.3-5.8-9.5-8.8-15.2-6.3
	c-13.6,5.6-3.4,21.4,0,30.3l21.5-9L2006.6,237.5z"/>
<path fill="#B3FFED" stroke="#0E0333" stroke-linejoin="round" stroke-miterlimit="10" d="M1991.4,261.5c3.9,8.7,8,27,21.5,21.4
	c13.6-5.6,3.4-21.4,0-30.3L1991.4,261.5z"/>
<path fill="#02E2AC" stroke="#0E0333" stroke-linejoin="round" stroke-miterlimit="10" d="M1765.5,275.3c2.3-1.5,2.9-4.8,1.3-7l0,0
	c-3.4-5.2-9.4,0.4-12.8,2.6l5.7,8.3L1765.5,275.3z"/>
<path fill="#B3FFED" stroke="#0E0333" stroke-linejoin="round" stroke-miterlimit="10" d="M1754,271c-3.3,2.3-10.8,5.8-7.1,10.9l0,0
	c3.4,5.2,9.4-0.4,12.8-2.6L1754,271z"/>
<path fill="#02E2AC" stroke="#0E0333" stroke-linejoin="round" stroke-miterlimit="10" d="M1541.1,285c-1.6-3.2-5.8-4.7-9-3
	c-7.5,3.6-1.1,12.5,1.2,17.4l12-5.9L1541.1,285z"/>
<path fill="#B3FFED" stroke="#0E0333" stroke-linejoin="round" stroke-miterlimit="10" d="M1533.3,299.4c2.5,4.8,5.8,15.2,13.1,11.4
	c7.5-3.6,1.1-12.5-1.2-17.3L1533.3,299.4z"/>
<path fill="#02E2AC" stroke="#0E0333" stroke-linejoin="round" stroke-miterlimit="10" d="M1341.4,315.3c3.8-2.9,4.4-8.8,1.3-12.4
	l0,0c-7-8.7-16.3,2-22.1,6.5l11.1,13.8L1341.4,315.3z"/>
<path fill="#B3FFED" stroke="#0E0333" stroke-linejoin="round" stroke-miterlimit="10" d="M1320.7,309.3c-5.5,4.7-18,11.6-10.9,20.2
	l0,0c7,8.7,16.3-2,22.1-6.5L1320.7,309.3z"/>
<path fill="#02E2AC" stroke="#0E0333" stroke-linejoin="round" stroke-miterlimit="10" d="M1228.5,213.8c1.3-5.1-2.3-10.7-7.5-11.8
	c-12.1-2.7-12.8,13.1-14.8,21l19.2,4.2L1228.5,213.8z"/>
<path fill="#B3FFED" stroke="#0E0333" stroke-linejoin="round" stroke-miterlimit="10" d="M1206.3,223c-1.6,7.9-7.6,22.6,4.5,25.2
	c12.1,2.7,12.8-13.1,14.8-21L1206.3,223z"/>
<path fill="#02E2AC" stroke="#0E0333" stroke-linejoin="round" stroke-miterlimit="10" d="M983.3,247.8c0.8-4.2-2.3-8.5-6.5-9.1
	c-9.7-1.8-9.8,11.2-10.9,17.4l15.6,2.6L983.3,247.8z"/>
<path fill="#B3FFED" stroke="#0E0333" stroke-linejoin="round" stroke-miterlimit="10" d="M965.9,256c-1,6.3-5.1,18.6,4.6,20
	c9.7,1.8,9.8-11.2,10.9-17.4L965.9,256z"/>
</g>
<g class="a">
<path fill="#02E2AC" stroke="#0E0333" stroke-linejoin="round" stroke-miterlimit="10" d="M759.7,278.1c0.3-10.8-14.1-16.7-21.5-8.8
	c-5.9,4.8-2.9,20.1-3.5,26.5l25.2-0.1L759.7,278.1z"/>
<path fill="#B3FFED" stroke="#0E0333" stroke-linejoin="round" stroke-miterlimit="10" d="M734.6,295.9c0.3,10.3-3.1,30.3,12.7,30.1
	c15.9,0,12.2-20,12.4-30.3L734.6,295.9z"/>
<path fill="#02E2AC" stroke="#0E0333" stroke-linejoin="round" stroke-miterlimit="10" d="M587.7,240.8c-1-5.8-7.1-10-12.9-8.7
	c-13.6,2.6-7.3,19.1-5.9,28l21.6-4.1L587.7,240.8z"/>
<path fill="#B3FFED" stroke="#0E0333" stroke-linejoin="round" stroke-miterlimit="10" d="M569,260c1.9,8.8,2.2,26.5,15.8,23.9
	s7.3-19.1,5.9-28L569,260z"/>
<path fill="#02E2AC" stroke="#0E0333" stroke-linejoin="round" stroke-miterlimit="10" d="M347.6,263.8c-2.3-3.2-7.1-3.9-10.2-1.6
	l0,0c-7.4,5.2,1.1,13.6,4.5,18.4l11.7-8.6L347.6,263.8z"/>
<path fill="#B3FFED" stroke="#0E0333" stroke-linejoin="round" stroke-miterlimit="10" d="M341.9,280.7c3.5,4.7,9,15.3,16.2,9.8l0,0
	c7.4-5.2-1.1-13.6-4.5-18.4L341.9,280.7z"/>
<path fill="#02E2AC" stroke="#0E0333" stroke-linejoin="round" stroke-miterlimit="10" d="M162.3,244c-0.8-4.1-6.8-5.1-8.9-1.5
	c-1.8,2.3,0.6,7.9,1,10.4l9.5-2.2L162.3,244z"/>
<path fill="#B3FFED" stroke="#0E0333" stroke-linejoin="round" stroke-miterlimit="10" d="M154.3,252.9c1,3.8,1.5,11.8,7.4,10.3
	c6-1.3,2.9-8.7,2.1-12.5L154.3,252.9z"/>
<path fill="#02E2AC" stroke="#0E0333" stroke-linejoin="round" stroke-miterlimit="10" d="M2112.5,17.7c-2.1-3.4-7-4.3-10.3-2.1l0,0
	c-7.8,5,0.5,13.9,3.7,18.9l12.4-8.2L2112.5,17.7z"/>
<path fill="#B3FFED" stroke="#0E0333" stroke-linejoin="round" stroke-miterlimit="10" d="M2105.9,34.6c3.4,4.9,8.5,16,16.1,10.7
	l0,0c7.8-5-0.5-13.9-3.7-18.9L2105.9,34.6z"/>
<path fill="#02E2AC" stroke="#0E0333" stroke-linejoin="round" stroke-miterlimit="10" d="M1883.9,48.4c-4.2-4.1-11.5-3.8-15.5,0.5
	l0,0c-9.5,10,5.3,19.7,11.7,26l15-16L1883.9,48.4z"/>
<path fill="#B3FFED" stroke="#0E0333" stroke-linejoin="round" stroke-miterlimit="10" d="M1880.1,74.9c6.7,6,17.3,20.1,26.7,10l0,0
	c9.5-10-5.3-19.7-11.7-26L1880.1,74.9z"/>
<path fill="#02E2AC" stroke="#0E0333" stroke-linejoin="round" stroke-miterlimit="10" d="M1710.6,38.1c0.5-6.7-5-12.9-11.7-13.2
	c-15.7-1-13.4,19-14.2,29.1l24.9,1.5L1710.6,38.1z"/>
<path fill="#B3FFED" stroke="#0E0333" stroke-linejoin="round" stroke-miterlimit="10" d="M1684.7,54c-0.4,10.2-5,29.7,10.7,30.6
	c15.7,1,13.4-19,14.2-29.1L1684.7,54z"/>
<path fill="#02E2AC" stroke="#0E0333" stroke-linejoin="round" stroke-miterlimit="10" d="M1487.5,49.6c-1.9-6.1-9.1-9.5-15-7.4
	c-14.1,4.8-4.9,21.5-2,30.7l22.4-7.7L1487.5,49.6z"/>
<path fill="#B3FFED" stroke="#0E0333" stroke-linejoin="round" stroke-miterlimit="10" d="M1470.5,73c3.4,9.1,6.3,27.9,20.4,23
	c14.1-4.8,4.9-21.5,2-30.7L1470.5,73z"/>
<path fill="#02E2AC" stroke="#0E0333" stroke-linejoin="round" stroke-miterlimit="10" d="M1305.8,65.1c5.1-3.9,6-11.9,1.9-16.9l0,0
	c-9.4-11.8-22.2,2.7-30,8.6l15,18.8L1305.8,65.1z"/>
<path fill="#B3FFED" stroke="#0E0333" stroke-linejoin="round" stroke-miterlimit="10" d="M1277.7,56.8c-7.6,6.3-24.5,15.5-15,27.3
	l0,0c9.4,11.8,22.2-2.6,30-8.6L1277.7,56.8z"/>
<path fill="#02E2AC" stroke="#0E0333" stroke-linejoin="round" stroke-miterlimit="10" d="M1042.8,83.6c-4.6-4.9-13-5-17.7-0.2l0,0
	c-11.3,11,5.1,22.7,12.1,30.2l17.8-17.5L1042.8,83.6z"/>
<path fill="#B3FFED" stroke="#0E0333" stroke-linejoin="round" stroke-miterlimit="10" d="M1037.2,113.6
	c7.3,7.1,18.7,23.7,29.9,12.7l0,0c11.2-11-5.1-22.7-12.1-30.2L1037.2,113.6z"/>
</g>
<g class="b">
<path fill="#02E2AC" stroke="#0E0333" stroke-linejoin="round" stroke-miterlimit="10" d="M862.5,49.5c-3-2.4-7.7-1.8-10.1,1.3l0,0
	c-5.6,6.9,4.7,12.6,9.2,16.2l8.8-11.3L862.5,49.5z"/>
<path fill="#B3FFED" stroke="#0E0333" stroke-linejoin="round" stroke-miterlimit="10" d="M861.6,67c4.6,3.5,12.6,12.1,18,4.9l0,0
	c5.6-6.9-4.7-12.6-9.2-16.2L861.6,67z"/>
<path fill="#02E2AC" stroke="#0E0333" stroke-linejoin="round" stroke-miterlimit="10" d="M664.3,92.4c4.3-4.1,4.3-11.6,0-15.8l0,0
	c-9.9-10-20.2,4.7-26.8,11l15.8,15.8L664.3,92.4z"/>
<path fill="#B3FFED" stroke="#0E0333" stroke-linejoin="round" stroke-miterlimit="10" d="M637.5,87.7c-6.3,6.6-21,16.9-11.1,26.8
	l0,0c9.9,10,20.2-4.7,26.8-11L637.5,87.7z"/>
<path fill="#02E2AC" stroke="#0E0333" stroke-linejoin="round" stroke-miterlimit="10" d="M501.3,51.4c7.5-10-5.6-23.7-15.9-16.6
	c-3.1,1.5-10.5,14-12.7,16.6l19.2,13.5L501.3,51.4z"/>
<path fill="#B3FFED" stroke="#0E0333" stroke-linejoin="round" stroke-miterlimit="10" d="M472.7,51.4c-5.3,8-18.7,21.4-6.5,29.8
	l0,0c12.1,8.5,20.1-8.7,25.7-16.4L472.7,51.4z"/>
<path fill="#02E2AC" stroke="#0E0333" stroke-linejoin="round" stroke-miterlimit="10" d="M310.4,7.3C308.9,2.2,303-0.8,298,1
	c-11.8,3.8-4.3,17.8-2,25.6l18.7-6.1L310.4,7.3z"/>
<path fill="#B3FFED" stroke="#0E0333" stroke-linejoin="round" stroke-miterlimit="10" d="M296,26.6c2.7,7.6,4.9,23.3,16.7,19.4
	c11.8-3.8,4.4-17.8,2-25.6L296,26.6z"/>
<path fill="#02E2AC" stroke="#0E0333" stroke-linejoin="round" stroke-miterlimit="10" d="M121.8,29.6c4.6-3.8,5.2-11.3,1.2-15.8
	l0,0C113.8,3,102.3,17,95.2,22.9l14.7,17L121.8,29.6z"/>
<path fill="#B3FFED" stroke="#0E0333" stroke-linejoin="round" stroke-miterlimit="10" d="M95.2,22.9C88.4,29,72.9,38.3,82.1,49l0,0
	c9.2,10.7,20.7-3.3,27.8-9.1L95.2,22.9z"/>
</g>
</g>
</svg>
