<svg width="1775" height="1108" viewBox="0 0 1775 1108" fill="none" xmlns="http://www.w3.org/2000/svg">
<style>
 .slow {
        -webkit-animation: slidedownslow 2s ease-in-out infinite alternate;
                animation: slidedownslow 2s ease-in-out infinite alternate;
    }
    .fast {
        -webkit-animation: slideupfast 1.3s ease-in-out infinite alternate;
                animation: slideupfast 1.3s ease-in-out infinite alternate;
    }
    @-webkit-keyframes slideupfast {
        from {
        transform: translateY(0%);
        }
        to {
        transform: translateY(-2%);
        }
    }
    @keyframes slideupfast {
        from {
        transform: translateY(0%);
        }
        to {
        transform: translateY(-2%);
        }
    }

    @-webkit-keyframes slidedownslow {
        from {
            transform: translateY(0%);
        }
        to {
            transform: translateY(2%);
        }
    }

    @keyframes slidedownslow {
        from {
            transform: translateY(0%);
        }
        to {
            transform: translateY(2%);
        }
    }
</style>
<path class="slow" d="M870 206L897.91 295.95L932.03 226.16L870 206Z" fill="#FFEEA8" stroke="#0E0333" stroke-miterlimit="10"/>
<path class="fast" d="M802.013 593.926L812.502 699.836L866.111 630.328L802.013 593.926Z" stroke="#0E0333" stroke-miterlimit="10"/>
<path class="slow" d="M87.1787 540.893L3 552.616L132.509 465.242L87.1787 540.893Z" stroke="#0E0333" stroke-miterlimit="10"/>
<path class="slow" d="M1372.33 101.575L1297.25 141.41L1389.02 14.9776L1372.33 101.575Z" stroke="#0E0333" stroke-miterlimit="10"/>
<path class="fast" d="M778.01 914L681 957.76L763.98 986.36L778.01 914Z" fill="#FFEEA8" stroke="#0E0333" stroke-miterlimit="10"/>
<path class="slow" d="M193.365 22L122.38 201.522L266.47 133.767L193.365 22Z" fill="#FFCC00" stroke="#0E0333" stroke-miterlimit="10"/>
<path class="fast" d="M54.6463 980.454L152.293 1105.89L164.62 975.359L54.6463 980.454Z" fill="#FFEEA8" stroke="#0E0333" stroke-miterlimit="10"/>
<path class="fast" d="M1767.32 237.123L1671.25 278.575L1726.36 196.116L1767.32 237.123Z" fill="#5BF1CD" stroke="#0E0333" stroke-miterlimit="10"/>
<path class="fast" d="M712.017 36.7104L650.115 121.072L655.933 22.0652L712.017 36.7104Z" fill="#5BF1CD" stroke="#0E0333" stroke-miterlimit="10"/>
<path class="slow" d="M1484.08 980.972L1367.38 1077.5L1410.7 940.528L1484.08 980.972Z" fill="#5BF1CD" stroke="#0E0333" stroke-miterlimit="10"/>
<path class="fast" d="M1737.64 677L1731.03 742.47L1670 750.71L1737.64 677Z" fill="#FFCC00" stroke="#0E0333" stroke-miterlimit="10"/>
</svg>
